<svg xmlns="http://www.w3.org/2000/svg" width="9" height="140" viewBox="0 0 9 140" fill="none">
<path d="M1.24072 1.17831C1.24072 10.9572 5.07624 20.2899 5.07624 30.1365C5.07624 33.2664 5.45979 36.4625 5.45979 39.5122C5.45979 43.5332 4.38684 47.4607 4.30914 51.4236C4.24652 54.617 4.30914 57.8181 4.30914 61.0124C4.30914 67.2188 6.22689 73.122 6.22689 79.2737C6.22689 83.9839 6.35504 88.7148 6.20559 93.4225C6.07307 97.5968 5.45979 101.705 5.45979 105.888C5.45979 112.207 6.147 118.846 4.39437 124.98C3.62958 127.657 4.68678 131.248 5.07624 133.887C5.38257 135.963 5.05292 138.106 7.37755 138.106" stroke="#E2E2E2" stroke-width="2" stroke-linecap="round"/>
</svg>