<svg xmlns="http://www.w3.org/2000/svg" width="35" height="34" viewBox="0 0 35 34" fill="none">
<path fill-rule="evenodd" clip-rule="evenodd" d="M34.0288 10.1088L33.8525 2.77555C33.8476 2.57445 33.8154 2.17576 33.7697 1.78814V1.56491H33.7413C33.687 1.16019 33.6202 0.815801 33.5585 0.801724L31.7998 0.382927C31.3905 0.285895 30.9846 0.108924 30.5755 0.229083L28.4242 0.863563C28.29 0.903784 28.1523 0.984225 28.0178 0.967634C27.767 0.936463 27.5144 0.804238 27.2642 0.722791C26.6076 0.509119 25.9509 0.251204 25.2934 0.081272C24.7954 -0.0469313 24.2882 0.0631727 23.7891 0.0611617C23.3261 0.0596534 22.8508 -0.0775995 22.3889 0.0802665L20.3447 0.776586C19.955 0.909314 19.5856 1.00031 19.1955 0.970651L17.0559 0.807255C16.6271 0.774073 16.1978 0.852503 15.7691 0.89021C15.2116 0.937972 14.644 1.12198 14.0867 1.0345C13.4853 0.938977 12.8797 0.579002 12.2805 0.352259C11.876 0.199923 11.4721 -0.0348651 11.0659 0.00435002C9.95291 0.11194 8.84052 0.168752 7.72924 0.445269C7.07251 0.608162 6.41579 0.797199 5.75866 0.934452C5.26443 1.03701 4.76638 0.997297 4.27165 1.02495C3.11224 1.0893 1.95525 1.06165 0.795736 1.0169C0.611797 1.01037 0.427958 1.00333 0.24412 0.995789L0.235563 1.06617L0.0735714 7.28479C0.0358171 8.73675 -0.0150253 10.1339 0.00420417 11.5889C0.0561541 15.5376 0.12381 19.4646 0.11193 23.4178C0.104882 25.8084 0.0976335 28.199 0.0903846 30.5891C0.0889751 31.025 0.160054 31.5122 0.210896 31.8712C0.243919 32.1044 0.310064 32.6972 0.386479 32.7017C0.974641 32.7344 1.563 32.7671 2.15127 32.8013C2.5725 32.8244 2.99495 32.9013 3.41609 32.8244C4.52777 32.6203 5.63765 32.3392 6.75054 32.3729C7.41885 32.393 8.08755 32.3845 8.75575 32.4348C9.25149 32.4725 9.74874 32.6731 10.2436 32.7962L11.3196 33.0642C11.434 33.0929 11.547 33.1507 11.6609 33.0974L13.7196 32.1391C13.9357 32.0386 14.1574 31.8641 14.3749 31.8335C14.5433 31.8113 14.7189 31.924 14.8867 31.9697C15.5957 32.1638 16.3047 32.3568 17.0136 32.5499C17.9952 32.8174 18.9863 32.4604 19.9696 32.5725C20.9992 32.6907 22.0268 33.1738 23.0573 33.1763L25.2363 33.1819C25.6469 33.1829 26.0511 32.9918 26.4604 32.8375L27.6288 32.3986C27.8589 32.3121 28.093 32.1643 28.3242 32.1371C28.4841 32.1185 28.6475 32.1944 28.8072 32.2256L29.963 32.4488C31.1187 32.6716 32.2715 32.7253 33.4284 32.7791L33.9721 32.8043C33.9791 32.8053 33.9811 32.7716 33.9809 32.7259C33.9892 29.1276 33.9799 25.5203 34.0092 21.9236L34.0716 14.2817C34.0835 12.8483 34.0632 11.5396 34.0288 10.1088Z" fill="#DCFF02"/>
</svg>