<svg xmlns="http://www.w3.org/2000/svg" width="32" height="17" viewBox="0 0 32 17" fill="none">
<path d="M2 5.16523C2.04775 5.38009 2.40743 5.58521 2.54638 5.72416C3.4196 6.59739 4.25484 7.465 5.2029 8.26136C5.93539 8.87665 6.6923 9.51839 7.36956 10.1957C8.26706 11.0932 9.1519 12.1765 9.91304 13.1913" stroke="#E2E2E2" stroke-width="2.42731" stroke-linecap="round"/>
<path d="M11.9476 4.82608C11.0687 5.37016 10.3023 6.25108 9.57366 6.97391C8.51853 8.02066 7.44292 9.04159 6.421 10.1203C5.9301 10.6385 5.39046 11.111 4.93888 11.6652C4.69463 11.965 4.4744 12.3384 4.14758 12.5382C3.70617 12.8079 3.2608 13.3568 2.8413 13.7C2.59902 13.8982 2.36155 14.3104 2.11279 14.4348" stroke="#E2E2E2" stroke-width="2.42731" stroke-linecap="round"/>
<path d="M16.8086 3.92174C17.0028 3.98001 17.1298 4.21625 17.2482 4.36135C17.7823 5.01578 18.3301 5.65828 18.8622 6.31449C20.3743 8.17946 22.1283 9.85108 23.9303 11.4329C25.3275 12.6593 26.7952 13.9708 28.339 15" stroke="#E2E2E2" stroke-width="2.42731" stroke-linecap="round"/>
<path d="M30.6001 2C30.3843 2.02398 30.251 2.27255 30.1228 2.42077C29.5579 3.07393 28.9334 3.67868 28.3141 4.27971C26.1287 6.40091 23.7453 8.36723 21.3934 10.3024C20.217 11.2703 19.0877 12.2824 17.9393 13.2792C17.6836 13.5011 17.4306 13.9543 17.1479 14.0956" stroke="#E2E2E2" stroke-width="2.42731" stroke-linecap="round"/>
</svg>