<svg xmlns="http://www.w3.org/2000/svg" width="9" height="10" viewBox="0 0 9 10" fill="none">
<path d="M3.89312 1.11132C1.80191 2.00632 0.297809 4.71063 0.95956 6.94112C1.59865 9.09764 4.52022 9.69275 6.2429 8.54852C7.84963 7.48092 8.39475 5.36238 8.07287 3.55307C7.62971 1.06201 5.11332 0.0737156 2.85284 0.121031C1.77992 0.143689 1.77792 1.80973 2.85284 1.78707C4.28564 1.75708 5.81839 2.09762 6.35819 3.58905C6.72605 4.60467 6.47414 5.87219 5.80573 6.70854C4.97005 7.75481 3.28268 7.76081 2.58028 6.52994C1.76925 5.11048 3.54658 3.05859 4.73414 2.54945C5.7191 2.1276 4.86942 0.692815 3.89312 1.11132Z" fill="#E2E2E2"/>
</svg>