<svg xmlns="http://www.w3.org/2000/svg" width="1512" height="982" viewBox="0 0 1512 982" fill="none">
<g clip-path="url(#clip0_26_912)">
<rect width="1512" height="982" fill="white"/>
<path d="M105.234 662.276C95.2465 666.551 88.0629 679.466 91.2234 690.119C94.2757 700.419 108.229 703.261 116.457 697.796C124.13 692.697 126.734 682.579 125.197 673.938C123.08 662.04 111.062 657.32 100.266 657.546C95.1414 657.655 95.1319 665.612 100.266 665.503C107.109 665.36 114.429 666.987 117.007 674.11C118.764 678.96 117.561 685.014 114.369 689.008C110.378 694.005 102.319 694.034 98.964 688.155C95.0905 681.376 103.579 671.576 109.251 669.145C113.955 667.13 109.897 660.277 105.234 662.276Z" fill="#E2E2E2"/>
<path d="M175.949 657.686C164.3 661.347 155.694 673.043 154.191 684.931C152.6 697.513 167.55 705.292 178.098 700.196C187.831 695.492 193.668 684.158 194.651 673.763C195.905 660.516 184.4 655.834 173.161 657.686C168.11 658.52 170.258 666.185 175.278 665.357C194.4 662.203 185.335 686.239 175.879 692.379C169.046 696.819 160.894 691.37 162.387 683.595C163.867 675.883 170.526 667.728 178.066 665.357C182.942 663.826 180.857 656.143 175.949 657.686Z" fill="#E2E2E2"/>
<path d="M93.2884 758.986C129 798.5 160.5 795 189.565 760.383C194.696 760.396 194.696 752.439 189.565 752.426C157.47 752.343 125.387 751.102 93.2884 751.029C88.1578 751.016 88.1578 758.973 93.2884 758.986Z" fill="#E2E2E2"/>
<path d="M143.593 579.94C174.438 583.377 205.18 590.593 227.231 613.967C249.24 637.301 258.83 677.923 260.043 709.006C262.643 775.711 193.223 828.244 130.041 825.335C100.16 823.96 70.7862 802.928 51.7594 781.16C32.0101 758.566 23.8525 728.682 22.9613 699.248C21.9078 664.619 36.24 635.97 59.4586 611.112C72.5622 597.086 86.382 587.509 105.399 583.922C120.066 581.156 135.168 581.493 149.885 578.753C154.927 577.814 152.785 570.143 147.772 571.079C130.257 574.341 112.306 573.873 94.947 578.03C78.1799 582.047 65.5378 593.508 53.8314 605.482C28.3817 631.514 14.8579 662.823 15.0011 699.244C15.2558 763.591 63.4785 827.069 130.041 833.288C164.065 836.468 198.417 819.898 224.312 799.283C252.709 776.682 268.098 745.195 268 709.006C267.904 674.861 255.036 634.525 232.855 608.343C211.148 582.712 175.227 575.506 143.593 571.983C138.497 571.416 138.551 579.38 143.593 579.94Z" fill="#E2E2E2"/>
<path d="M110.893 35.1113C108.802 36.0063 107.298 38.7106 107.96 40.9411C108.599 43.0976 111.52 43.6927 113.243 42.5485C114.85 41.4809 115.395 39.3624 115.073 37.5531C114.63 35.062 112.113 34.0737 109.853 34.121C108.78 34.1437 108.778 35.8097 109.853 35.7871C111.286 35.7571 112.818 36.0976 113.358 37.5891C113.726 38.6047 113.474 39.8722 112.806 40.7085C111.97 41.7548 110.283 41.7608 109.58 40.5299C108.769 39.1105 110.547 37.0586 111.734 36.5494C112.719 36.1276 111.869 34.6928 110.893 35.1113Z" fill="#E2E2E2"/>
<path d="M125.699 34.1504C123.26 34.9167 121.458 37.3658 121.144 39.8549C120.81 42.4892 123.941 44.1179 126.149 43.051C128.187 42.066 129.409 39.6929 129.615 37.5164C129.878 34.7428 127.469 33.7625 125.116 34.1504C124.058 34.325 124.508 35.9297 125.559 35.7564C129.563 35.096 127.665 40.1288 125.685 41.4143C124.254 42.3439 122.547 41.203 122.86 39.575C123.17 37.9602 124.564 36.2529 126.142 35.7564C127.163 35.4359 126.727 33.8271 125.699 34.1504Z" fill="#E2E2E2"/>
<path d="M108.392 55.3603C115.112 55.3757 121.83 55.6356 128.55 55.6529C129.624 55.6556 129.624 53.9895 128.55 53.9869C121.83 53.9695 115.112 53.7096 108.392 53.6943C107.317 53.6916 107.317 55.3577 108.392 55.3603Z" fill="#E2E2E2"/>
<path d="M118.925 17.8718C125.383 18.5916 131.82 20.1023 136.437 24.9965C141.045 29.882 143.053 38.3874 143.307 44.8956C143.851 58.8624 129.316 69.8615 116.087 69.2524C109.831 68.9645 103.68 64.5609 99.6967 60.0033C95.5616 55.2724 93.8535 49.0154 93.6669 42.8524C93.4464 35.6018 96.4472 29.6034 101.309 24.3987C104.052 21.4618 106.946 19.4566 110.928 18.7055C113.999 18.1264 117.161 18.197 120.242 17.6233C121.298 17.4267 120.849 15.8206 119.8 16.0165C116.132 16.6996 112.374 16.6016 108.739 17.472C105.229 18.313 102.582 20.7128 100.13 23.2198C94.8018 28.6704 91.9702 35.2259 92.0002 42.8517C92.0535 56.3246 102.15 69.6156 116.087 70.9178C123.211 71.5836 130.404 68.1142 135.826 63.7978C141.771 59.0656 144.994 52.4728 144.973 44.8956C144.953 37.7463 142.259 29.3009 137.614 23.8189C133.069 18.4523 125.548 16.9435 118.925 16.2058C117.858 16.0872 117.869 17.7545 118.925 17.8718Z" fill="#E2E2E2"/>
<path d="M596.351 750.678C593.213 752.021 590.956 756.079 591.949 759.426C592.908 762.662 597.292 763.555 599.877 761.838C602.288 760.236 603.106 757.057 602.623 754.342C601.958 750.604 598.182 749.121 594.79 749.192C593.18 749.226 593.177 751.726 594.79 751.692C596.94 751.647 599.24 752.158 600.05 754.396C600.602 755.92 600.224 757.822 599.221 759.077C597.967 760.647 595.435 760.656 594.381 758.809C593.164 756.679 595.831 753.6 597.613 752.836C599.091 752.203 597.816 750.05 596.351 750.678Z" fill="#E2E2E2"/>
<path d="M618.568 749.236C614.908 750.386 612.204 754.061 611.732 757.796C611.232 761.749 615.929 764.193 619.243 762.592C622.301 761.114 624.135 757.553 624.444 754.287C624.838 750.125 621.223 748.654 617.692 749.236C616.105 749.498 616.78 751.906 618.357 751.646C624.365 750.655 621.517 758.207 618.546 760.136C616.399 761.531 613.838 759.819 614.307 757.376C614.772 754.953 616.864 752.391 619.233 751.646C620.765 751.165 620.11 748.751 618.568 749.236Z" fill="#E2E2E2"/>
<path d="M592.598 781.063C602.683 781.086 612.763 781.476 622.847 781.502C624.459 781.506 624.459 779.006 622.847 779.002C612.763 778.976 602.683 778.586 592.598 778.563C590.986 778.559 590.986 781.059 592.598 781.063Z" fill="#E2E2E2"/>
<path d="M608.402 724.809C618.093 725.889 627.752 728.156 634.68 735.5C641.595 742.831 644.608 755.594 644.989 765.36C645.806 786.318 623.995 802.823 604.144 801.909C594.756 801.477 585.527 794.869 579.549 788.03C573.344 780.931 570.781 771.542 570.501 762.294C570.17 751.414 574.673 742.413 581.968 734.603C586.085 730.196 590.427 727.187 596.402 726.06C601.01 725.191 605.755 725.297 610.379 724.436C611.963 724.141 611.29 721.731 609.715 722.025C604.212 723.05 598.572 722.903 593.118 724.209C587.85 725.471 583.878 729.072 580.2 732.834C572.204 741.013 567.955 750.85 568 762.293C568.08 782.51 583.231 802.454 604.144 804.408C614.834 805.407 625.627 800.201 633.763 793.724C642.685 786.623 647.52 776.73 647.489 765.36C647.459 754.632 643.416 741.959 636.447 733.733C629.627 725.68 618.341 723.416 608.402 722.309C606.801 722.131 606.818 724.633 608.402 724.809Z" fill="#E2E2E2"/>
<path d="M596.351 750.678C593.213 752.021 590.956 756.079 591.949 759.426C592.908 762.662 597.292 763.555 599.877 761.838C602.288 760.236 603.106 757.057 602.623 754.342C601.958 750.604 598.182 749.121 594.79 749.192C593.18 749.226 593.177 751.726 594.79 751.692C596.94 751.647 599.24 752.158 600.05 754.396C600.602 755.92 600.224 757.822 599.221 759.077C597.967 760.647 595.435 760.656 594.381 758.809C593.164 756.679 595.831 753.6 597.613 752.836C599.091 752.203 597.816 750.05 596.351 750.678Z" fill="#E2E2E2"/>
<path d="M618.568 749.236C614.908 750.386 612.204 754.061 611.732 757.796C611.232 761.749 615.929 764.193 619.243 762.592C622.301 761.114 624.135 757.553 624.444 754.287C624.838 750.125 621.223 748.654 617.692 749.236C616.105 749.498 616.78 751.906 618.357 751.646C624.365 750.655 621.517 758.207 618.546 760.136C616.399 761.531 613.838 759.819 614.307 757.376C614.772 754.953 616.864 752.391 619.233 751.646C620.765 751.165 620.11 748.751 618.568 749.236Z" fill="#E2E2E2"/>
<path d="M592.598 781.063C602.683 781.086 612.763 781.476 622.847 781.502C624.459 781.506 624.459 779.006 622.847 779.002C612.763 778.976 602.683 778.586 592.598 778.563C590.986 778.559 590.986 781.059 592.598 781.063Z" fill="#E2E2E2"/>
<path d="M608.402 724.809C618.093 725.889 627.752 728.156 634.68 735.5C641.595 742.831 644.608 755.594 644.989 765.36C645.806 786.318 623.995 802.823 604.144 801.909C594.756 801.477 585.527 794.869 579.549 788.03C573.344 780.931 570.781 771.542 570.501 762.294C570.17 751.414 574.673 742.413 581.968 734.603C586.085 730.196 590.427 727.187 596.402 726.06C601.01 725.191 605.755 725.297 610.379 724.436C611.963 724.141 611.29 721.731 609.715 722.025C604.212 723.05 598.572 722.903 593.118 724.209C587.85 725.471 583.878 729.072 580.2 732.834C572.204 741.013 567.955 750.85 568 762.293C568.08 782.51 583.231 802.454 604.144 804.408C614.834 805.407 625.627 800.201 633.763 793.724C642.685 786.623 647.52 776.73 647.489 765.36C647.459 754.632 643.416 741.959 636.447 733.733C629.627 725.68 618.341 723.416 608.402 722.309C606.801 722.131 606.818 724.633 608.402 724.809Z" fill="#E2E2E2"/>
<path d="M429.893 381.111C427.802 382.006 426.298 384.711 426.96 386.941C427.599 389.098 430.52 389.693 432.243 388.549C433.85 387.481 434.395 385.362 434.073 383.553C433.63 381.062 431.113 380.074 428.853 380.121C427.78 380.144 427.778 381.81 428.853 381.787C430.286 381.757 431.818 382.098 432.358 383.589C432.726 384.605 432.474 385.872 431.806 386.709C430.97 387.755 429.283 387.761 428.58 386.53C427.769 385.11 429.547 383.059 430.734 382.549C431.719 382.128 430.869 380.693 429.893 381.111Z" fill="#E2E2E2"/>
<path d="M444.699 380.15C442.26 380.917 440.458 383.366 440.144 385.855C439.81 388.489 442.941 390.118 445.149 389.051C447.187 388.066 448.409 385.693 448.615 383.516C448.878 380.743 446.469 379.762 444.116 380.15C443.058 380.325 443.508 381.93 444.559 381.756C448.563 381.096 446.665 386.129 444.685 387.414C443.254 388.344 441.547 387.203 441.86 385.575C442.17 383.96 443.564 382.253 445.142 381.756C446.163 381.436 445.727 379.827 444.699 380.15Z" fill="#E2E2E2"/>
<path d="M427.392 401.36C434.112 401.376 440.83 401.636 447.55 401.653C448.624 401.656 448.624 399.99 447.55 399.987C440.83 399.97 434.112 399.71 427.392 399.694C426.317 399.692 426.317 401.358 427.392 401.36Z" fill="#E2E2E2"/>
<path d="M437.925 363.872C444.383 364.592 450.82 366.102 455.437 370.996C460.045 375.882 462.053 384.387 462.307 390.896C462.851 404.862 448.316 415.862 435.087 415.252C428.831 414.965 422.68 410.561 418.697 406.003C414.562 401.272 412.854 395.015 412.667 388.852C412.446 381.602 415.447 375.603 420.309 370.399C423.052 367.462 425.946 365.457 429.928 364.706C432.999 364.126 436.161 364.197 439.242 363.623C440.298 363.427 439.849 361.821 438.8 362.017C435.132 362.7 431.374 362.602 427.739 363.472C424.229 364.313 421.582 366.713 419.13 369.22C413.802 374.67 410.97 381.226 411 388.852C411.054 402.325 421.15 415.616 435.087 416.918C442.211 417.584 449.404 414.114 454.826 409.798C460.771 405.066 463.994 398.473 463.973 390.896C463.953 383.746 461.259 375.301 456.614 369.819C452.069 364.452 444.548 362.944 437.925 362.206C436.858 362.087 436.869 363.755 437.925 363.872Z" fill="#E2E2E2"/>
<path d="M596.351 750.678C593.213 752.021 590.956 756.079 591.949 759.426C592.908 762.662 597.292 763.555 599.877 761.838C602.288 760.236 603.106 757.057 602.623 754.342C601.958 750.604 598.182 749.121 594.79 749.192C593.18 749.226 593.177 751.726 594.79 751.692C596.94 751.647 599.24 752.158 600.05 754.396C600.602 755.92 600.224 757.822 599.221 759.077C597.967 760.647 595.435 760.656 594.381 758.809C593.164 756.679 595.831 753.6 597.613 752.836C599.091 752.203 597.816 750.05 596.351 750.678Z" fill="#E2E2E2"/>
<path d="M618.568 749.236C614.908 750.386 612.204 754.061 611.732 757.796C611.232 761.749 615.929 764.193 619.243 762.592C622.301 761.114 624.135 757.553 624.444 754.287C624.838 750.125 621.223 748.654 617.692 749.236C616.105 749.498 616.78 751.906 618.357 751.646C624.365 750.655 621.517 758.207 618.546 760.136C616.399 761.531 613.838 759.819 614.307 757.376C614.772 754.953 616.864 752.391 619.233 751.646C620.765 751.165 620.11 748.751 618.568 749.236Z" fill="#E2E2E2"/>
<path d="M592.598 781.063C603 794 614 793 622.847 781.502C624.459 781.506 624.459 779.006 622.847 779.002C612.763 778.976 602.683 778.586 592.598 778.563C590.986 778.559 590.986 781.059 592.598 781.063Z" fill="#E2E2E2"/>
<path d="M608.402 724.809C618.093 725.889 627.752 728.156 634.68 735.5C641.595 742.831 644.608 755.594 644.989 765.36C645.806 786.318 623.995 802.823 604.144 801.909C594.756 801.477 585.527 794.869 579.549 788.03C573.344 780.931 570.781 771.542 570.501 762.294C570.17 751.414 574.673 742.413 581.968 734.603C586.085 730.196 590.427 727.187 596.402 726.06C601.01 725.191 605.755 725.297 610.379 724.436C611.963 724.141 611.29 721.731 609.715 722.025C604.212 723.05 598.572 722.903 593.118 724.209C587.85 725.471 583.878 729.072 580.2 732.834C572.204 741.013 567.955 750.85 568 762.293C568.08 782.51 583.231 802.454 604.144 804.408C614.834 805.407 625.627 800.201 633.763 793.724C642.685 786.623 647.52 776.73 647.489 765.36C647.459 754.632 643.416 741.959 636.447 733.733C629.627 725.68 618.341 723.416 608.402 722.309C606.801 722.131 606.818 724.633 608.402 724.809Z" fill="#E2E2E2"/>
<path d="M405.351 890.678C402.213 892.021 399.956 896.079 400.949 899.426C401.908 902.662 406.292 903.555 408.877 901.838C411.288 900.236 412.106 897.057 411.623 894.342C410.958 890.604 407.182 889.121 403.79 889.192C402.18 889.226 402.177 891.726 403.79 891.692C405.94 891.647 408.24 892.158 409.05 894.396C409.602 895.92 409.224 897.822 408.221 899.077C406.967 900.647 404.435 900.656 403.381 898.809C402.164 896.679 404.831 893.6 406.613 892.836C408.091 892.203 406.816 890.05 405.351 890.678Z" fill="#E2E2E2"/>
<path d="M427.568 889.236C423.908 890.386 421.204 894.061 420.732 897.796C420.232 901.749 424.929 904.193 428.243 902.592C431.301 901.114 433.135 897.553 433.444 894.287C433.838 890.125 430.223 888.654 426.692 889.236C425.105 889.498 425.78 891.906 427.357 891.646C433.365 890.655 430.517 898.207 427.546 900.136C425.399 901.531 422.838 899.819 423.307 897.376C423.772 894.953 425.864 892.391 428.233 891.646C429.765 891.165 429.11 888.751 427.568 889.236Z" fill="#E2E2E2"/>
<path d="M401.598 921.063C412 934 423 933 431.847 921.502C433.459 921.506 433.459 919.006 431.847 919.002C421.763 918.976 411.683 918.586 401.598 918.563C399.986 918.559 399.986 921.059 401.598 921.063Z" fill="#E2E2E2"/>
<path d="M417.402 864.809C427.093 865.889 436.752 868.156 443.68 875.5C450.595 882.831 453.608 895.594 453.989 905.36C454.806 926.318 432.995 942.823 413.144 941.909C403.756 941.477 394.527 934.869 388.549 928.03C382.344 920.931 379.781 911.542 379.501 902.294C379.17 891.414 383.673 882.413 390.968 874.603C395.085 870.196 399.427 867.187 405.402 866.06C410.01 865.191 414.755 865.297 419.379 864.436C420.963 864.141 420.29 861.731 418.715 862.025C413.212 863.05 407.572 862.903 402.118 864.209C396.85 865.471 392.878 869.072 389.2 872.834C381.204 881.013 376.955 890.85 377 902.293C377.08 922.51 392.231 942.454 413.144 944.408C423.834 945.407 434.627 940.201 442.763 933.724C451.685 926.623 456.52 916.73 456.489 905.36C456.459 894.632 452.416 881.959 445.447 873.733C438.627 865.68 427.341 863.416 417.402 862.309C415.801 862.131 415.818 864.633 417.402 864.809Z" fill="#E2E2E2"/>
<path d="M57.3507 383.678C54.2127 385.021 51.9557 389.079 52.9487 392.426C53.9077 395.662 58.2917 396.555 60.8767 394.838C63.2877 393.236 64.1057 390.057 63.6227 387.342C62.9577 383.604 59.1817 382.121 55.7897 382.192C54.1797 382.226 54.1767 384.726 55.7897 384.692C57.9397 384.647 60.2397 385.158 61.0497 387.396C61.6017 388.92 61.2237 390.822 60.2207 392.077C58.9667 393.647 56.4347 393.656 55.3807 391.809C54.1637 389.679 56.8307 386.6 58.6127 385.836C60.0907 385.203 58.8157 383.05 57.3507 383.678Z" fill="#E2E2E2"/>
<path d="M79.5682 382.236C75.9082 383.386 73.2042 387.061 72.7322 390.796C72.2322 394.749 76.9292 397.193 80.2432 395.592C83.3012 394.114 85.1352 390.553 85.4442 387.287C85.8382 383.125 82.2232 381.654 78.6922 382.236C77.1052 382.498 77.7802 384.906 79.3572 384.646C85.3652 383.655 82.5172 391.207 79.5462 393.136C77.3992 394.531 74.8382 392.819 75.3072 390.376C75.7722 387.953 77.8642 385.391 80.2332 384.646C81.7652 384.165 81.1102 381.751 79.5682 382.236Z" fill="#E2E2E2"/>
<path d="M53.5977 414.063C64 427 75 426 83.8467 414.502C85.4587 414.506 85.4587 412.006 83.8467 412.002C73.7627 411.976 63.6827 411.586 53.5977 411.563C51.9857 411.559 51.9857 414.059 53.5977 414.063Z" fill="#E2E2E2"/>
<path d="M69.4024 357.809C79.0934 358.889 88.7523 361.156 95.6804 368.5C102.595 375.831 105.608 388.594 105.989 398.36C106.806 419.318 84.9954 435.823 65.1444 434.909C55.7564 434.477 46.5274 427.869 40.5494 421.03C34.3444 413.931 31.7814 404.542 31.5014 395.294C31.1704 384.414 35.6734 375.413 42.9684 367.603C47.0854 363.196 51.4274 360.187 57.4024 359.06C62.0104 358.191 66.7554 358.297 71.3794 357.436C72.9634 357.141 72.2904 354.731 70.7154 355.025C65.2124 356.05 59.5724 355.903 54.1184 357.209C48.8504 358.471 44.8784 362.072 41.2004 365.834C33.2044 374.013 28.9554 383.85 29.0004 395.293C29.0804 415.51 44.2314 435.454 65.1444 437.408C75.8344 438.407 86.6273 433.201 94.7634 426.724C103.685 419.623 108.52 409.73 108.489 398.36C108.459 387.632 104.416 374.959 97.4474 366.733C90.6274 358.68 79.3414 356.416 69.4024 355.309C67.8014 355.131 67.8184 357.633 69.4024 357.809Z" fill="#E2E2E2"/>
<path d="M57.3507 383.678C54.2127 385.021 51.9557 389.079 52.9487 392.426C53.9077 395.662 58.2917 396.555 60.8767 394.838C63.2877 393.236 64.1057 390.057 63.6227 387.342C62.9577 383.604 59.1817 382.121 55.7897 382.192C54.1797 382.226 54.1767 384.726 55.7897 384.692C57.9397 384.647 60.2397 385.158 61.0497 387.396C61.6017 388.92 61.2237 390.822 60.2207 392.077C58.9667 393.647 56.4347 393.656 55.3807 391.809C54.1637 389.679 56.8307 386.6 58.6127 385.836C60.0907 385.203 58.8157 383.05 57.3507 383.678Z" fill="#E2E2E2"/>
<path d="M79.5682 382.236C75.9082 383.386 73.2042 387.061 72.7322 390.796C72.2322 394.749 76.9292 397.193 80.2432 395.592C83.3012 394.114 85.1352 390.553 85.4442 387.287C85.8382 383.125 82.2232 381.654 78.6922 382.236C77.1052 382.498 77.7802 384.906 79.3572 384.646C85.3652 383.655 82.5172 391.207 79.5462 393.136C77.3992 394.531 74.8382 392.819 75.3072 390.376C75.7722 387.953 77.8642 385.391 80.2332 384.646C81.7652 384.165 81.1102 381.751 79.5682 382.236Z" fill="#E2E2E2"/>
<path d="M53.5977 414.063C63.6827 414.086 73.7627 414.476 83.8467 414.502C85.4587 414.506 85.4587 412.006 83.8467 412.002C73.7627 411.976 63.6827 411.586 53.5977 411.563C51.9857 411.559 51.9857 414.059 53.5977 414.063Z" fill="#E2E2E2"/>
<path d="M69.4024 357.809C79.0934 358.889 88.7523 361.156 95.6804 368.5C102.595 375.831 105.608 388.594 105.989 398.36C106.806 419.318 84.9954 435.823 65.1444 434.909C55.7564 434.477 46.5274 427.869 40.5494 421.03C34.3444 413.931 31.7814 404.542 31.5014 395.294C31.1704 384.414 35.6734 375.413 42.9684 367.603C47.0854 363.196 51.4274 360.187 57.4024 359.06C62.0104 358.191 66.7554 358.297 71.3794 357.436C72.9634 357.141 72.2904 354.731 70.7154 355.025C65.2124 356.05 59.5724 355.903 54.1184 357.209C48.8504 358.471 44.8784 362.072 41.2004 365.834C33.2044 374.013 28.9554 383.85 29.0004 395.293C29.0804 415.51 44.2314 435.454 65.1444 437.408C75.8344 438.407 86.6273 433.201 94.7634 426.724C103.685 419.623 108.52 409.73 108.489 398.36C108.459 387.632 104.416 374.959 97.4474 366.733C90.6274 358.68 79.3414 356.416 69.4024 355.309C67.8014 355.131 67.8184 357.633 69.4024 357.809Z" fill="#E2E2E2"/>
<path d="M405.351 890.678C402.213 892.021 399.956 896.079 400.949 899.426C401.908 902.662 406.292 903.555 408.877 901.838C411.288 900.236 412.106 897.057 411.623 894.342C410.958 890.604 407.182 889.121 403.79 889.192C402.18 889.226 402.177 891.726 403.79 891.692C405.94 891.647 408.24 892.158 409.05 894.396C409.602 895.92 409.224 897.822 408.221 899.077C406.967 900.647 404.435 900.656 403.381 898.809C402.164 896.679 404.831 893.6 406.613 892.836C408.091 892.203 406.816 890.05 405.351 890.678Z" fill="#E2E2E2"/>
<path d="M427.568 889.236C423.908 890.386 421.204 894.061 420.732 897.796C420.232 901.749 424.929 904.193 428.243 902.592C431.301 901.114 433.135 897.553 433.444 894.287C433.838 890.125 430.223 888.654 426.692 889.236C425.105 889.498 425.78 891.906 427.357 891.646C433.365 890.655 430.517 898.207 427.546 900.136C425.399 901.531 422.838 899.819 423.307 897.376C423.772 894.953 425.864 892.391 428.233 891.646C429.765 891.165 429.11 888.751 427.568 889.236Z" fill="#E2E2E2"/>
<path d="M401.598 921.063C411.683 921.086 421.763 921.476 431.847 921.502C433.459 921.506 433.459 919.006 431.847 919.002C421.763 918.976 411.683 918.586 401.598 918.563C399.986 918.559 399.986 921.059 401.598 921.063Z" fill="#E2E2E2"/>
<path d="M417.402 864.809C427.093 865.889 436.752 868.156 443.68 875.5C450.595 882.831 453.608 895.594 453.989 905.36C454.806 926.318 432.995 942.823 413.144 941.909C403.756 941.477 394.527 934.869 388.549 928.03C382.344 920.931 379.781 911.542 379.501 902.294C379.17 891.414 383.673 882.413 390.968 874.603C395.085 870.196 399.427 867.187 405.402 866.06C410.01 865.191 414.755 865.297 419.379 864.436C420.963 864.141 420.29 861.731 418.715 862.025C413.212 863.05 407.572 862.903 402.118 864.209C396.85 865.471 392.878 869.072 389.2 872.834C381.204 881.013 376.955 890.85 377 902.293C377.08 922.51 392.231 942.454 413.144 944.408C423.834 945.407 434.627 940.201 442.763 933.724C451.685 926.623 456.52 916.73 456.489 905.36C456.459 894.632 452.416 881.959 445.447 873.733C438.627 865.68 427.341 863.416 417.402 862.309C415.801 862.131 415.818 864.633 417.402 864.809Z" fill="#E2E2E2"/>
<path d="M958.234 399.276C948.246 403.551 941.063 416.466 944.223 427.119C947.276 437.419 961.229 440.261 969.457 434.796C977.13 429.697 979.734 419.579 978.197 410.938C976.08 399.04 964.062 394.32 953.266 394.546C948.141 394.655 948.132 402.612 953.266 402.503C960.109 402.36 967.429 403.987 970.007 411.11C971.764 415.96 970.561 422.014 967.369 426.008C963.378 431.005 955.319 431.034 951.964 425.155C948.091 418.376 956.579 408.576 962.251 406.145C966.955 404.13 962.897 397.277 958.234 399.276Z" fill="#E2E2E2"/>
<path d="M1028.95 394.686C1017.3 398.347 1008.69 410.043 1007.19 421.931C1005.6 434.513 1020.55 442.292 1031.1 437.196C1040.83 432.492 1046.67 421.158 1047.65 410.763C1048.91 397.516 1037.4 392.834 1026.16 394.686C1021.11 395.52 1023.26 403.185 1028.28 402.357C1047.4 399.203 1038.34 423.239 1028.88 429.379C1022.05 433.819 1013.89 428.37 1015.39 420.595C1016.87 412.883 1023.53 404.728 1031.07 402.357C1035.94 400.826 1033.86 393.143 1028.95 394.686Z" fill="#E2E2E2"/>
<path d="M946.288 495.986C982 535.5 1013.5 532 1042.57 497.383C1047.7 497.396 1047.7 489.439 1042.57 489.426C1010.47 489.343 978.387 488.102 946.288 488.029C941.158 488.016 941.158 495.973 946.288 495.986Z" fill="#E2E2E2"/>
<path d="M996.593 316.94C1027.44 320.377 1058.18 327.593 1080.23 350.967C1102.24 374.301 1111.83 414.923 1113.04 446.006C1115.64 512.711 1046.22 565.244 983.041 562.335C953.16 560.96 923.786 539.928 904.759 518.16C885.01 495.566 876.853 465.682 875.961 436.248C874.908 401.619 889.24 372.97 912.459 348.112C925.562 334.086 939.382 324.509 958.399 320.922C973.066 318.156 988.168 318.493 1002.89 315.753C1007.93 314.814 1005.78 307.143 1000.77 308.079C983.257 311.341 965.306 310.873 947.947 315.03C931.18 319.047 918.538 330.508 906.831 342.482C881.382 368.514 867.858 399.823 868.001 436.244C868.256 500.591 916.479 564.069 983.041 570.288C1017.06 573.468 1051.42 556.898 1077.31 536.283C1105.71 513.682 1121.1 482.195 1121 446.006C1120.9 411.861 1108.04 371.525 1085.85 345.343C1064.15 319.712 1028.23 312.506 996.593 308.983C991.497 308.416 991.551 316.38 996.593 316.94Z" fill="#E2E2E2"/>
<path d="M840.351 242.678C837.213 244.021 834.956 248.079 835.949 251.426C836.908 254.662 841.292 255.555 843.877 253.838C846.288 252.236 847.106 249.057 846.623 246.342C845.958 242.604 842.182 241.121 838.79 241.192C837.18 241.226 837.177 243.726 838.79 243.692C840.94 243.647 843.24 244.158 844.05 246.396C844.602 247.92 844.224 249.822 843.221 251.077C841.967 252.647 839.435 252.656 838.381 250.809C837.164 248.679 839.831 245.6 841.613 244.836C843.091 244.203 841.816 242.05 840.351 242.678Z" fill="#E2E2E2"/>
<path d="M862.568 241.236C858.908 242.386 856.204 246.061 855.732 249.796C855.232 253.749 859.929 256.193 863.243 254.592C866.301 253.114 868.135 249.553 868.444 246.287C868.838 242.125 865.223 240.654 861.692 241.236C860.105 241.498 860.78 243.906 862.357 243.646C868.365 242.655 865.517 250.207 862.546 252.136C860.399 253.531 857.838 251.819 858.307 249.376C858.772 246.953 860.864 244.391 863.233 243.646C864.765 243.165 864.11 240.751 862.568 241.236Z" fill="#E2E2E2"/>
<path d="M836.598 273.063C847 286 858 285 866.847 273.502C868.459 273.506 868.459 271.006 866.847 271.002C856.763 270.976 846.683 270.586 836.598 270.563C834.986 270.559 834.986 273.059 836.598 273.063Z" fill="#E2E2E2"/>
<path d="M852.402 216.809C862.093 217.889 871.752 220.156 878.68 227.5C885.595 234.831 888.608 247.594 888.989 257.36C889.806 278.318 867.995 294.823 848.144 293.909C838.756 293.477 829.527 286.869 823.549 280.03C817.344 272.931 814.781 263.542 814.501 254.294C814.17 243.414 818.673 234.413 825.968 226.603C830.085 222.196 834.427 219.187 840.402 218.06C845.01 217.191 849.755 217.297 854.379 216.436C855.963 216.141 855.29 213.731 853.715 214.025C848.212 215.05 842.572 214.903 837.118 216.209C831.85 217.471 827.878 221.072 824.2 224.834C816.204 233.013 811.955 242.85 812 254.293C812.08 274.51 827.231 294.454 848.144 296.408C858.834 297.407 869.627 292.201 877.763 285.724C886.685 278.623 891.52 268.73 891.489 257.36C891.459 246.632 887.416 233.959 880.447 225.733C873.627 217.68 862.341 215.416 852.402 214.309C850.801 214.131 850.818 216.633 852.402 216.809Z" fill="#E2E2E2"/>
<path d="M1029.35 743.678C1026.21 745.021 1023.96 749.079 1024.95 752.426C1025.91 755.662 1030.29 756.555 1032.88 754.838C1035.29 753.236 1036.11 750.057 1035.62 747.342C1034.96 743.604 1031.18 742.121 1027.79 742.192C1026.18 742.226 1026.18 744.726 1027.79 744.692C1029.94 744.647 1032.24 745.158 1033.05 747.396C1033.6 748.92 1033.22 750.822 1032.22 752.077C1030.97 753.647 1028.43 753.656 1027.38 751.809C1026.16 749.679 1028.83 746.6 1030.61 745.836C1032.09 745.203 1030.82 743.05 1029.35 743.678Z" fill="#E2E2E2"/>
<path d="M1051.57 742.236C1047.91 743.386 1045.2 747.061 1044.73 750.796C1044.23 754.749 1048.93 757.193 1052.24 755.592C1055.3 754.114 1057.14 750.553 1057.44 747.287C1057.84 743.125 1054.22 741.654 1050.69 742.236C1049.11 742.498 1049.78 744.906 1051.36 744.646C1057.37 743.655 1054.52 751.207 1051.55 753.136C1049.4 754.531 1046.84 752.819 1047.31 750.376C1047.77 747.953 1049.86 745.391 1052.23 744.646C1053.77 744.165 1053.11 741.751 1051.57 742.236Z" fill="#E2E2E2"/>
<path d="M1025.6 774.063C1036 787 1047 786 1055.85 774.502C1057.46 774.506 1057.46 772.006 1055.85 772.002C1045.76 771.976 1035.68 771.586 1025.6 771.563C1023.99 771.559 1023.99 774.059 1025.6 774.063Z" fill="#E2E2E2"/>
<path d="M1041.4 717.809C1051.09 718.889 1060.75 721.156 1067.68 728.5C1074.6 735.831 1077.61 748.594 1077.99 758.36C1078.81 779.318 1057 795.823 1037.14 794.909C1027.76 794.477 1018.53 787.869 1012.55 781.03C1006.34 773.931 1003.78 764.542 1003.5 755.294C1003.17 744.414 1007.67 735.413 1014.97 727.603C1019.09 723.196 1023.43 720.187 1029.4 719.06C1034.01 718.191 1038.76 718.297 1043.38 717.436C1044.96 717.141 1044.29 714.731 1042.72 715.025C1037.21 716.05 1031.57 715.903 1026.12 717.209C1020.85 718.471 1016.88 722.072 1013.2 725.834C1005.2 734.013 1000.96 743.85 1001 755.293C1001.08 775.51 1016.23 795.454 1037.14 797.408C1047.83 798.407 1058.63 793.201 1066.76 786.724C1075.69 779.623 1080.52 769.73 1080.49 758.36C1080.46 747.632 1076.42 734.959 1069.45 726.733C1062.63 718.68 1051.34 716.416 1041.4 715.309C1039.8 715.131 1039.82 717.633 1041.4 717.809Z" fill="#E2E2E2"/>
<path d="M1383.35 523.678C1380.21 525.021 1377.96 529.079 1378.95 532.426C1379.91 535.662 1384.29 536.555 1386.88 534.838C1389.29 533.236 1390.11 530.057 1389.62 527.342C1388.96 523.604 1385.18 522.121 1381.79 522.192C1380.18 522.226 1380.18 524.726 1381.79 524.692C1383.94 524.647 1386.24 525.158 1387.05 527.396C1387.6 528.92 1387.22 530.822 1386.22 532.077C1384.97 533.647 1382.43 533.656 1381.38 531.809C1380.16 529.679 1382.83 526.6 1384.61 525.836C1386.09 525.203 1384.82 523.05 1383.35 523.678Z" fill="#E2E2E2"/>
<path d="M1405.57 522.236C1401.91 523.386 1399.2 527.061 1398.73 530.796C1398.23 534.749 1402.93 537.193 1406.24 535.592C1409.3 534.114 1411.14 530.553 1411.44 527.287C1411.84 523.125 1408.22 521.654 1404.69 522.236C1403.11 522.498 1403.78 524.906 1405.36 524.646C1411.37 523.655 1408.52 531.207 1405.55 533.136C1403.4 534.531 1400.84 532.819 1401.31 530.376C1401.77 527.953 1403.86 525.391 1406.23 524.646C1407.77 524.165 1407.11 521.751 1405.57 522.236Z" fill="#E2E2E2"/>
<path d="M1379.6 554.063C1390 567 1401 566 1409.85 554.502C1411.46 554.506 1411.46 552.006 1409.85 552.002C1399.76 551.976 1389.68 551.586 1379.6 551.563C1377.99 551.559 1377.99 554.059 1379.6 554.063Z" fill="#E2E2E2"/>
<path d="M1395.4 497.809C1405.09 498.889 1414.75 501.156 1421.68 508.5C1428.6 515.831 1431.61 528.594 1431.99 538.36C1432.81 559.318 1411 575.823 1391.14 574.909C1381.76 574.477 1372.53 567.869 1366.55 561.03C1360.34 553.931 1357.78 544.542 1357.5 535.294C1357.17 524.414 1361.67 515.413 1368.97 507.603C1373.09 503.196 1377.43 500.187 1383.4 499.06C1388.01 498.191 1392.76 498.297 1397.38 497.436C1398.96 497.141 1398.29 494.731 1396.72 495.025C1391.21 496.05 1385.57 495.903 1380.12 497.209C1374.85 498.471 1370.88 502.072 1367.2 505.834C1359.2 514.013 1354.96 523.85 1355 535.293C1355.08 555.51 1370.23 575.454 1391.14 577.408C1401.83 578.407 1412.63 573.201 1420.76 566.724C1429.69 559.623 1434.52 549.73 1434.49 538.36C1434.46 527.632 1430.42 514.959 1423.45 506.733C1416.63 498.68 1405.34 496.416 1395.4 495.309C1393.8 495.131 1393.82 497.633 1395.4 497.809Z" fill="#E2E2E2"/>
<path d="M1311.59 935.94C1342.44 939.377 1373.18 946.593 1395.23 969.967C1417.24 993.301 1426.83 1033.92 1428.04 1065.01C1430.64 1131.71 1361.22 1184.24 1298.04 1181.33C1268.16 1179.96 1238.79 1158.93 1219.76 1137.16C1200.01 1114.57 1191.85 1084.68 1190.96 1055.25C1189.91 1020.62 1204.24 991.97 1227.46 967.112C1240.56 953.086 1254.38 943.509 1273.4 939.922C1288.07 937.156 1303.17 937.493 1317.89 934.753C1322.93 933.814 1320.78 926.143 1315.77 927.079C1298.26 930.341 1280.31 929.873 1262.95 934.03C1246.18 938.047 1233.54 949.508 1221.83 961.482C1196.38 987.514 1182.86 1018.82 1183 1055.24C1183.26 1119.59 1231.48 1183.07 1298.04 1189.29C1332.06 1192.47 1366.42 1175.9 1392.31 1155.28C1420.71 1132.68 1436.1 1101.19 1436 1065.01C1435.9 1030.86 1423.04 990.525 1400.85 964.343C1379.15 938.712 1343.23 931.506 1311.59 927.983C1306.5 927.416 1306.55 935.38 1311.59 935.94Z" fill="#E2E2E2"/>
<path d="M1147.23 20.276C1137.25 24.5505 1130.06 37.4664 1133.22 48.1192C1136.28 58.4188 1150.23 61.2611 1158.46 55.7962C1166.13 50.6973 1168.73 40.5791 1167.2 31.9378C1165.08 20.0405 1153.06 15.3204 1142.27 15.5464C1137.14 15.6546 1137.13 23.6116 1142.27 23.5034C1149.11 23.3602 1156.43 24.9866 1159.01 32.1097C1160.76 36.9603 1159.56 43.014 1156.37 47.0084C1152.38 52.0054 1144.32 52.0341 1140.96 46.1554C1137.09 39.376 1145.58 29.5762 1151.25 27.1445C1155.96 25.1298 1151.9 18.2772 1147.23 20.276Z" fill="#E2E2E2"/>
<path d="M1217.95 15.6864C1206.3 19.3467 1197.69 31.0435 1196.19 42.9313C1194.6 55.5129 1209.55 63.2917 1220.1 58.196C1229.83 53.4919 1235.67 42.1579 1236.65 31.7628C1237.91 18.5159 1226.4 13.834 1215.16 15.6864C1210.11 16.5203 1212.26 24.1845 1217.28 23.357C1236.4 20.2028 1227.34 44.2394 1217.88 50.3791C1211.05 54.8191 1202.89 49.3701 1204.39 41.5945C1205.87 33.8826 1212.53 25.7282 1220.07 23.357C1224.94 21.8261 1222.86 14.1428 1217.95 15.6864Z" fill="#E2E2E2"/>
<path d="M1135.29 116.986C1171 156.5 1202.5 153 1231.57 118.383C1236.7 118.396 1236.7 110.439 1231.57 110.426C1199.47 110.343 1167.39 109.102 1135.29 109.029C1130.16 109.016 1130.16 116.973 1135.29 116.986Z" fill="#E2E2E2"/>
<path d="M1185.59 -62.0601C1216.44 -58.6227 1247.18 -51.4072 1269.23 -28.0327C1291.24 -4.69948 1300.83 35.9227 1302.04 67.0061C1304.64 133.711 1235.22 186.244 1172.04 183.335C1142.16 181.96 1112.79 160.928 1093.76 139.16C1074.01 116.566 1065.85 86.6822 1064.96 57.2476C1063.91 22.6186 1078.24 -6.0299 1101.46 -30.8876C1114.56 -44.9143 1128.38 -54.4914 1147.4 -58.0784C1162.07 -60.8443 1177.17 -60.5069 1191.89 -63.2473C1196.93 -64.1862 1194.78 -71.8568 1189.77 -70.921C1172.26 -67.6587 1154.31 -68.1265 1136.95 -63.9698C1120.18 -59.9531 1107.54 -48.4918 1095.83 -36.518C1070.38 -10.4858 1056.86 20.8235 1057 57.2444C1057.26 121.591 1105.48 185.069 1172.04 191.288C1206.06 194.468 1240.42 177.898 1266.31 157.283C1294.71 134.682 1310.1 103.195 1310 67.0061C1309.9 32.8609 1297.04 -7.47489 1274.85 -33.6567C1253.15 -59.2879 1217.23 -66.4937 1185.59 -70.0171C1180.5 -70.5837 1180.55 -62.6203 1185.59 -62.0601Z" fill="#E2E2E2"/>
<path d="M1401.89 741.111C1399.8 742.006 1398.3 744.711 1398.96 746.941C1399.6 749.098 1402.52 749.693 1404.24 748.549C1405.85 747.481 1406.39 745.362 1406.07 743.553C1405.63 741.062 1403.11 740.074 1400.85 740.121C1399.78 740.144 1399.78 741.81 1400.85 741.787C1402.29 741.757 1403.82 742.098 1404.36 743.589C1404.73 744.605 1404.47 745.872 1403.81 746.709C1402.97 747.755 1401.28 747.761 1400.58 746.53C1399.77 745.11 1401.55 743.059 1402.73 742.549C1403.72 742.128 1402.87 740.693 1401.89 741.111Z" fill="#E2E2E2"/>
<path d="M1416.7 740.15C1414.26 740.917 1412.46 743.366 1412.14 745.855C1411.81 748.489 1414.94 750.118 1417.15 749.051C1419.19 748.066 1420.41 745.693 1420.62 743.516C1420.88 740.743 1418.47 739.762 1416.12 740.15C1415.06 740.325 1415.51 741.93 1416.56 741.756C1420.56 741.096 1418.66 746.129 1416.68 747.414C1415.25 748.344 1413.55 747.203 1413.86 745.575C1414.17 743.96 1415.56 742.253 1417.14 741.756C1418.16 741.436 1417.73 739.827 1416.7 740.15Z" fill="#E2E2E2"/>
<path d="M1399.39 761.36C1406.11 761.376 1412.83 761.636 1419.55 761.653C1420.62 761.656 1420.62 759.99 1419.55 759.987C1412.83 759.97 1406.11 759.71 1399.39 759.694C1398.32 759.692 1398.32 761.358 1399.39 761.36Z" fill="#E2E2E2"/>
<path d="M1409.92 723.872C1416.38 724.592 1422.82 726.102 1427.44 730.996C1432.05 735.882 1434.05 744.387 1434.31 750.896C1434.85 764.862 1420.32 775.862 1407.09 775.252C1400.83 774.965 1394.68 770.561 1390.7 766.003C1386.56 761.272 1384.85 755.015 1384.67 748.852C1384.45 741.602 1387.45 735.603 1392.31 730.399C1395.05 727.462 1397.95 725.457 1401.93 724.706C1405 724.126 1408.16 724.197 1411.24 723.623C1412.3 723.427 1411.85 721.821 1410.8 722.017C1407.13 722.7 1403.37 722.602 1399.74 723.472C1396.23 724.313 1393.58 726.713 1391.13 729.22C1385.8 734.67 1382.97 741.226 1383 748.852C1383.05 762.325 1393.15 775.616 1407.09 776.918C1414.21 777.584 1421.4 774.114 1426.83 769.798C1432.77 765.066 1435.99 758.473 1435.97 750.896C1435.95 743.746 1433.26 735.301 1428.61 729.819C1424.07 724.452 1416.55 722.944 1409.92 722.206C1408.86 722.087 1408.87 723.755 1409.92 723.872Z" fill="#E2E2E2"/>
<path d="M1344.89 319.111C1342.8 320.006 1341.3 322.711 1341.96 324.941C1342.6 327.098 1345.52 327.693 1347.24 326.549C1348.85 325.481 1349.39 323.362 1349.07 321.553C1348.63 319.062 1346.11 318.074 1343.85 318.121C1342.78 318.144 1342.78 319.81 1343.85 319.787C1345.29 319.757 1346.82 320.098 1347.36 321.589C1347.73 322.605 1347.47 323.872 1346.81 324.709C1345.97 325.755 1344.28 325.761 1343.58 324.53C1342.77 323.11 1344.55 321.059 1345.73 320.549C1346.72 320.128 1345.87 318.693 1344.89 319.111Z" fill="#E2E2E2"/>
<path d="M1359.7 318.15C1357.26 318.917 1355.46 321.366 1355.14 323.855C1354.81 326.489 1357.94 328.118 1360.15 327.051C1362.19 326.066 1363.41 323.693 1363.62 321.516C1363.88 318.743 1361.47 317.762 1359.12 318.15C1358.06 318.325 1358.51 319.93 1359.56 319.756C1363.56 319.096 1361.66 324.129 1359.68 325.414C1358.25 326.344 1356.55 325.203 1356.86 323.575C1357.17 321.96 1358.56 320.253 1360.14 319.756C1361.16 319.436 1360.73 317.827 1359.7 318.15Z" fill="#E2E2E2"/>
<path d="M1342.39 339.36C1349 346 1356 348 1362.55 339.653C1363.62 339.656 1363.62 337.99 1362.55 337.987C1355.83 337.97 1349.11 337.71 1342.39 337.694C1341.32 337.692 1341.32 339.358 1342.39 339.36Z" fill="#E2E2E2"/>
<path d="M1352.92 301.872C1359.38 302.592 1365.82 304.102 1370.44 308.996C1375.05 313.882 1377.05 322.387 1377.31 328.896C1377.85 342.862 1363.32 353.862 1350.09 353.252C1343.83 352.965 1337.68 348.561 1333.7 344.003C1329.56 339.272 1327.85 333.015 1327.67 326.852C1327.45 319.602 1330.45 313.603 1335.31 308.399C1338.05 305.462 1340.95 303.457 1344.93 302.706C1348 302.126 1351.16 302.197 1354.24 301.623C1355.3 301.427 1354.85 299.821 1353.8 300.017C1350.13 300.7 1346.37 300.602 1342.74 301.472C1339.23 302.313 1336.58 304.713 1334.13 307.22C1328.8 312.67 1325.97 319.226 1326 326.852C1326.05 340.325 1336.15 353.616 1350.09 354.918C1357.21 355.584 1364.4 352.114 1369.83 347.798C1375.77 343.066 1378.99 336.473 1378.97 328.896C1378.95 321.746 1376.26 313.301 1371.61 307.819C1367.07 302.452 1359.55 300.944 1352.92 300.206C1351.86 300.087 1351.87 301.755 1352.92 301.872Z" fill="#E2E2E2"/>
<path d="M1401.89 741.111C1399.8 742.006 1398.3 744.711 1398.96 746.941C1399.6 749.098 1402.52 749.693 1404.24 748.549C1405.85 747.481 1406.39 745.362 1406.07 743.553C1405.63 741.062 1403.11 740.074 1400.85 740.121C1399.78 740.144 1399.78 741.81 1400.85 741.787C1402.29 741.757 1403.82 742.098 1404.36 743.589C1404.73 744.605 1404.47 745.872 1403.81 746.709C1402.97 747.755 1401.28 747.761 1400.58 746.53C1399.77 745.11 1401.55 743.059 1402.73 742.549C1403.72 742.128 1402.87 740.693 1401.89 741.111Z" fill="#E2E2E2"/>
<path d="M1416.7 740.15C1414.26 740.917 1412.46 743.366 1412.14 745.855C1411.81 748.489 1414.94 750.118 1417.15 749.051C1419.19 748.066 1420.41 745.693 1420.62 743.516C1420.88 740.743 1418.47 739.762 1416.12 740.15C1415.06 740.325 1415.51 741.93 1416.56 741.756C1420.56 741.096 1418.66 746.129 1416.68 747.414C1415.25 748.344 1413.55 747.203 1413.86 745.575C1414.17 743.96 1415.56 742.253 1417.14 741.756C1418.16 741.436 1417.73 739.827 1416.7 740.15Z" fill="#E2E2E2"/>
<path d="M1399.39 761.36C1406 768 1413 770 1419.55 761.653C1420.62 761.656 1420.62 759.99 1419.55 759.987C1412.83 759.97 1406.11 759.71 1399.39 759.694C1398.32 759.692 1398.32 761.358 1399.39 761.36Z" fill="#E2E2E2"/>
<path d="M1409.92 723.872C1416.38 724.592 1422.82 726.102 1427.44 730.996C1432.05 735.882 1434.05 744.387 1434.31 750.896C1434.85 764.862 1420.32 775.862 1407.09 775.252C1400.83 774.965 1394.68 770.561 1390.7 766.003C1386.56 761.272 1384.85 755.015 1384.67 748.852C1384.45 741.602 1387.45 735.603 1392.31 730.399C1395.05 727.462 1397.95 725.457 1401.93 724.706C1405 724.126 1408.16 724.197 1411.24 723.623C1412.3 723.427 1411.85 721.821 1410.8 722.017C1407.13 722.7 1403.37 722.602 1399.74 723.472C1396.23 724.313 1393.58 726.713 1391.13 729.22C1385.8 734.67 1382.97 741.226 1383 748.852C1383.05 762.325 1393.15 775.616 1407.09 776.918C1414.21 777.584 1421.4 774.114 1426.83 769.798C1432.77 765.066 1435.99 758.473 1435.97 750.896C1435.95 743.746 1433.26 735.301 1428.61 729.819C1424.07 724.452 1416.55 722.944 1409.92 722.206C1408.86 722.087 1408.87 723.755 1409.92 723.872Z" fill="#E2E2E2"/>
<path d="M777.893 888.111C775.802 889.006 774.298 891.711 774.96 893.941C775.599 896.098 778.52 896.693 780.243 895.549C781.85 894.481 782.395 892.362 782.073 890.553C781.63 888.062 779.113 887.074 776.853 887.121C775.78 887.144 775.778 888.81 776.853 888.787C778.286 888.757 779.818 889.098 780.358 890.589C780.726 891.605 780.474 892.872 779.806 893.709C778.97 894.755 777.283 894.761 776.58 893.53C775.769 892.11 777.547 890.059 778.734 889.549C779.719 889.128 778.869 887.693 777.893 888.111Z" fill="#E2E2E2"/>
<path d="M792.699 887.15C790.26 887.917 788.458 890.366 788.144 892.855C787.81 895.489 790.941 897.118 793.149 896.051C795.187 895.066 796.409 892.693 796.615 890.516C796.878 887.743 794.469 886.762 792.116 887.15C791.058 887.325 791.508 888.93 792.559 888.756C796.563 888.096 794.665 893.129 792.685 894.414C791.254 895.344 789.547 894.203 789.86 892.575C790.17 890.96 791.564 889.253 793.142 888.756C794.163 888.436 793.727 886.827 792.699 887.15Z" fill="#E2E2E2"/>
<path d="M775.392 908.36C782.112 908.376 788.83 908.636 795.55 908.653C796.624 908.656 796.624 906.99 795.55 906.987C788.83 906.97 782.112 906.71 775.392 906.694C774.317 906.692 774.317 908.358 775.392 908.36Z" fill="#E2E2E2"/>
<path d="M785.925 870.872C792.383 871.592 798.82 873.102 803.437 877.996C808.045 882.882 810.053 891.387 810.307 897.896C810.851 911.862 796.316 922.862 783.087 922.252C776.831 921.965 770.68 917.561 766.697 913.003C762.562 908.272 760.854 902.015 760.667 895.852C760.446 888.602 763.447 882.603 768.309 877.399C771.052 874.462 773.946 872.457 777.928 871.706C780.999 871.126 784.161 871.197 787.242 870.623C788.298 870.427 787.849 868.821 786.8 869.017C783.132 869.7 779.374 869.602 775.739 870.472C772.229 871.313 769.582 873.713 767.13 876.22C761.802 881.67 758.97 888.226 759 895.852C759.054 909.325 769.15 922.616 783.087 923.918C790.211 924.584 797.404 921.114 802.826 916.798C808.771 912.066 811.994 905.473 811.973 897.896C811.953 890.746 809.259 882.301 804.614 876.819C800.069 871.452 792.548 869.944 785.925 869.206C784.858 869.087 784.869 870.755 785.925 870.872Z" fill="#E2E2E2"/>
<path d="M777.893 888.111C775.802 889.006 774.298 891.711 774.96 893.941C775.599 896.098 778.52 896.693 780.243 895.549C781.85 894.481 782.395 892.362 782.073 890.553C781.63 888.062 779.113 887.074 776.853 887.121C775.78 887.144 775.778 888.81 776.853 888.787C778.286 888.757 779.818 889.098 780.358 890.589C780.726 891.605 780.474 892.872 779.806 893.709C778.97 894.755 777.283 894.761 776.58 893.53C775.769 892.11 777.547 890.059 778.734 889.549C779.719 889.128 778.869 887.693 777.893 888.111Z" fill="#E2E2E2"/>
<path d="M792.699 887.15C790.26 887.917 788.458 890.366 788.144 892.855C787.81 895.489 790.941 897.118 793.149 896.051C795.187 895.066 796.409 892.693 796.615 890.516C796.878 887.743 794.469 886.762 792.116 887.15C791.058 887.325 791.508 888.93 792.559 888.756C796.563 888.096 794.665 893.129 792.685 894.414C791.254 895.344 789.547 894.203 789.86 892.575C790.17 890.96 791.564 889.253 793.142 888.756C794.163 888.436 793.727 886.827 792.699 887.15Z" fill="#E2E2E2"/>
<path d="M775.392 908.36C782 915 789 917 795.55 908.653C796.624 908.656 796.624 906.99 795.55 906.987C788.83 906.97 782.112 906.71 775.392 906.694C774.317 906.692 774.317 908.358 775.392 908.36Z" fill="#E2E2E2"/>
<path d="M785.925 870.872C792.383 871.592 798.82 873.102 803.437 877.996C808.045 882.882 810.053 891.387 810.307 897.896C810.851 911.862 796.316 922.862 783.087 922.252C776.831 921.965 770.68 917.561 766.697 913.003C762.562 908.272 760.854 902.015 760.667 895.852C760.446 888.602 763.447 882.603 768.309 877.399C771.052 874.462 773.946 872.457 777.928 871.706C780.999 871.126 784.161 871.197 787.242 870.623C788.298 870.427 787.849 868.821 786.8 869.017C783.132 869.7 779.374 869.602 775.739 870.472C772.229 871.313 769.582 873.713 767.13 876.22C761.802 881.67 758.97 888.226 759 895.852C759.054 909.325 769.15 922.616 783.087 923.918C790.211 924.584 797.404 921.114 802.826 916.798C808.771 912.066 811.994 905.473 811.973 897.896C811.953 890.746 809.259 882.301 804.614 876.819C800.069 871.452 792.548 869.944 785.925 869.206C784.858 869.087 784.869 870.755 785.925 870.872Z" fill="#E2E2E2"/>
<path d="M1383.35 523.678C1380.21 525.021 1377.96 529.079 1378.95 532.426C1379.91 535.662 1384.29 536.555 1386.88 534.838C1389.29 533.236 1390.11 530.057 1389.62 527.342C1388.96 523.604 1385.18 522.121 1381.79 522.192C1380.18 522.226 1380.18 524.726 1381.79 524.692C1383.94 524.647 1386.24 525.158 1387.05 527.396C1387.6 528.92 1387.22 530.822 1386.22 532.077C1384.97 533.647 1382.43 533.656 1381.38 531.809C1380.16 529.679 1382.83 526.6 1384.61 525.836C1386.09 525.203 1384.82 523.05 1383.35 523.678Z" fill="#E2E2E2"/>
<path d="M1405.57 522.236C1401.91 523.386 1399.2 527.061 1398.73 530.796C1398.23 534.749 1402.93 537.193 1406.24 535.592C1409.3 534.114 1411.14 530.553 1411.44 527.287C1411.84 523.125 1408.22 521.654 1404.69 522.236C1403.11 522.498 1403.78 524.906 1405.36 524.646C1411.37 523.655 1408.52 531.207 1405.55 533.136C1403.4 534.531 1400.84 532.819 1401.31 530.376C1401.77 527.953 1403.86 525.391 1406.23 524.646C1407.77 524.165 1407.11 521.751 1405.57 522.236Z" fill="#E2E2E2"/>
<path d="M1379.6 554.063C1389.68 554.086 1399.76 554.476 1409.85 554.502C1411.46 554.506 1411.46 552.006 1409.85 552.002C1399.76 551.976 1389.68 551.586 1379.6 551.563C1377.99 551.559 1377.99 554.059 1379.6 554.063Z" fill="#E2E2E2"/>
<path d="M1395.4 497.809C1405.09 498.889 1414.75 501.156 1421.68 508.5C1428.6 515.831 1431.61 528.594 1431.99 538.36C1432.81 559.318 1411 575.823 1391.14 574.909C1381.76 574.477 1372.53 567.869 1366.55 561.03C1360.34 553.931 1357.78 544.542 1357.5 535.294C1357.17 524.414 1361.67 515.413 1368.97 507.603C1373.09 503.196 1377.43 500.187 1383.4 499.06C1388.01 498.191 1392.76 498.297 1397.38 497.436C1398.96 497.141 1398.29 494.731 1396.72 495.025C1391.21 496.05 1385.57 495.903 1380.12 497.209C1374.85 498.471 1370.88 502.072 1367.2 505.834C1359.2 514.013 1354.96 523.85 1355 535.293C1355.08 555.51 1370.23 575.454 1391.14 577.408C1401.83 578.407 1412.63 573.201 1420.76 566.724C1429.69 559.623 1434.52 549.73 1434.49 538.36C1434.46 527.632 1430.42 514.959 1423.45 506.733C1416.63 498.68 1405.34 496.416 1395.4 495.309C1393.8 495.131 1393.82 497.633 1395.4 497.809Z" fill="#E2E2E2"/>
<path d="M777.893 888.111C775.802 889.006 774.298 891.711 774.96 893.941C775.599 896.098 778.52 896.693 780.243 895.549C781.85 894.481 782.395 892.362 782.073 890.553C781.63 888.062 779.113 887.074 776.853 887.121C775.78 887.144 775.778 888.81 776.853 888.787C778.286 888.757 779.818 889.098 780.358 890.589C780.726 891.605 780.474 892.872 779.806 893.709C778.97 894.755 777.283 894.761 776.58 893.53C775.769 892.11 777.547 890.059 778.734 889.549C779.719 889.128 778.869 887.693 777.893 888.111Z" fill="#E2E2E2"/>
<path d="M792.699 887.15C790.26 887.917 788.458 890.366 788.144 892.855C787.81 895.489 790.941 897.118 793.149 896.051C795.187 895.066 796.409 892.693 796.615 890.516C796.878 887.743 794.469 886.762 792.116 887.15C791.058 887.325 791.508 888.93 792.559 888.756C796.563 888.096 794.665 893.129 792.685 894.414C791.254 895.344 789.547 894.203 789.86 892.575C790.17 890.96 791.564 889.253 793.142 888.756C794.163 888.436 793.727 886.827 792.699 887.15Z" fill="#E2E2E2"/>
<path d="M775.392 908.36C782.112 908.376 788.83 908.636 795.55 908.653C796.624 908.656 796.624 906.99 795.55 906.987C788.83 906.97 782.112 906.71 775.392 906.694C774.317 906.692 774.317 908.358 775.392 908.36Z" fill="#E2E2E2"/>
<path d="M785.925 870.872C792.383 871.592 798.82 873.102 803.437 877.996C808.045 882.882 810.053 891.387 810.307 897.896C810.851 911.862 796.316 922.862 783.087 922.252C776.831 921.965 770.68 917.561 766.697 913.003C762.562 908.272 760.854 902.015 760.667 895.852C760.446 888.602 763.447 882.603 768.309 877.399C771.052 874.462 773.946 872.457 777.928 871.706C780.999 871.126 784.161 871.197 787.242 870.623C788.298 870.427 787.849 868.821 786.8 869.017C783.132 869.7 779.374 869.602 775.739 870.472C772.229 871.313 769.582 873.713 767.13 876.22C761.802 881.67 758.97 888.226 759 895.852C759.054 909.325 769.15 922.616 783.087 923.918C790.211 924.584 797.404 921.114 802.826 916.798C808.771 912.066 811.994 905.473 811.973 897.896C811.953 890.746 809.259 882.301 804.614 876.819C800.069 871.452 792.548 869.944 785.925 869.206C784.858 869.087 784.869 870.755 785.925 870.872Z" fill="#E2E2E2"/>
<path d="M429.893 381.111C427.802 382.006 426.298 384.711 426.96 386.941C427.599 389.098 430.52 389.693 432.243 388.549C433.85 387.481 434.395 385.362 434.073 383.553C433.63 381.062 431.113 380.074 428.853 380.121C427.78 380.144 427.778 381.81 428.853 381.787C430.286 381.757 431.818 382.098 432.358 383.589C432.726 384.605 432.474 385.872 431.806 386.709C430.97 387.755 429.283 387.761 428.58 386.53C427.769 385.11 429.547 383.059 430.734 382.549C431.719 382.128 430.869 380.693 429.893 381.111Z" fill="#E2E2E2"/>
<path d="M444.699 380.15C442.26 380.917 440.458 383.366 440.144 385.855C439.81 388.489 442.941 390.118 445.149 389.051C447.187 388.066 448.409 385.693 448.615 383.516C448.878 380.743 446.469 379.762 444.116 380.15C443.058 380.325 443.508 381.93 444.559 381.756C448.563 381.096 446.665 386.129 444.685 387.414C443.254 388.344 441.547 387.203 441.86 385.575C442.17 383.96 443.564 382.253 445.142 381.756C446.163 381.436 445.727 379.827 444.699 380.15Z" fill="#E2E2E2"/>
<path d="M427.392 401.36C434.112 401.376 440.83 401.636 447.55 401.653C448.624 401.656 448.624 399.99 447.55 399.987C440.83 399.97 434.112 399.71 427.392 399.694C426.317 399.692 426.317 401.358 427.392 401.36Z" fill="#E2E2E2"/>
<path d="M437.925 363.872C444.383 364.592 450.82 366.102 455.437 370.996C460.045 375.882 462.053 384.387 462.307 390.896C462.851 404.862 448.316 415.862 435.087 415.252C428.831 414.965 422.68 410.561 418.697 406.003C414.562 401.272 412.854 395.015 412.667 388.852C412.446 381.602 415.447 375.603 420.309 370.399C423.052 367.462 425.946 365.457 429.928 364.706C432.999 364.126 436.161 364.197 439.242 363.623C440.298 363.427 439.849 361.821 438.8 362.017C435.132 362.7 431.374 362.602 427.739 363.472C424.229 364.313 421.582 366.713 419.13 369.22C413.802 374.67 410.97 381.226 411 388.852C411.054 402.325 421.15 415.616 435.087 416.918C442.211 417.584 449.404 414.114 454.826 409.798C460.771 405.066 463.994 398.473 463.973 390.896C463.953 383.746 461.259 375.301 456.614 369.819C452.069 364.452 444.548 362.944 437.925 362.206C436.858 362.087 436.869 363.755 437.925 363.872Z" fill="#E2E2E2"/>
<path d="M429.893 381.111C427.802 382.006 426.298 384.711 426.96 386.941C427.599 389.098 430.52 389.693 432.243 388.549C433.85 387.481 434.395 385.362 434.073 383.553C433.63 381.062 431.113 380.074 428.853 380.121C427.78 380.144 427.778 381.81 428.853 381.787C430.286 381.757 431.818 382.098 432.358 383.589C432.726 384.605 432.474 385.872 431.806 386.709C430.97 387.755 429.283 387.761 428.58 386.53C427.769 385.11 429.547 383.059 430.734 382.549C431.719 382.128 430.869 380.693 429.893 381.111Z" fill="#E2E2E2"/>
<path d="M444.699 380.15C442.26 380.917 440.458 383.366 440.144 385.855C439.81 388.489 442.941 390.118 445.149 389.051C447.187 388.066 448.409 385.693 448.615 383.516C448.878 380.743 446.469 379.762 444.116 380.15C443.058 380.325 443.508 381.93 444.559 381.756C448.563 381.096 446.665 386.129 444.685 387.414C443.254 388.344 441.547 387.203 441.86 385.575C442.17 383.96 443.564 382.253 445.142 381.756C446.163 381.436 445.727 379.827 444.699 380.15Z" fill="#E2E2E2"/>
<path d="M427.392 401.36C434 408 441 410 447.55 401.653C448.624 401.656 448.624 399.99 447.55 399.987C440.83 399.97 434.112 399.71 427.392 399.694C426.317 399.692 426.317 401.358 427.392 401.36Z" fill="#E2E2E2"/>
<path d="M437.925 363.872C444.383 364.592 450.82 366.102 455.437 370.996C460.045 375.882 462.053 384.387 462.307 390.896C462.851 404.862 448.316 415.862 435.087 415.252C428.831 414.965 422.68 410.561 418.697 406.003C414.562 401.272 412.854 395.015 412.667 388.852C412.446 381.602 415.447 375.603 420.309 370.399C423.052 367.462 425.946 365.457 429.928 364.706C432.999 364.126 436.161 364.197 439.242 363.623C440.298 363.427 439.849 361.821 438.8 362.017C435.132 362.7 431.374 362.602 427.739 363.472C424.229 364.313 421.582 366.713 419.13 369.22C413.802 374.67 410.97 381.226 411 388.852C411.054 402.325 421.15 415.616 435.087 416.918C442.211 417.584 449.404 414.114 454.826 409.798C460.771 405.066 463.994 398.473 463.973 390.896C463.953 383.746 461.259 375.301 456.614 369.819C452.069 364.452 444.548 362.944 437.925 362.206C436.858 362.087 436.869 363.755 437.925 363.872Z" fill="#E2E2E2"/>
<path d="M110.893 35.1113C108.802 36.0063 107.298 38.7106 107.96 40.9411C108.599 43.0976 111.52 43.6927 113.243 42.5485C114.85 41.4809 115.395 39.3624 115.073 37.5531C114.63 35.062 112.113 34.0737 109.853 34.121C108.78 34.1437 108.778 35.8097 109.853 35.7871C111.286 35.7571 112.818 36.0976 113.358 37.5891C113.726 38.6047 113.474 39.8722 112.806 40.7085C111.97 41.7548 110.283 41.7608 109.58 40.5299C108.769 39.1105 110.547 37.0586 111.734 36.5494C112.719 36.1276 111.869 34.6928 110.893 35.1113Z" fill="#E2E2E2"/>
<path d="M125.699 34.1504C123.26 34.9167 121.458 37.3658 121.144 39.8549C120.81 42.4892 123.941 44.1179 126.149 43.051C128.187 42.066 129.409 39.6929 129.615 37.5164C129.878 34.7428 127.469 33.7625 125.116 34.1504C124.058 34.325 124.508 35.9297 125.559 35.7564C129.563 35.096 127.665 40.1288 125.685 41.4143C124.254 42.3439 122.547 41.203 122.86 39.575C123.17 37.9602 124.564 36.2529 126.142 35.7564C127.163 35.4359 126.727 33.8271 125.699 34.1504Z" fill="#E2E2E2"/>
<path d="M108.392 55.3603C115 62 122 64 128.55 55.6529C129.624 55.6556 129.624 53.9895 128.55 53.9869C121.83 53.9695 115.112 53.7096 108.392 53.6943C107.317 53.6916 107.317 55.3577 108.392 55.3603Z" fill="#E2E2E2"/>
<path d="M118.925 17.8718C125.383 18.5916 131.82 20.1023 136.437 24.9965C141.045 29.882 143.053 38.3874 143.307 44.8956C143.851 58.8624 129.316 69.8615 116.087 69.2524C109.831 68.9645 103.68 64.5609 99.6967 60.0033C95.5616 55.2724 93.8535 49.0154 93.6669 42.8524C93.4464 35.6018 96.4472 29.6034 101.309 24.3987C104.052 21.4618 106.946 19.4566 110.928 18.7055C113.999 18.1264 117.161 18.197 120.242 17.6233C121.298 17.4267 120.849 15.8206 119.8 16.0165C116.132 16.6996 112.374 16.6016 108.739 17.472C105.229 18.313 102.582 20.7128 100.13 23.2198C94.8018 28.6704 91.9702 35.2259 92.0002 42.8517C92.0535 56.3246 102.15 69.6156 116.087 70.9178C123.211 71.5836 130.404 68.1142 135.826 63.7978C141.771 59.0656 144.994 52.4728 144.973 44.8956C144.953 37.7463 142.259 29.3009 137.614 23.8189C133.069 18.4523 125.548 16.9435 118.925 16.2058C117.858 16.0872 117.869 17.7545 118.925 17.8718Z" fill="#E2E2E2"/>
</g>
<defs>
<clipPath id="clip0_26_912">
<rect width="1512" height="982" fill="white"/>
</clipPath>
</defs>
</svg>