<svg xmlns="http://www.w3.org/2000/svg" width="1407" height="149" viewBox="0 0 1407 149" fill="none">
<path fill-rule="evenodd" clip-rule="evenodd" d="M1394.31 129.644C1393.8 128.599 1392.52 127.517 1392.75 126.485C1392.9 125.77 1394.5 125.068 1395.41 124.372C1397.16 123.054 1398.89 121.735 1400.64 120.416C1401.36 119.87 1401.82 119.426 1401.2 118.86C1399.76 117.532 1398.33 116.205 1396.89 114.877C1395.93 113.998 1394.18 113.079 1394 112.21C1393.82 111.31 1395.28 110.415 1395.92 109.532C1396.83 108.267 1397.73 107 1398.64 105.735C1399.99 103.84 1398 101.842 1397.39 99.909C1396.27 96.2988 1396.52 92.6828 1399.95 89.172C1401.28 87.8156 1402.6 86.4584 1403.92 85.1016C1404.47 84.5438 1405.18 84.0554 1404.26 83.4776C1402.16 82.1702 1400.08 80.8625 1397.99 79.5551C1396.45 78.5937 1393.93 77.5843 1393.32 76.632C1392.79 75.802 1393.88 74.9703 1394.16 74.1565C1394.62 72.8518 1395.07 71.5473 1395.53 70.2428C1396.19 68.3464 1397.51 66.4632 1398.56 64.5756C1400.56 61.0258 1402.8 57.4519 1400.96 53.8261C1400.26 52.4392 1399.55 51.0518 1398.84 49.6643C1398.54 49.0735 1397.85 48.4782 1398.55 47.909C1400.06 46.711 1401.55 45.5124 1403.04 44.3144C1404.26 43.34 1406.54 42.3498 1406.74 41.3493C1406.89 40.613 1405.06 39.799 1404.19 39.0481C1402.62 37.6874 1401.05 36.3266 1399.47 34.9662C1397.3 33.0817 1399.42 31.2509 1400.1 29.4155C1400.41 28.5862 1400.72 27.7567 1401.03 26.9274C1401.16 26.5773 1396.78 26.4467 1393.79 26.407C1369.05 26.0786 1344.31 25.75 1319.58 25.4213C1317.9 25.3994 1316.17 25.3675 1314.5 25.3541C1314.48 25.3539 1314.46 25.3539 1314.44 25.3537C1310.86 25.2496 1307.17 25.1783 1303.6 25.0901C1288.04 24.7048 1272.46 24.3196 1256.9 23.9344C1236.49 23.4299 1216.12 22.901 1195.75 22.3715C1183 22.0402 1170.26 21.6982 1157.49 21.3772C1149.58 21.1777 1141.59 21.1673 1133.73 21.0985C1118.23 20.9628 1102.71 20.8274 1087.2 20.6914C1082.94 20.6543 1078.34 20.5759 1074.11 20.5724C1073.02 20.5313 1071.61 20.5071 1070.72 20.4786C1045.72 19.6789 1020.53 18.7542 995.382 18.0694C986.055 17.8158 975.914 17.8202 966.659 17.7197C951.575 17.556 936.487 17.392 921.403 17.2283C900.228 16.998 878.83 16.5529 857.578 16.1853L837.741 15.8416C836.434 15.8191 835.121 15.7955 833.811 15.7735C830.289 15.6158 825.907 15.5431 822.312 15.4372C814.609 15.2097 806.906 14.9826 799.206 14.7556C785.583 14.3531 771.967 13.9515 758.351 13.5498C751.07 13.3349 743.958 13.2703 736.661 13.1745C714.077 12.8778 691.354 12.66 668.719 12.2717C643.148 11.8331 617.422 11.2915 591.88 10.9225C591.845 10.9218 591.828 10.9218 591.795 10.9211C590.789 10.8982 589.779 10.8747 588.776 10.8518C582.437 10.7055 576.093 10.5591 569.753 10.4128C554.56 10.0625 539.37 9.71231 524.179 9.36212C502.39 8.85928 480.69 8.67193 458.961 8.39463C452.019 8.30613 445.078 8.21759 438.143 8.12888C436.239 8.10468 434.319 8.07591 432.419 8.05599C432.327 8.05511 432.283 8.05424 432.201 8.05354C429.282 7.94386 425.625 7.90292 422.818 7.83322C415.456 7.65118 408.096 7.46889 400.733 7.28654C379.283 6.75527 357.969 6.16863 336.494 5.82469C313.654 5.45892 290.807 5.12023 267.955 4.72426C242.697 4.28673 217.357 3.77588 192.119 3.38712C191.324 3.33772 189.357 3.30287 188.651 3.28031L170.211 2.6824C155.034 2.19001 139.86 1.69831 124.683 1.20623C117.444 0.971562 111.087 0.758999 103.821 0.691037C89.3027 0.554772 74.7839 0.418508 60.2652 0.282851C50.6349 0.192554 41.0047 0.102266 31.3743 0.0119779C23.7466 -0.0594248 8.4767 0.178534 7.72379 0.992741C5.75791 3.11689 3.79884 5.24148 1.83636 7.366C1.31352 7.93007 2.20318 8.49813 2.82975 9.08503C4.29712 10.47 5.7679 11.8554 7.23186 13.2404C7.92875 13.8958 9.13361 14.5725 9.11078 15.2174C9.06441 16.3672 8.46887 17.5078 8.14967 18.652C7.65424 20.432 7.13166 22.2051 6.02236 23.9713C4.83546 25.8672 2.8844 27.7564 2.72063 29.6759C2.53099 31.8715 2.32088 34.0671 2.14829 36.2632C1.9759 38.4488 1.84785 40.6357 1.6891 42.8218C1.5596 44.7339 3.33994 46.69 4.32237 48.6213C6.15905 52.234 6.17432 55.8155 8.01782 59.4282C9.00329 61.3763 11.5638 63.3985 10.5881 65.3103C9.45996 67.5125 7.48929 69.7079 7.20363 71.9284C6.92988 74.0633 8.52493 76.2479 9.18576 78.3996C9.77295 80.2991 8.47399 82.1695 7.90845 84.0458C6.83226 87.6082 5.8822 91.1771 3.55439 94.7104C2.63328 96.0999 1.72241 97.4895 0.804711 98.879C0.435512 99.4384 -0.325953 99.9928 0.154109 100.569C2.05756 102.859 4.53056 105.164 5.87119 107.447C7.12261 109.582 6.96855 111.703 7.50366 113.826C7.97546 115.697 5.08073 117.513 3.42099 119.336C2.66796 120.155 1.91834 120.977 1.16531 121.797C0.837575 122.155 5.58835 122.263 8.4056 122.317C33.2355 122.793 58.0622 123.268 82.8921 123.743C104.175 124.151 125.498 124.374 146.733 124.668C153.077 124.756 159.425 124.844 165.766 124.932C167.154 124.951 168.741 124.99 170.109 124.992C170.157 124.992 170.177 124.992 170.218 124.992C181.872 125.265 193.539 125.52 205.199 125.784C226.143 126.258 247.036 126.739 267.994 127.149C315.733 128.082 363.416 128.983 411.146 129.812C455.961 130.591 500.63 131.332 545.457 132.189C565.471 132.572 585.437 132.98 605.45 133.402C619.737 133.703 634.024 134.005 648.311 134.305L650.05 134.342C650.228 134.348 650.446 134.355 650.766 134.364C655.507 134.506 660.315 134.618 665.072 134.745C680.94 135.167 696.808 135.588 712.679 136.01C720.082 136.208 727.513 136.433 734.952 136.564C760.567 137.013 786.176 137.426 811.792 137.86C856.109 138.61 900.409 139.365 944.717 140.079C964.79 140.403 984.572 140.772 1004.66 141.186C1019.16 141.485 1033.66 141.783 1048.16 142.083C1049.16 142.103 1050.16 142.123 1051.15 142.144C1051.2 142.146 1051.23 142.147 1051.3 142.15C1055.57 142.314 1060.32 142.402 1064.66 142.522C1080.31 142.958 1095.94 143.394 1111.59 143.83C1119.39 144.046 1127.61 144.348 1135.46 144.445C1148.09 144.6 1160.71 144.686 1173.29 144.807C1186.16 144.929 1199.22 145.105 1212.01 145.177C1211.55 145.167 1211.16 145.153 1211.07 145.133C1211.12 145.142 1211.68 145.161 1212.33 145.179C1214.42 145.192 1213.63 145.2 1212.6 145.187C1213.42 145.209 1214.29 145.229 1214.42 145.233C1219.96 145.401 1225.51 145.57 1231.05 145.737C1246.52 146.205 1261.98 146.673 1277.45 147.141C1284.57 147.356 1326.81 147.946 1340.95 148.086C1350.67 148.182 1360.4 148.279 1370.12 148.374C1375.16 148.424 1380.55 148.354 1385.04 148.175C1389.29 148.022 1393.14 147.775 1393.78 147.393C1397.19 145.321 1395.41 141.009 1395.41 141.009C1395.41 141.009 1399.61 136.571 1398.02 135.159C1395.93 133.306 1395.22 131.482 1394.31 129.644Z" fill="#C58FFF"/>
</svg>