<svg xmlns="http://www.w3.org/2000/svg" width="25" height="25" viewBox="0 0 25 25" fill="none">
<path d="M8.58778 8.68695C7.63723 9.09377 6.95355 10.323 7.25435 11.3369C7.54484 12.3171 8.87283 12.5876 9.65586 12.0675C10.3862 11.5822 10.634 10.6193 10.4877 9.79683C10.2862 8.66454 9.14242 8.21531 8.11493 8.23682C7.62723 8.24712 7.62633 9.00441 8.11493 8.99411C8.7662 8.98048 9.46291 9.13527 9.70827 9.81319C9.87548 10.2748 9.76097 10.851 9.45715 11.2311C9.07729 11.7067 8.31031 11.7094 7.99104 11.15C7.62239 10.5047 8.43027 9.57207 8.97006 9.34064C9.41777 9.1489 9.03155 8.49672 8.58778 8.68695Z" fill="black"/>
<path d="M15.3179 8.25015C14.2093 8.5985 13.3902 9.71172 13.2472 10.8431C13.0958 12.0405 14.5186 12.7809 15.5224 12.2959C16.4487 11.8482 17.0043 10.7695 17.0979 9.78017C17.2172 8.51944 16.1222 8.07385 15.0526 8.25015C14.5719 8.32951 14.7763 9.05893 15.254 8.98017C17.074 8.67998 16.2112 10.9676 15.3113 11.5519C14.6609 11.9745 13.8852 11.4559 14.0272 10.7159C14.1681 9.98192 14.8018 9.20585 15.5194 8.98017C15.9835 8.83447 15.785 8.10323 15.3179 8.25015Z" fill="black"/>
<path d="M7.45094 17.8911C10.5058 17.898 13.5592 18.0162 16.6138 18.0241C17.1021 18.0253 17.1021 17.268 16.6138 17.2668C13.5592 17.2589 10.5058 17.1408 7.45094 17.1338C6.96264 17.1326 6.96264 17.8899 7.45094 17.8911Z" fill="black"/>
<path d="M12.2385 0.850834C15.1741 1.17798 18.0999 1.86469 20.1985 4.08931C22.2932 6.30998 23.2059 10.1761 23.3213 13.1344C23.5688 19.4829 16.9619 24.4825 10.9487 24.2057C8.10493 24.0748 5.30932 22.0731 3.49848 20.0015C1.61889 17.8511 0.842516 15.007 0.7577 12.2056C0.657435 8.90991 2.02147 6.18337 4.23124 3.81759C5.47834 2.48264 6.7936 1.57117 8.60353 1.22978C9.99936 0.966547 11.4367 0.998657 12.8374 0.737846C13.3172 0.648486 13.1133 -0.0815416 12.6362 0.0075157C10.9693 0.318005 9.26085 0.273476 7.60875 0.669084C6.01299 1.05136 4.80981 2.14216 3.69568 3.28173C1.27357 5.75928 -0.0135241 8.73907 0.000107163 12.2053C0.0243404 18.3294 4.61382 24.3707 10.9487 24.9626C14.1869 25.2653 17.4562 23.6883 19.9208 21.7263C22.6234 19.5753 24.088 16.5785 24.0786 13.1344C24.0695 9.8847 22.8448 6.04584 20.7338 3.55406C18.6679 1.11467 15.2492 0.428872 12.2385 0.0935438C11.7535 0.0396248 11.7587 0.797521 12.2385 0.850834Z" fill="black"/>
</svg>