<svg xmlns="http://www.w3.org/2000/svg" width="53" height="55" viewBox="0 0 53 55" fill="none">
<path d="M26.9247 1.87183C33.383 2.59156 39.8199 4.10233 44.4368 8.99648C49.045 13.882 51.053 22.3874 51.3069 28.8956C51.8513 42.8624 37.3161 53.8615 24.0871 53.2524C17.8308 52.9645 11.6805 48.5609 7.69666 44.0033C3.56156 39.2724 1.85354 33.0154 1.66694 26.8524C1.44636 19.6018 4.44722 13.6034 9.30872 8.3987C12.0524 5.46181 14.9459 3.45657 18.9278 2.70552C21.9986 2.1264 25.1607 2.19704 28.2422 1.62326C29.2978 1.42667 28.8493 -0.179391 27.7997 0.0165345C24.1325 0.69961 20.3739 0.601647 16.7393 1.47199C13.2286 2.313 10.5816 4.71276 8.1305 7.21981C2.80184 12.6704 -0.0297529 19.2259 0.000235758 26.8517C0.053549 40.3246 10.1504 53.6156 24.0871 54.9178C31.2111 55.5836 38.4037 52.1142 43.8257 47.7978C49.7714 43.0656 52.9936 36.4728 52.9729 28.8956C52.9529 21.7463 50.2586 13.3009 45.6143 7.81892C41.0694 2.45228 33.5482 0.943518 26.9247 0.205796C25.8578 0.0871745 25.8691 1.75455 26.9247 1.87183Z" fill="#E2E2E2"/>
</svg>