<svg xmlns="http://www.w3.org/2000/svg" width="415" height="57" viewBox="0 0 415 57" fill="none">
<g clip-path="url(#clip0_13_5956)">
<path fill-rule="evenodd" clip-rule="evenodd" d="M414.438 17.3651L412.295 4.76814C412.235 4.42269 411.844 3.73782 411.288 3.07196V2.6885H410.943C410.282 1.99328 409.47 1.40169 408.72 1.3775L387.335 0.658096C382.358 0.491414 377.422 0.187414 372.448 0.393823L346.29 1.48373C344.658 1.55282 342.983 1.691 341.348 1.6625C338.298 1.60896 335.227 1.38182 332.185 1.24191C324.201 0.874868 316.215 0.431823 308.221 0.139914C302.165 -0.0803133 295.998 0.108823 289.93 0.105369C284.299 0.102778 278.52 -0.132995 272.904 0.138187L248.048 1.33432C243.309 1.56232 238.817 1.71864 234.073 1.66769L208.057 1.387C202.843 1.33 197.623 1.46473 192.411 1.5295C185.632 1.61155 178.73 1.92764 171.953 1.77737C164.641 1.61328 157.278 0.994914 149.991 0.605414C145.072 0.343732 140.162 -0.059586 135.223 0.00777764C121.689 0.192596 108.163 0.290187 94.6506 0.765187C86.6652 1.045 78.6798 1.36973 70.6896 1.6055C64.68 1.78169 58.624 1.71346 52.6083 1.76096C38.5105 1.87151 24.4422 1.82401 10.3432 1.74714C8.10658 1.73591 5.87121 1.72382 3.63584 1.71087L3.53179 1.83178L1.56207 12.5141C1.103 15.0083 0.484781 17.4083 0.718601 19.9077C1.35028 26.6907 2.17294 33.4366 2.02848 40.2273C1.94279 44.3339 1.85465 48.4405 1.76651 52.5462C1.74937 53.295 2.61365 54.1319 3.23186 54.7485C3.63339 55.1492 4.43769 56.1675 5.36685 56.1752C12.5186 56.2314 19.6727 56.2875 26.8257 56.3462C31.9477 56.386 37.0844 56.5181 42.2051 56.386C55.7226 56.0353 69.2181 55.5525 82.7503 55.6104C90.8764 55.645 99.0075 55.6303 107.132 55.7166C113.16 55.7814 119.207 56.126 125.223 56.3376L138.308 56.7979C139.698 56.8471 141.072 56.9465 142.458 56.8549L167.49 55.2088C170.118 55.0361 172.814 54.7364 175.458 54.6837C177.506 54.6457 179.641 54.8392 181.682 54.9178C190.303 55.2511 198.923 55.5828 207.543 55.9144C219.479 56.3739 231.53 55.7607 243.486 55.9533C256.006 56.1562 268.501 56.9862 281.031 56.9905L307.526 57C312.519 57.0017 317.435 56.6735 322.411 56.4084L336.618 55.6545C339.416 55.5059 342.262 55.252 345.073 55.2054C347.018 55.1734 349.005 55.3038 350.947 55.3574L365 55.7408C379.053 56.1234 393.071 56.2158 407.138 56.3082L413.749 56.3514C413.835 56.3531 413.858 56.2953 413.855 56.2167C413.957 50.0356 413.844 43.8391 414.201 37.6606L414.958 24.5333C415.103 22.0711 414.857 19.8231 414.438 17.3651Z" fill="#DCFF02"/>
</g>
<defs>
<clipPath id="clip0_13_5956">
<rect width="415" height="57" fill="white"/>
</clipPath>
</defs>
</svg>