<svg xmlns="http://www.w3.org/2000/svg" width="145" height="58" viewBox="0 0 145 58" fill="none">
<path fill-rule="evenodd" clip-rule="evenodd" d="M144.803 18.1479L144.053 5.55082C144.032 5.20536 143.896 4.5205 143.701 3.85463V3.47117H143.58C143.349 2.77594 143.065 2.18435 142.802 2.16017L135.318 1.44075C133.577 1.27407 131.849 0.970069 130.109 1.17648L120.954 2.26639C120.383 2.33548 119.797 2.47367 119.225 2.44517C118.158 2.39162 117.083 2.16448 116.018 2.02457C113.224 1.65753 110.429 1.21448 107.632 0.922569C105.512 0.70234 103.354 0.891477 101.23 0.888023C99.26 0.885432 97.2374 0.649658 95.2719 0.920841L86.5733 2.11698C84.9149 2.34498 83.343 2.5013 81.6829 2.45035L72.5781 2.16967C70.7535 2.11267 68.9267 2.24739 67.1025 2.31217C64.7304 2.39421 62.315 2.71031 59.9432 2.56003C57.3843 2.39594 54.8074 1.77757 52.2574 1.38807C50.5361 1.12639 48.8177 0.723067 47.089 0.790431C42.3528 0.975251 37.6193 1.07284 32.8904 1.54784C30.0958 1.82766 27.3012 2.15239 24.505 2.38817C22.4019 2.56435 20.2825 2.49612 18.1772 2.54362C13.2436 2.65417 8.3202 2.60667 3.38611 2.5298C2.60339 2.51858 1.8211 2.50649 1.03881 2.49353L1.00239 2.61444L0.31307 13.2968C0.152413 15.791 -0.0639377 18.1911 0.0178901 20.6904C0.238954 27.4735 0.52685 34.2194 0.476297 41.0102C0.446308 45.1168 0.415462 49.2234 0.384616 53.3292C0.378618 54.0779 0.681081 54.9148 0.897432 55.5314C1.03795 55.9322 1.31942 56.9504 1.64459 56.9582C4.14741 57.0143 6.65108 57.0704 9.15433 57.1292C10.9468 57.1689 12.7445 57.301 14.5365 57.1689C19.2671 56.8183 23.99 56.3355 28.7257 56.3934C31.5696 56.4279 34.4151 56.4132 37.2585 56.4996C39.3681 56.5644 41.484 56.9089 43.5897 57.1205L48.1686 57.5809C48.6553 57.6301 49.136 57.7294 49.621 57.6379L58.3812 55.9918C59.3011 55.819 60.2444 55.5194 61.1698 55.4667C61.8866 55.4287 62.6337 55.6221 63.3479 55.7007C66.3648 56.0341 69.3817 56.3657 72.3982 56.6974C76.5753 57.1568 80.7926 56.5436 84.977 56.7362C89.3584 56.9392 93.7313 57.7691 98.1161 57.7734L107.388 57.783C109.136 57.7847 110.856 57.4565 112.598 57.1914L117.569 56.4374C118.549 56.2889 119.545 56.0349 120.528 55.9883C121.209 55.9564 121.904 56.0868 122.584 56.1403L127.502 56.5238C132.42 56.9064 137.326 56.9988 142.249 57.0912L144.562 57.1344C144.592 57.1361 144.6 57.0782 144.599 56.9996C144.635 50.8186 144.596 44.6219 144.72 38.4434L144.985 25.3161C145.036 22.8539 144.95 20.6058 144.803 18.1479Z" fill="#DCFF02"/>
</svg>