<svg xmlns="http://www.w3.org/2000/svg" width="485" height="58" viewBox="0 0 485 58" fill="none">
<path d="M211.951 55.7007C221.718 56.024 231.485 56.3457 241.251 56.6674L242.16 56.6974C250.122 56.9597 258.129 56.8723 266.133 56.7849C272.145 56.7193 278.156 56.6536 284.147 56.7362C290.459 56.8238 296.766 57.0282 303.073 57.2326C311.379 57.5018 319.686 57.771 328.005 57.7734L358.955 57.783C363.821 57.7844 368.623 57.5563 373.456 57.3267C374.417 57.281 375.379 57.2353 376.343 57.1914L392.938 56.4374C394.026 56.388 395.12 56.3269 396.217 56.2656C398.416 56.1428 400.625 56.0194 402.815 55.9883C404.364 55.9665 405.936 56.0202 407.498 56.0735C408.227 56.0984 408.955 56.1233 409.677 56.1403L426.093 56.5238C442.509 56.9064 458.884 56.9988 475.316 57.0912L483.039 57.1344C483.139 57.1361 483.166 57.0782 483.163 56.9996C483.2 55.0609 483.213 53.1207 483.225 51.18C483.253 46.9332 483.281 42.684 483.566 38.4434L484.451 25.3161C484.62 22.8539 484.333 20.6058 483.844 18.1479M211.951 55.7007L211.967 55.201C221.745 55.5247 231.522 55.8467 241.298 56.1687L242.177 56.1976C249.136 56.427 256.132 56.3887 263.14 56.3169C264.135 56.3067 265.13 56.2958 266.126 56.2849C272.138 56.2193 278.156 56.1536 284.154 56.2363C290.491 56.3242 296.802 56.5289 303.108 56.7334C311.4 57.0023 319.684 57.271 328.005 57.2734L358.955 57.283C363.808 57.2844 368.596 57.0569 373.429 56.8274C374.391 56.7817 375.354 56.7359 376.32 56.6919L392.915 55.9379C393.992 55.889 395.081 55.8282 396.175 55.7671C398.38 55.644 400.608 55.5196 402.808 55.4884C404.369 55.4664 405.962 55.5207 407.53 55.5743C408.257 55.5991 408.978 55.6237 409.688 55.6404L426.105 56.0239C442.515 56.4064 458.886 56.4988 475.319 56.5912L482.67 56.6323M211.951 55.7007L211.967 55.201C211.206 55.1759 210.426 55.1385 209.637 55.1007C207.988 55.0217 206.301 54.9409 204.673 54.9667L204.672 54.9667C202.601 55.0021 200.492 55.1485 198.412 55.2929C197.38 55.3646 196.354 55.4357 195.344 55.4926L166.103 57.1386L166.103 57.1387C164.85 57.2095 163.61 57.1639 162.335 57.117C161.992 57.1044 161.647 57.0916 161.299 57.0811L161.284 57.5809L161.299 57.0811L146.014 56.6208C143.767 56.5531 141.512 56.4717 139.254 56.3901C134.465 56.2172 129.661 56.0437 124.871 55.9996L124.866 56.4996L124.871 55.9996C118.487 55.9415 112.099 55.9291 105.714 55.9167C102.604 55.9107 99.4942 55.9047 96.3863 55.8934C83.683 55.8469 71.0062 56.1493 58.3295 56.4518C55.2234 56.5259 52.1173 56.6 49.0109 56.669C44.5864 56.7668 40.1547 56.7197 35.7178 56.6725C34.1658 56.656 32.6132 56.6395 31.06 56.6292C22.7676 56.5709 14.4737 56.5152 6.18272 56.4595L5.99311 56.4582C5.60192 56.4554 5.1982 56.2674 4.80145 55.9849C4.51938 55.784 4.2913 55.576 4.08518 55.3879C3.9935 55.3043 3.90616 55.2246 3.82035 55.1513L3.82024 55.1512C3.80023 55.1341 3.78013 55.117 3.75994 55.0997C3.40697 54.7986 3.02987 54.4769 2.73387 54.1463C2.40154 53.7752 2.27923 53.5077 2.28364 53.3425L2.28366 53.3417C2.38662 49.236 2.48959 45.1293 2.58969 41.0226C2.73122 35.3271 2.08285 29.6601 1.43725 24.0172C1.30821 22.8893 1.17927 21.7624 1.05678 20.6364L1.05676 20.6361C0.839856 18.6513 1.27656 16.7408 1.74472 14.6927C1.84157 14.269 1.93976 13.8394 2.0338 13.4021C2.03381 13.402 2.03382 13.402 2.03384 13.4019L4.27541 2.99506L166.131 57.6379L195.373 55.9918C196.396 55.9342 197.429 55.8624 198.465 55.7905C200.536 55.6466 202.622 55.5018 204.681 55.4667C206.293 55.4411 207.952 55.5206 209.592 55.5992C210.385 55.6373 211.174 55.6751 211.951 55.7007ZM482.67 56.6323C482.668 56.7516 482.665 56.8708 482.663 56.99L482.663 57.004L482.663 57.0153C482.663 57.0111 482.663 57.0024 482.664 56.9901C482.667 56.9493 482.682 56.8694 482.747 56.7878C482.852 56.6542 482.989 56.635 483.041 56.6344M482.67 56.6323L483.041 56.6344M482.67 56.6323C482.702 54.8258 482.713 53.0125 482.725 51.1956C482.753 46.9409 482.781 42.6659 483.067 38.4098L483.953 25.2825L483.953 25.2819C484.117 22.8821 483.838 20.6827 483.353 18.2455L483.844 18.1479M483.041 56.6344L483.047 56.6344C483.045 56.6344 483.043 56.6343 483.041 56.6344ZM483.844 18.1479L483.353 18.2454L480.85 5.65021M483.844 18.1479L480.85 5.65021M480.85 5.65021C480.85 5.64963 480.849 5.64904 480.849 5.64844C480.834 5.57887 480.753 5.39202 480.557 5.10552C480.371 4.83413 480.113 4.51845 479.806 4.20368L479.664 4.05804V3.97117H479.569L479.426 3.84276C478.674 3.16563 477.841 2.67902 477.15 2.65998L477.15 2.65996L452.168 1.94055C450.922 1.9048 449.679 1.86285 448.44 1.82099C443.883 1.66711 439.362 1.51449 434.811 1.67616L404.255 2.76607C404.255 2.76607 404.255 2.76607 404.255 2.76608C403.716 2.78562 403.168 2.811 402.615 2.83661C401.238 2.90043 399.832 2.96563 398.456 2.94511L398.464 2.44517L398.456 2.94511C396.068 2.90922 393.662 2.79527 391.272 2.68208C390.09 2.62609 388.911 2.57027 387.74 2.52419C384.624 2.40155 381.509 2.2705 378.395 2.13945C372.182 1.87806 365.97 1.61671 359.752 1.42232C354.947 1.27275 350.089 1.31236 345.237 1.35192C342.954 1.37053 340.673 1.38913 338.399 1.38802C336.322 1.3872 334.232 1.36329 332.14 1.33935C327.585 1.28723 323.018 1.23497 318.532 1.42041L318.511 0.920841L318.531 1.42042L289.496 2.61656C283.957 2.8447 278.701 3.0014 273.147 2.95033L242.756 2.66964L242.761 2.16967L242.756 2.66964C238.299 2.62793 233.84 2.68902 229.376 2.75017C227.748 2.77248 226.119 2.7948 224.489 2.81214L224.489 2.81214C221.864 2.83933 219.219 2.89244 216.565 2.9457C211.233 3.05271 205.868 3.16038 200.577 3.05994L200.586 2.56003L200.577 3.05994C194.861 2.95013 189.111 2.63683 183.389 2.32507C180.553 2.17052 177.724 2.01636 174.909 1.88755C173.574 1.82673 172.241 1.75842 170.91 1.6902C166.498 1.46404 162.104 1.23882 157.686 1.2904C154.72 1.32507 151.756 1.35666 148.791 1.38825C135.95 1.52511 123.12 1.66184 110.301 2.04762L110.286 1.54784L110.301 2.04762C107.177 2.14132 104.053 2.24008 100.928 2.33886C94.7237 2.53498 88.5167 2.73119 82.3085 2.88801L82.3084 2.88801C77.5388 3.00771 72.7398 3.01474 67.9544 3.02176C65.6909 3.02507 63.4305 3.02838 61.1777 3.04361L61.1743 2.54362L61.1777 3.04361C44.7066 3.15418 28.2704 3.10666 11.8005 3.0298C11.8004 3.0298 11.8003 3.0298 11.8003 3.0298L11.8026 2.5298C9.18994 2.51858 6.57871 2.50649 3.96747 2.49353L480.85 5.65021ZM1.78382 53.3292C1.88678 49.2234 1.98974 45.1168 2.08985 41.0102C2.23043 35.3527 1.5869 29.7263 0.941503 24.0837C0.81222 22.9534 0.682861 21.8224 0.559716 20.6904L1.78382 53.3292ZM1.78382 53.3292C1.76441 54.0551 2.71267 54.8638 3.4286 55.4743M1.78382 53.3292L3.4286 55.4743M3.4286 55.4743C3.45117 55.4936 3.4735 55.5126 3.49557 55.5314L3.4286 55.4743Z" fill="#FAFAFA" stroke="black"/>
</svg>