<svg xmlns="http://www.w3.org/2000/svg" width="206" height="33" viewBox="0 0 206 33" fill="none">
<path d="M205.721 10.0534L205.226 10.1257L204.16 2.8341C204.16 2.83429 204.16 2.83424 204.16 2.83395C204.16 2.83258 204.159 2.82575 204.155 2.81277C204.151 2.79758 204.144 2.7774 204.135 2.75213C204.116 2.70123 204.088 2.63765 204.051 2.56386C203.976 2.41613 203.872 2.24272 203.748 2.06963L203.688 1.98566L203.596 1.87258C203.448 1.69206 203.296 1.53964 203.152 1.43498C203.003 1.32592 202.905 1.2987 202.859 1.29698L202.858 1.29695L192.226 0.880445C191.69 0.859541 191.157 0.835101 190.627 0.810779C188.69 0.721848 186.787 0.634502 184.868 0.727245L171.863 1.35822C171.644 1.36904 171.417 1.38335 171.185 1.39796C170.593 1.43523 169.972 1.47442 169.371 1.46223L169.381 0.962331L169.371 1.46223C168.347 1.4413 167.31 1.37448 166.288 1.30869C165.787 1.2764 165.289 1.24437 164.799 1.21811C163.47 1.14697 162.143 1.07102 160.816 0.995113C158.174 0.843865 155.534 0.692814 152.89 0.580375C150.854 0.494171 148.802 0.516954 146.742 0.539829C145.769 0.550641 144.793 0.561474 143.816 0.560826C142.921 0.560346 142.025 0.546388 141.132 0.532459C139.2 0.502346 137.277 0.472373 135.38 0.579038L135.352 0.0798266L135.38 0.579043L123.022 1.27155L122.994 0.77233L123.022 1.27155C120.661 1.4038 118.415 1.495 116.04 1.46529L116.046 0.965331L116.04 1.46529L103.105 1.30279L103.105 1.30279C101.213 1.27871 99.3235 1.31393 97.4255 1.3493C96.7313 1.36224 96.036 1.3752 95.3391 1.38528L95.3389 1.38528C94.2317 1.40089 93.1106 1.43147 91.9835 1.46223C89.7085 1.5243 87.4088 1.58704 85.1478 1.52867L85.1477 1.52866C82.707 1.46488 80.245 1.28244 77.8047 1.1016C76.5996 1.0123 75.3998 0.923392 74.2105 0.849362C73.6361 0.813777 73.0651 0.77397 72.4963 0.734322C70.6214 0.603629 68.7712 0.474656 66.9068 0.504263C65.6436 0.524351 64.381 0.542656 63.1189 0.560952C57.6536 0.640187 52.1988 0.71927 46.7475 0.94241L46.7474 0.942413C45.4196 0.996591 44.0907 1.05373 42.761 1.11091C40.1194 1.22449 37.4749 1.3382 34.8311 1.42904L34.831 1.42904C32.7955 1.49853 30.7433 1.50263 28.7035 1.50671C27.7415 1.50863 26.7823 1.51054 25.8288 1.51931L25.8288 1.51931C18.8156 1.58335 11.8179 1.55583 4.80769 1.51132L205.721 10.0534ZM205.721 10.0534L205.226 10.1257C205.432 11.533 205.549 12.7986 205.48 14.1782L205.48 14.1786M205.721 10.0534L205.48 14.1786M0.52381 11.4853L0.523825 11.4855C0.575884 12.1365 0.63071 12.7883 0.685605 13.4409C0.960409 16.7078 1.23692 19.9951 1.17659 23.2984L0.52381 11.4853ZM0.52381 11.4853C0.432658 10.3508 0.615792 9.26032 0.814831 8.07519C0.85618 7.82898 0.898216 7.57869 0.938622 7.32306C0.938625 7.32304 0.938628 7.32302 0.938632 7.323C0.938636 7.32298 0.93864 7.32295 0.938644 7.32293L1.86182 1.49293M0.52381 11.4853L1.86182 1.49293M1.04633 30.4307L1.04632 30.4313C1.04513 30.4922 1.08001 30.6155 1.20987 30.8128C1.32735 30.9912 1.47842 31.1666 1.63108 31.3438L1.65388 31.3703L1.65397 31.3704C1.70006 31.4239 1.74192 31.476 1.78329 31.5274C1.86595 31.6302 1.94666 31.7305 2.05521 31.8357C2.21882 31.9941 2.31273 32.0221 2.34102 32.0225C2.34112 32.0225 2.34123 32.0225 2.34133 32.0225L2.37388 32.0228C5.91855 32.0552 9.46456 32.0876 13.01 32.1215C13.0101 32.1215 13.0101 32.1215 13.0102 32.1215L13.0055 32.6215C13.6647 32.6274 14.3244 32.637 14.9843 32.6465L1.04633 30.4307ZM1.04633 30.4307C1.09016 28.0538 1.13398 25.6762 1.17659 23.2986L1.04633 30.4307ZM205.48 14.1786L205.103 21.7787C204.981 24.245 204.969 26.7239 204.957 29.1882C204.953 30.1687 204.948 31.1469 204.936 32.1211L202.095 32.0995C195.1 32.046 188.137 31.9925 181.157 31.7712L174.17 31.5492C174.17 31.5492 174.17 31.5492 174.17 31.5492C173.878 31.5399 173.576 31.5259 173.27 31.5117C172.597 31.4805 171.9 31.4482 171.224 31.4611L171.233 31.961L205.48 14.1786ZM1.86182 1.49293C2.8435 1.49945 3.82523 1.50558 4.80744 1.51132L1.86182 1.49293ZM205.39 32.1246L205.382 32.1245L205.39 32.1246Z" fill="#FC5151" stroke="#FC5151"/>
</svg>