<svg xmlns="http://www.w3.org/2000/svg" width="136" height="97" viewBox="0 0 136 97" fill="none">
<path d="M101.389 19.8538C99.2982 20.7488 97.7941 23.4532 98.4558 25.6836C99.0949 27.8402 102.016 28.4353 103.739 27.291C105.346 26.2234 105.891 24.1049 105.569 22.2956C105.126 19.8045 102.61 18.8162 100.349 18.8636C99.2762 18.8862 99.2742 20.5523 100.349 20.5296C101.782 20.4996 103.315 20.8401 103.854 22.3316C104.222 23.3472 103.97 24.6147 103.302 25.4511C102.466 26.4973 100.779 26.5033 100.077 25.2725C99.2655 23.853 101.043 21.8011 102.23 21.292C103.215 20.8701 102.366 19.4353 101.389 19.8538Z" fill="#E2E2E2"/>
<path d="M116.196 18.8929C113.757 19.6593 111.955 22.1084 111.64 24.5975C111.307 27.2318 114.437 28.8605 116.646 27.7936C118.683 26.8086 119.906 24.4355 120.112 22.259C120.374 19.4854 117.965 18.5051 115.612 18.8929C114.554 19.0675 115.004 20.6723 116.055 20.499C120.059 19.8386 118.161 24.8713 116.181 26.1569C114.75 27.0865 113.044 25.9456 113.356 24.3176C113.666 22.7028 115.06 20.9955 116.639 20.499C117.66 20.1785 117.223 18.5697 116.196 18.8929Z" fill="#E2E2E2"/>
<path d="M98.8883 40.1029C105.609 40.1183 112.327 40.3782 119.047 40.3955C120.121 40.3982 120.121 38.7321 119.047 38.7294C112.327 38.7121 105.609 38.4522 98.8883 38.4369C97.8141 38.4342 97.8141 40.1003 98.8883 40.1029Z" fill="#E2E2E2"/>
<path d="M109.421 2.61439C115.879 3.33412 122.316 4.84488 126.933 9.73903C131.541 14.6245 133.549 23.13 133.803 29.6382C134.348 43.6049 119.812 54.6041 106.583 53.995C100.327 53.7071 94.1768 49.3034 90.1929 44.7458C86.0578 40.0149 84.3498 33.758 84.1632 27.595C83.9426 20.3444 86.9435 14.346 91.805 9.14126C94.5486 6.20436 97.4422 4.19912 101.424 3.44807C104.495 2.86896 107.657 2.9396 110.739 2.36582C111.794 2.16922 111.346 0.563162 110.296 0.759088C106.629 1.44216 102.87 1.3442 99.2355 2.21454C95.7249 3.05555 93.0779 5.45531 90.6268 7.96237C85.2981 13.413 82.4665 19.9685 82.4965 27.5943C82.5498 41.0672 92.6467 54.3582 106.583 55.6604C113.707 56.3261 120.9 52.8568 126.322 48.5404C132.268 43.8082 135.49 37.2153 135.469 29.6382C135.449 22.4889 132.755 14.0434 128.111 8.56148C123.566 3.19483 116.045 1.68607 109.421 0.94835C108.354 0.829728 108.365 2.4971 109.421 2.61439Z" fill="#E2E2E2"/>
<path d="M28.3571 42.9296C25.2191 44.2726 22.9621 48.3306 23.9551 51.6776C24.9141 54.9136 29.2981 55.8066 31.8831 54.0896C34.2941 52.4876 35.1121 49.3086 34.6291 46.5936C33.9641 42.8556 30.1881 41.3726 26.7961 41.4436C25.1861 41.4776 25.1831 43.9776 26.7961 43.9436C28.9461 43.8986 31.2461 44.4096 32.0561 46.6476C32.6081 48.1716 32.2301 50.0736 31.2271 51.3286C29.9731 52.8986 27.4411 52.9076 26.3871 51.0606C25.1701 48.9306 27.8371 45.8516 29.6191 45.0876C31.0971 44.4546 29.8221 42.3016 28.3571 42.9296Z" fill="white"/>
<path d="M50.5751 41.4876C46.9151 42.6376 44.2111 46.3126 43.7391 50.0476C43.2391 54.0006 47.9361 56.4446 51.2501 54.8436C54.3081 53.3656 56.1421 49.8046 56.4511 46.5386C56.8451 42.3766 53.2301 40.9056 49.6991 41.4876C48.1121 41.7496 48.7871 44.1576 50.3641 43.8976C56.3721 42.9066 53.5241 50.4586 50.5531 52.3876C48.4061 53.7826 45.8451 52.0706 46.3141 49.6276C46.7791 47.2046 48.8711 44.6426 51.2401 43.8976C52.7721 43.4166 52.1171 41.0026 50.5751 41.4876Z" fill="white"/>
<path d="M24.6041 73.3146C34.6891 73.3376 44.7691 73.7276 54.8531 73.7536C56.4651 73.7576 56.4651 71.2576 54.8531 71.2536C44.7691 71.2276 34.6891 70.8376 24.6041 70.8146C22.9921 70.8106 22.9921 73.3106 24.6041 73.3146Z" fill="white"/>
<path d="M40.4091 17.0606C50.1001 18.1406 59.7591 20.4076 66.6871 27.7516C73.6021 35.0826 76.6151 47.8456 76.9961 57.6116C77.8131 78.5696 56.0021 95.0746 36.1511 94.1606C26.7631 93.7286 17.5341 87.1206 11.5561 80.2816C5.35113 73.1826 2.78813 63.7936 2.50813 54.5456C2.17713 43.6656 6.68013 34.6646 13.9751 26.8546C18.0921 22.4476 22.4341 19.4386 28.4091 18.3116C33.0171 17.4426 37.7621 17.5486 42.3861 16.6876C43.9701 16.3926 43.2971 13.9826 41.7221 14.2766C36.2191 15.3016 30.5791 15.1546 25.1251 16.4606C19.8571 17.7226 15.8851 21.3236 12.2071 25.0856C4.21113 33.2646 -0.0378713 43.1016 0.00712867 54.5446C0.0871287 74.7616 15.2381 94.7056 36.1511 96.6596C46.8411 97.6586 57.6341 92.4526 65.7701 85.9756C74.6921 78.8746 79.5271 68.9816 79.4961 57.6116C79.4661 46.8836 75.4231 34.2106 68.4541 25.9846C61.6341 17.9316 50.3481 15.6676 40.4091 14.5606C38.8081 14.3826 38.8251 16.8846 40.4091 17.0606Z" fill="white"/>
</svg>