<svg xmlns="http://www.w3.org/2000/svg" width="933" height="458" viewBox="0 0 933 458" fill="none">
<path fill-rule="evenodd" clip-rule="evenodd" d="M923.89 427.381C923.553 423.952 922.707 420.402 922.859 417.015C922.958 414.669 924.015 412.366 924.623 410.082C925.779 405.757 926.929 401.428 928.085 397.099C928.561 395.31 928.865 393.854 928.455 391.995C927.504 387.637 926.552 383.282 925.601 378.924C924.967 376.042 923.804 373.025 923.685 370.175C923.566 367.221 924.537 364.283 924.96 361.387C925.561 357.235 926.156 353.08 926.764 348.928C927.656 342.708 926.334 336.155 925.931 329.81C925.191 317.964 925.357 306.099 927.629 294.578C928.508 290.127 929.387 285.674 930.259 281.222C930.622 279.391 931.091 277.789 930.484 275.893C929.096 271.603 927.715 267.312 926.328 263.022C925.31 259.867 923.639 256.555 923.236 253.43C922.885 250.707 923.606 247.977 923.791 245.307C924.094 241.026 924.398 236.745 924.702 232.465C925.138 226.242 926.011 220.063 926.711 213.869C928.032 202.221 929.519 190.493 928.297 178.596C927.834 174.045 927.365 169.492 926.896 164.94C926.698 163.001 926.235 161.047 926.704 159.18C927.702 155.249 928.686 151.316 929.677 147.385C930.484 144.187 932.862 100.144 932.994 96.8612C933.093 94.4453 931.878 91.7741 931.303 89.3104C930.266 84.8453 929.222 80.3802 928.178 75.9161C926.738 69.7323 928.145 63.7248 928.594 57.7023C928.799 54.9811 929.004 4.73378 929.208 2.01257C929.294 0.863824 926.394 2.14279 924.412 2.01257C908.02 0.934823 891.628 3.0913 875.243 2.01257C874.126 1.94059 872.983 2.05642 871.873 2.01257C871.86 2.01192 871.847 2.01323 871.833 2.01257C869.462 1.67099 867.017 2.30213 864.652 2.01257C854.338 0.748327 844.018 3.27649 833.705 2.01257C820.187 0.357013 806.689 3.75026 793.191 2.01257C784.74 0.925662 776.297 3.06578 767.84 2.01257C762.594 1.35787 757.301 2.23833 752.095 2.01257C741.821 1.56727 731.541 2.45885 721.26 2.01257C718.439 1.89086 715.393 2.02402 712.585 2.01257C711.865 1.87777 710.934 2.10582 710.339 2.01257C693.775 -0.611784 677.086 4.25936 660.421 2.01257C654.241 1.18021 647.522 2.34238 641.389 2.01257C631.394 1.47566 621.397 2.54981 611.402 2.01257C597.371 1.25677 583.192 3.21891 569.11 2.01257H555.966C555.1 1.93863 554.23 2.08488 553.362 2.01257C551.028 1.49496 548.125 2.36004 545.743 2.01257C540.638 1.26626 535.534 2.75757 530.432 2.01257C521.405 0.692051 512.383 3.3308 503.361 2.01257C498.537 1.30749 493.824 2.327 488.989 2.01257C474.024 1.0392 458.102 3.28696 443.104 2.01257C426.16 0.57361 409.114 3.22349 392.189 2.01257C392.166 2.01028 392.155 2.01486 392.132 2.01257C391.466 1.93732 390.797 2.08783 390.133 2.01257C385.932 1.53259 381.728 2.49288 377.527 2.01257C367.46 0.863169 357.395 3.16165 347.329 2.01257C332.892 0.362575 318.513 2.92248 304.115 2.01257C299.515 1.72216 294.915 2.30364 290.32 2.01257C289.059 1.93316 287.787 2.07791 286.528 2.01257C286.466 2.00966 286.437 2.01486 286.383 2.01257C284.449 1.65267 282.026 2.24128 280.166 2.01257C275.287 1.41523 270.411 2.61093 265.532 2.01257C251.319 0.269294 237.196 3.14117 222.966 2.01257C207.832 0.812357 192.694 3.31189 177.551 2.01257C160.815 0.576882 144.024 3.28824 127.301 2.01257C126.774 1.85048 125.471 2.08661 125.003 2.01257H112.784C102.728 0.396897 92.6732 3.62727 82.6168 2.01257C77.8201 1.24254 73.6081 2.23558 68.7936 2.01257C59.1734 1.56544 49.553 2.45771 39.9326 2.01257C33.5515 1.71627 27.1703 2.30884 20.7891 2.01257C15.7349 1.77827 5.61679 -0.659128 5.11791 2.01257C3.81528 8.98268 2.51717 -4.95874 1.2168 2.01257C0.870361 3.86349 1.45986 0.0867577 1.87504 2.01257C2.84734 6.55718 3.8219 -2.53204 4.79194 2.01257C5.25371 4.16316 6.05207 -0.103665 6.03694 2.01257C6.00622 5.78535 5.61161 59.4225 5.4001 63.177C5.07182 69.0179 4.72555 74.8362 3.99051 80.6317C3.20405 86.8528 1.91125 93.0519 1.80273 99.3506C1.67707 106.555 1.53785 113.76 1.42349 120.966C1.30926 128.137 1.22442 135.314 1.11923 142.487C1.03341 148.761 2.2131 155.18 2.86407 161.517C4.08108 173.371 4.0912 185.124 5.31273 196.978C5.96572 203.371 7.66233 210.006 7.01583 216.28C6.26832 223.506 4.96252 230.71 4.77324 237.996C4.59185 245.001 5.64875 252.17 6.08663 259.23C6.47571 265.463 5.615 271.601 5.24026 277.757C4.52716 289.447 3.89764 301.158 2.35519 312.752C1.74485 317.311 1.14129 321.871 0.533214 326.431C0.288577 328.266 -0.215982 330.085 0.102115 331.976C1.36337 339.492 3.00202 347.053 3.89034 354.546C4.71955 361.551 4.61747 368.51 4.97204 375.476C5.28467 381.617 3.36657 387.575 2.26681 393.556C1.76783 396.245 1.27112 407.385 0.772155 410.075C0.554991 411.253 3.70293 411.606 5.56969 411.783C22.0224 413.343 38.4729 414.904 54.9256 416.461C69.0282 417.8 83.1572 418.532 97.2274 419.498C101.431 419.786 105.637 420.073 109.839 420.365C110.759 420.427 111.81 420.554 112.717 420.561C112.749 420.561 112.762 420.561 112.789 420.561C120.511 421.457 128.242 422.292 135.968 423.159C149.846 424.713 163.69 426.293 177.577 427.638C209.21 430.701 240.805 433.655 272.432 436.377C302.127 438.932 331.726 425.917 361.428 428.73C374.69 429.987 387.92 431.325 401.181 432.709C410.648 433.697 420.114 434.688 429.581 435.673L430.734 435.794C430.851 435.814 430.996 435.837 431.208 435.866C434.349 436.331 437.535 436.701 440.687 437.116C451.201 438.5 461.716 439.884 472.232 441.268C477.138 441.916 482.061 442.655 486.991 443.084C503.963 444.56 520.933 445.914 537.906 447.337C567.271 449.798 596.625 436.828 625.984 439.174C639.285 440.237 652.393 441.448 665.702 442.806C675.309 443.787 684.922 444.765 694.528 445.747C695.189 445.812 695.85 445.881 696.511 445.95C696.544 445.956 696.563 445.96 696.61 445.969C699.437 446.506 702.582 446.794 705.463 447.19C715.829 448.62 726.189 441.606 736.555 443.035C741.722 443.745 747.173 444.737 752.373 445.054C760.744 445.565 769.102 445.846 777.44 446.242C785.969 446.644 794.624 447.22 803.094 447.456C802.791 447.423 802.533 447.377 802.473 447.312C802.506 447.341 802.876 447.403 803.306 447.462C804.693 447.505 804.171 447.531 803.491 447.488C804.033 447.56 804.607 447.629 804.693 447.642C808.367 448.192 812.04 448.745 815.714 449.295C825.961 450.829 836.209 452.367 846.456 453.901C851.173 454.608 879.167 456.542 888.536 457.003C894.978 457.317 901.419 457.634 907.861 457.949C911.204 458.112 914.772 457.883 917.752 457.294C920.567 456.794 923.117 455.982 923.54 454.729C925.799 447.93 924.623 433.779 924.623 433.779C924.623 433.779 927.405 419.216 926.348 445.477C924.967 439.398 924.498 433.414 923.89 427.381Z" fill="#C58FFF"/>
</svg>