<svg xmlns="http://www.w3.org/2000/svg" width="67" height="33" viewBox="0 0 67 33" fill="none">
<path d="M66.3167 32.1131C66.3205 31.1371 66.322 30.1594 66.3236 29.1808C66.3274 26.7203 66.3312 24.2541 66.3708 21.7954L66.8707 21.8034L66.3708 21.7954L66.4934 14.1953V14.1952C66.5165 12.7846 66.4772 11.4948 66.4097 10.0771L66.3167 32.1131ZM66.3167 32.1131L65.7405 32.0996C63.4628 32.0461 61.2144 31.9928 58.9634 31.7734C58.9634 31.7734 58.9633 31.7734 58.9633 31.7734L56.6914 31.5514C56.6 31.5424 56.5192 31.5308 56.4278 31.5176C56.3686 31.5091 56.305 31.5 56.2313 31.4905C56.0629 31.4688 55.8673 31.4498 55.6631 31.4619L55.6628 31.4619C55.3948 31.4778 55.1349 31.5284 54.8993 31.5808C54.8115 31.6004 54.7299 31.6195 54.6514 31.6378C54.5065 31.6717 54.3727 31.703 54.2318 31.7298L51.9345 32.1663L51.9341 32.1664C51.7922 32.1934 51.6533 32.2209 51.517 32.2479C50.8488 32.3804 50.2411 32.5008 49.6215 32.5L45.3371 32.4945C44.3599 32.4933 43.3768 32.3768 42.3664 32.2418C42.2298 32.2235 42.0925 32.2049 41.9547 32.1862C41.0828 32.068 40.1887 31.9468 39.2942 31.8948L39.294 31.8948C38.4367 31.8454 37.5757 31.8848 36.7448 31.9228C36.6078 31.9291 36.4716 31.9353 36.3364 31.9411C35.3684 31.9826 34.4379 32.0025 33.5212 31.8762L33.5212 31.8762L33.3953 31.8588C32.0434 31.6726 30.6915 31.4864 29.3397 31.2992L29.3394 31.2992C29.245 31.2862 29.1619 31.2694 29.0642 31.2497C29.0033 31.2374 28.9368 31.224 28.8584 31.2096C28.6785 31.1767 28.4603 31.1449 28.2315 31.1601L28.2291 31.1603C27.9643 31.1792 27.7096 31.2412 27.486 31.3031C27.4003 31.3268 27.3221 31.3495 27.2479 31.3711C27.1131 31.4104 26.9915 31.4457 26.8616 31.4763L26.8616 31.4763L22.8137 32.4293L22.8132 32.4294C22.7768 32.438 22.7271 32.4411 22.6435 32.4326C22.6013 32.4283 22.5563 32.4218 22.5011 32.4134C22.4932 32.4122 22.485 32.4109 22.4766 32.4096C22.4297 32.4024 22.3747 32.3939 22.3201 32.387L22.3197 32.3869L20.2039 32.1204L20.1414 32.6165L20.2039 32.1204C19.918 32.0844 19.6198 32.0394 19.3143 31.9934C18.6374 31.8913 17.9253 31.7839 17.2352 31.7574L17.235 31.7574C16.3443 31.7235 15.4472 31.7162 14.5591 31.7089C14.1303 31.7055 13.7037 31.702 13.2809 31.6955M66.3167 32.1131L4.22993 32.6215L4.24381 32.1217C4.24402 32.1217 4.24422 32.1217 4.24443 32.1217C4.47784 32.1282 4.70381 32.1382 4.92474 32.148C5.52821 32.1748 6.09401 32.1999 6.67089 32.1466M13.2809 31.6955C13.2809 31.6955 13.2809 31.6956 13.2809 31.6956L13.2733 32.1955L13.2809 31.6955ZM13.2809 31.6955C11.4917 31.6682 9.70202 31.8469 7.94479 32.0224C7.51808 32.065 7.09329 32.1074 6.67089 32.1466M6.67089 32.1466C6.67081 32.1466 6.67073 32.1466 6.67065 32.1466L6.71688 32.6445L6.67089 32.1466ZM0.774888 32.0227C0.924667 32.0272 1.01728 32.1029 1.04732 32.1312C1.07422 32.1565 1.08603 32.1761 1.08596 32.1762C1.08595 32.1762 1.08556 32.1756 1.08482 32.1743C1.07578 32.1586 1.05596 32.1151 1.02929 32.0356C1.02864 32.0337 1.02799 32.0318 1.02734 32.0298C0.945016 32.0275 0.8627 32.0252 0.780381 32.0229L0.774888 32.0227ZM0.774888 32.0227L0.77396 32.0227L0.759915 32.5225L0.774888 32.0227ZM44.1073 0.572519L44.1071 0.572567L40.0877 1.26507L40.0028 0.77233L40.0877 1.26507C39.3085 1.3993 38.5424 1.49644 37.7239 1.46496L37.7238 1.46496L33.5168 1.30246L33.5166 1.30245C32.9246 1.27928 32.3417 1.31267 31.7319 1.3476C31.5018 1.36077 31.2679 1.37417 31.0282 1.38484L31.0276 1.38486C30.6725 1.40025 30.3234 1.4296 29.9623 1.45996C29.7751 1.47569 29.5848 1.49169 29.3887 1.50616C28.8281 1.54753 28.2449 1.57383 27.6583 1.52726L27.6579 1.52723C27.0324 1.47698 26.4129 1.3579 25.8139 1.22699C25.6049 1.18131 25.4009 1.13481 25.1997 1.08894C24.8124 1.00064 24.4354 0.914685 24.0526 0.841415L44.1073 0.572519ZM44.1073 0.572519C44.5115 0.502655 44.9324 0.496309 45.382 0.510635M44.1073 0.572519L45.382 0.510635M15.2601 0.938915L15.2599 0.938939C14.8344 0.992322 14.4053 1.04904 13.9743 1.10601C13.1115 1.22006 12.2409 1.33514 11.3755 1.42656L11.3752 1.4266C10.6912 1.49839 9.98503 1.50285 9.30997 1.50712C9.00296 1.50906 8.70239 1.51096 8.41326 1.51913L8.41317 1.51913C6.12118 1.58348 3.83658 1.55577 1.55528 1.51124C1.35054 1.50756 1.14586 1.50372 0.941208 1.49972L15.2601 0.938915ZM15.2601 0.938915C17.0134 0.718243 18.7655 0.640096 20.5418 0.560865C20.954 0.542477 21.3676 0.524031 21.7828 0.503731L15.2601 0.938915ZM45.382 0.510635C45.536 0.515542 45.6999 0.523322 45.868 0.531305M45.382 0.510635L45.868 0.531305M45.868 0.531305C46.1669 0.545497 46.4794 0.560333 46.7744 0.560825L45.868 0.531305ZM0.643998 7.27058C0.643999 7.27057 0.644 7.27055 0.644 7.27053L0.144668 7.24486L0.643998 7.27058ZM65.8607 1.68467L65.8998 1.83179L60.1929 0.722355C60.7471 0.640072 61.283 0.715244 61.9007 0.801887C62.0816 0.827253 62.2694 0.853602 62.4668 0.877271L65.7281 1.27006C65.7696 1.37126 65.8154 1.51414 65.8607 1.68467ZM55.9641 1.35318L60.1927 0.722398L53.5271 1.21219C53.6571 1.23359 53.8023 1.26224 53.9563 1.29261C54.304 1.36118 54.6964 1.43858 55.0587 1.46135L55.0589 1.46136C55.2488 1.47321 55.4274 1.44978 55.5744 1.42457C55.6587 1.41011 55.7183 1.39831 55.772 1.3877C55.8342 1.3754 55.8883 1.36469 55.9634 1.35329C55.9636 1.35326 55.9639 1.35322 55.9641 1.35318ZM48.2664 0.523636C48.7523 0.512639 49.2166 0.517802 49.6685 0.576607L46.7746 0.560826C47.0956 0.561475 47.4286 0.550177 47.7512 0.539235C47.9273 0.533262 48.1002 0.527396 48.2664 0.523636Z" stroke="#DCFF02"/>
</svg>