<svg xmlns="http://www.w3.org/2000/svg" width="76" height="221" viewBox="0 0 76 221" fill="none">
<path d="M44.9526 104.948C44.9526 105.446 44.2746 106.034 43.1789 106.582C41.6072 107.368 39.3721 107.854 36.8469 107.854C34.3216 107.854 32.0864 107.368 30.5148 106.582C29.4191 106.034 28.7411 105.446 28.7411 104.948V102.475C30.9034 103.494 33.7587 104.119 36.8469 104.119C39.935 104.119 42.7903 103.494 44.9526 102.475V104.948ZM24.1543 104.948C24.1543 107.321 25.8047 109.333 28.4724 110.667C30.6641 111.762 33.629 112.441 36.8469 112.441C40.0646 112.441 43.0296 111.762 45.2213 110.667C47.4948 109.53 49.5394 107.64 49.5394 104.948V96.6259V88.3042V79.9824C49.5323 79.1935 49.1505 78.482 48.4857 78.0526L40.5185 72.285L47.0334 67.399C48.0425 66.6421 48.2472 65.21 47.4903 64.2009C46.7334 63.1917 45.3014 62.9871 44.2922 63.744L38.9563 67.7458V2.29334C38.9563 1.02687 37.9294 -4.57764e-05 36.6629 -4.57764e-05C35.3964 -4.57764e-05 34.3695 1.02688 34.3695 2.29334V67.834L29.0983 64.018C28.0742 63.276 26.6422 63.5047 25.9002 64.5287C25.1582 65.5528 25.3869 66.9848 26.411 67.7268L32.8076 72.3575L25.242 78.0316C24.552 78.468 24.1614 79.1772 24.1543 79.9827V88.3045V96.6262L24.1543 104.948ZM44.4618 80.7942C42.6858 82.3826 39.1067 82.8886 36.8469 82.8886C34.5992 82.8886 30.9566 82.3765 29.2051 80.77L36.6822 75.1622L44.4618 80.7942ZM28.7411 85.8319C30.9035 86.8509 33.7588 87.4754 36.847 87.4754C39.9352 87.4754 42.7903 86.8509 44.9526 85.8319V88.3042C44.9526 88.8023 44.2746 89.3904 43.179 89.9382C41.6073 90.7241 39.3721 91.2103 36.847 91.2103C34.3217 91.2103 32.0865 90.7241 30.5148 89.9382C29.4191 89.3904 28.7411 88.8023 28.7411 88.3042V85.8319ZM28.7411 96.6259V94.1536C30.9035 95.1726 33.7588 95.7971 36.847 95.7971C39.935 95.7971 42.7903 95.1726 44.9526 94.1536V96.6259C44.9526 97.124 44.2746 97.7121 43.179 98.2599C41.6073 99.0458 39.3721 99.532 36.847 99.532C34.3217 99.532 32.0865 99.0458 30.5148 98.2599C29.4191 97.7121 28.7411 97.124 28.7411 96.6259Z" fill="black"/>
<path d="M42.2426 110.701C42.1239 109.444 41.0088 108.522 39.7522 108.641C38.4955 108.759 37.5731 109.874 37.6917 111.131C37.6983 111.198 39.6005 132.446 53.3544 146.664C55.6339 149.021 57.3541 150.289 59.6363 152.874C67.0724 161.298 81.8683 183.233 58.0402 204.547C45.7184 215.569 34.2863 217.625 25.2583 213.802C20.5017 211.788 16.3519 208.132 13.0434 203.289C9.6681 198.349 7.17918 192.184 5.81402 185.26C1.47068 163.23 8.0556 134.184 34.0178 111.93C34.9775 111.109 35.0899 109.665 34.2687 108.705C33.4475 107.746 32.0034 107.633 31.0437 108.455C3.65102 131.934 -3.29572 162.742 1.31697 186.138C2.80183 193.669 5.53775 200.416 9.26316 205.869C13.0553 211.42 17.8841 215.641 23.4845 218.012C34.0892 222.503 47.2479 220.329 61.0861 207.951C87.7188 184.129 71.6897 159.749 63.3098 150.141C60.9754 147.464 59.055 145.959 56.7421 143.591C44.0228 130.567 42.2487 110.764 42.2426 110.701Z" fill="black"/>
</svg>