<svg xmlns="http://www.w3.org/2000/svg" width="53" height="55" viewBox="0 0 53 55" fill="none">
<path d="M18.8931 19.1113C16.8019 20.0063 15.2978 22.7106 15.9596 24.9411C16.5987 27.0976 19.5202 27.6927 21.2429 26.5485C22.8496 25.4809 23.3948 23.3624 23.0729 21.5531C22.6297 19.062 20.1133 18.0737 17.8528 18.121C16.7799 18.1437 16.7779 19.8097 17.8528 19.7871C19.2856 19.7571 20.8184 20.0976 21.3582 21.5891C21.726 22.6047 21.4741 23.8722 20.8057 24.7085C19.97 25.7548 18.2827 25.7608 17.5803 24.5299C16.7693 23.1105 18.5466 21.0586 19.7341 20.5494C20.7191 20.1276 19.8694 18.6928 18.8931 19.1113Z" fill="#E2E2E2"/>
<path d="M33.6993 18.1504C31.2602 18.9167 29.4582 21.3658 29.1437 23.8549C28.8105 26.4892 31.9406 28.1179 34.1491 27.051C36.187 26.066 37.4092 23.6929 37.6152 21.5164C37.8777 18.7428 35.4686 17.7625 33.1155 18.1504C32.0579 18.325 32.5078 19.9297 33.5587 19.7564C37.5625 19.096 35.6646 24.1288 33.6846 25.4143C32.2539 26.3439 30.5472 25.203 30.8597 23.575C31.1696 21.9603 32.5637 20.2529 34.1425 19.7564C35.1634 19.4359 34.7269 17.8271 33.6993 18.1504Z" fill="#E2E2E2"/>
<path d="M16.3921 39.3603C23.1129 39.3757 29.8304 39.6356 36.5505 39.6529C37.6248 39.6556 37.6248 37.9895 36.5505 37.9869C29.8304 37.9695 23.1129 37.7096 16.3921 37.6943C15.3179 37.6916 15.3179 39.3577 16.3921 39.3603Z" fill="#E2E2E2"/>
<path d="M26.9247 1.87183C33.383 2.59156 39.8199 4.10233 44.4368 8.99648C49.045 13.882 51.053 22.3874 51.3069 28.8956C51.8513 42.8624 37.3161 53.8615 24.0871 53.2524C17.8308 52.9645 11.6805 48.5609 7.69666 44.0033C3.56156 39.2724 1.85354 33.0154 1.66694 26.8524C1.44636 19.6018 4.44722 13.6034 9.30872 8.3987C12.0524 5.46181 14.9459 3.45657 18.9278 2.70552C21.9986 2.1264 25.1607 2.19704 28.2422 1.62326C29.2978 1.42667 28.8493 -0.179391 27.7997 0.0165345C24.1325 0.69961 20.3739 0.601647 16.7393 1.47199C13.2286 2.313 10.5816 4.71276 8.1305 7.21981C2.80184 12.6704 -0.0297529 19.2259 0.000235758 26.8517C0.053549 40.3246 10.1504 53.6156 24.0871 54.9178C31.2111 55.5836 38.4037 52.1142 43.8257 47.7978C49.7714 43.0656 52.9936 36.4728 52.9729 28.8956C52.9529 21.7463 50.2586 13.3009 45.6143 7.81892C41.0694 2.45228 33.5482 0.943518 26.9247 0.205796C25.8578 0.0871745 25.8691 1.75455 26.9247 1.87183Z" fill="#E2E2E2"/>
</svg>