<svg xmlns="http://www.w3.org/2000/svg" width="1512" height="982" viewBox="0 0 1512 982" fill="none">
<g clip-path="url(#clip0_26_498)">
<rect width="1512" height="982" fill="white"/>
<path d="M427 381.435C427.037 381.6 427.313 381.758 427.42 381.865C428.092 382.536 428.734 383.204 429.464 383.816C430.027 384.29 430.609 384.783 431.13 385.304C431.821 385.995 432.501 386.828 433.087 387.609" stroke="#E2E2E2" stroke-width="1.86716" stroke-linecap="round"/>
<path d="M434.652 381.174C433.976 381.592 433.387 382.27 432.826 382.826C432.014 383.631 431.187 384.417 430.401 385.246C430.023 385.645 429.608 386.008 429.261 386.435C429.073 386.665 428.904 386.953 428.652 387.106C428.313 387.314 427.97 387.736 427.647 388C427.461 388.152 427.278 388.47 427.087 388.565" stroke="#E2E2E2" stroke-width="1.86716" stroke-linecap="round"/>
<path d="M438.392 380.478C438.541 380.523 438.639 380.705 438.73 380.816C439.141 381.32 439.562 381.814 439.971 382.319C441.134 383.753 442.484 385.039 443.87 386.256C444.945 387.199 446.074 388.208 447.261 389" stroke="#E2E2E2" stroke-width="1.86716" stroke-linecap="round"/>
<path d="M449 379C448.834 379.018 448.732 379.21 448.633 379.324C448.199 379.826 447.718 380.291 447.242 380.754C445.561 382.385 443.727 383.898 441.918 385.386C441.013 386.131 440.144 386.91 439.261 387.676C439.064 387.847 438.87 388.196 438.652 388.304" stroke="#E2E2E2" stroke-width="1.86716" stroke-linecap="round"/>
<path d="M427.392 401.36C434.112 401.376 440.83 401.636 447.55 401.653C448.624 401.656 448.624 399.99 447.55 399.987C440.83 399.97 434.112 399.71 427.392 399.694C426.317 399.692 426.317 401.358 427.392 401.36Z" fill="#E2E2E2"/>
<path d="M437.925 363.872C444.383 364.592 450.82 366.102 455.437 370.996C460.045 375.882 462.053 384.387 462.307 390.896C462.851 404.862 448.316 415.862 435.087 415.252C428.831 414.965 422.68 410.561 418.697 406.003C414.562 401.272 412.854 395.015 412.667 388.852C412.446 381.602 415.447 375.603 420.309 370.399C423.052 367.462 425.946 365.457 429.928 364.706C432.999 364.126 436.161 364.197 439.242 363.623C440.298 363.427 439.849 361.821 438.8 362.017C435.132 362.7 431.374 362.602 427.739 363.472C424.229 364.313 421.582 366.713 419.13 369.22C413.802 374.67 410.97 381.226 411 388.852C411.054 402.325 421.15 415.616 435.087 416.918C442.211 417.584 449.404 414.114 454.826 409.798C460.771 405.066 463.994 398.473 463.973 390.896C463.953 383.746 461.259 375.301 456.614 369.819C452.069 364.452 444.548 362.944 437.925 362.206C436.858 362.087 436.869 363.755 437.925 363.872Z" fill="#E2E2E2"/>
<path d="M775 888.435C775.037 888.6 775.313 888.758 775.42 888.865C776.092 889.536 776.734 890.204 777.464 890.816C778.027 891.29 778.609 891.783 779.13 892.304C779.821 892.995 780.501 893.828 781.087 894.609" stroke="#E2E2E2" stroke-width="1.86716" stroke-linecap="round"/>
<path d="M782.652 888.174C781.976 888.592 781.387 889.27 780.826 889.826C780.014 890.631 779.187 891.417 778.401 892.246C778.023 892.645 777.608 893.008 777.261 893.435C777.073 893.665 776.904 893.953 776.652 894.106C776.313 894.314 775.97 894.736 775.647 895C775.461 895.153 775.278 895.47 775.087 895.565" stroke="#E2E2E2" stroke-width="1.86716" stroke-linecap="round"/>
<path d="M786.392 887.478C786.541 887.523 786.639 887.705 786.73 887.816C787.141 888.32 787.562 888.814 787.971 889.319C789.134 890.753 790.484 892.039 791.87 893.256C792.945 894.199 794.074 895.208 795.261 896" stroke="#E2E2E2" stroke-width="1.86716" stroke-linecap="round"/>
<path d="M797 886C796.834 886.018 796.732 886.21 796.633 886.324C796.199 886.826 795.718 887.291 795.242 887.754C793.561 889.385 791.727 890.898 789.918 892.386C789.013 893.131 788.144 893.91 787.261 894.676C787.064 894.847 786.87 895.196 786.652 895.304" stroke="#E2E2E2" stroke-width="1.86716" stroke-linecap="round"/>
<path d="M775.392 908.36C782.112 908.376 788.83 908.636 795.55 908.653C796.624 908.656 796.624 906.99 795.55 906.987C788.83 906.97 782.112 906.71 775.392 906.694C774.317 906.692 774.317 908.358 775.392 908.36Z" fill="#E2E2E2"/>
<path d="M785.925 870.872C792.383 871.592 798.82 873.102 803.437 877.996C808.045 882.882 810.053 891.387 810.307 897.896C810.851 911.862 796.316 922.862 783.087 922.252C776.831 921.965 770.68 917.561 766.697 913.003C762.562 908.272 760.854 902.015 760.667 895.852C760.446 888.602 763.447 882.603 768.309 877.399C771.052 874.462 773.946 872.457 777.928 871.706C780.999 871.126 784.161 871.197 787.242 870.623C788.298 870.427 787.849 868.821 786.8 869.017C783.132 869.7 779.374 869.602 775.739 870.472C772.229 871.313 769.582 873.713 767.13 876.22C761.802 881.67 758.97 888.226 759 895.852C759.054 909.325 769.15 922.616 783.087 923.918C790.211 924.584 797.404 921.114 802.826 916.798C808.771 912.066 811.994 905.473 811.973 897.896C811.953 890.746 809.259 882.301 804.614 876.819C800.069 871.452 792.548 869.944 785.925 869.206C784.858 869.087 784.869 870.755 785.925 870.872Z" fill="#E2E2E2"/>
<path d="M1025.6 774.063C1035.68 774.086 1045.76 774.476 1055.85 774.502C1057.46 774.506 1057.46 772.006 1055.85 772.002C1045.76 771.976 1035.68 771.586 1025.6 771.563C1023.99 771.559 1023.99 774.059 1025.6 774.063Z" fill="#E2E2E2"/>
<path d="M1041.4 717.809C1051.09 718.889 1060.75 721.156 1067.68 728.5C1074.6 735.831 1077.61 748.594 1077.99 758.36C1078.81 779.318 1057 795.823 1037.14 794.909C1027.76 794.477 1018.53 787.869 1012.55 781.03C1006.34 773.931 1003.78 764.542 1003.5 755.294C1003.17 744.414 1007.67 735.413 1014.97 727.603C1019.09 723.196 1023.43 720.187 1029.4 719.06C1034.01 718.191 1038.76 718.297 1043.38 717.436C1044.96 717.141 1044.29 714.731 1042.72 715.025C1037.21 716.05 1031.57 715.903 1026.12 717.209C1020.85 718.471 1016.88 722.072 1013.2 725.834C1005.2 734.013 1000.96 743.85 1001 755.293C1001.08 775.51 1016.23 795.454 1037.14 797.408C1047.83 798.407 1058.63 793.201 1066.76 786.724C1075.69 779.623 1080.52 769.73 1080.49 758.36C1080.46 747.632 1076.42 734.959 1069.45 726.733C1062.63 718.68 1051.34 716.416 1041.4 715.309C1039.8 715.131 1039.82 717.633 1041.4 717.809Z" fill="#E2E2E2"/>
<path d="M1025.35 742.162C1025.41 742.428 1025.86 742.681 1026.03 742.853C1027.11 743.932 1028.14 745.005 1029.31 745.989C1030.22 746.749 1031.15 747.543 1031.99 748.38C1033.1 749.489 1034.19 750.828 1035.13 752.082" stroke="#E2E2E2" stroke-width="3" stroke-linecap="round"/>
<path d="M1037.65 741.743C1036.56 742.416 1035.61 743.504 1034.71 744.398C1033.41 745.691 1032.08 746.953 1030.82 748.286C1030.21 748.927 1029.54 749.511 1028.98 750.196C1028.68 750.566 1028.41 751.028 1028.01 751.275C1027.46 751.608 1026.91 752.287 1026.39 752.711C1026.09 752.956 1025.8 753.465 1025.49 753.619" stroke="#E2E2E2" stroke-width="3" stroke-linecap="round"/>
<path d="M1043.65 740.625C1043.89 740.698 1044.05 740.989 1044.2 741.169C1044.86 741.978 1045.53 742.772 1046.19 743.583C1048.06 745.888 1050.23 747.954 1052.46 749.909C1054.18 751.425 1056 753.045 1057.91 754.318" stroke="#E2E2E2" stroke-width="3" stroke-linecap="round"/>
<path d="M1060.7 738.25C1060.43 738.28 1060.27 738.587 1060.11 738.77C1059.41 739.578 1058.64 740.325 1057.87 741.068C1055.17 743.69 1052.23 746.12 1049.32 748.512C1047.87 749.708 1046.47 750.959 1045.05 752.191C1044.74 752.465 1044.42 753.025 1044.07 753.2" stroke="#E2E2E2" stroke-width="3" stroke-linecap="round"/>
<path d="M944 392.791C944.223 393.795 945.904 394.754 946.553 395.403C950.634 399.484 954.537 403.538 958.967 407.26C962.39 410.135 965.927 413.134 969.092 416.299C973.286 420.493 977.421 425.555 980.978 430.298" stroke="#E2E2E2" stroke-width="11.3429" stroke-linecap="round"/>
<path d="M990.487 391.206C986.38 393.749 982.798 397.866 979.393 401.243C974.463 406.135 969.436 410.906 964.661 415.946C962.367 418.368 959.845 420.576 957.735 423.166C956.593 424.567 955.564 426.312 954.037 427.245C951.974 428.506 949.893 431.071 947.933 432.675C946.8 433.601 945.691 435.527 944.528 436.108" stroke="#E2E2E2" stroke-width="11.3429" stroke-linecap="round"/>
<path d="M1013.2 386.98C1014.11 387.253 1014.7 388.357 1015.26 389.035C1017.75 392.093 1020.31 395.095 1022.8 398.162C1029.87 406.877 1038.06 414.689 1046.48 422.08C1053.01 427.811 1059.87 433.94 1067.08 438.75" stroke="#E2E2E2" stroke-width="11.3429" stroke-linecap="round"/>
<path d="M1077.65 378C1076.64 378.112 1076.02 379.274 1075.42 379.966C1072.78 383.019 1069.86 385.845 1066.97 388.653C1056.75 398.566 1045.62 407.754 1034.63 416.798C1029.13 421.321 1023.85 426.05 1018.48 430.708C1017.29 431.745 1016.11 433.863 1014.79 434.524" stroke="#E2E2E2" stroke-width="11.3429" stroke-linecap="round"/>
<path d="M952.288 495.986C984.387 496.059 1016.47 497.3 1048.57 497.383C1053.7 497.396 1053.7 489.439 1048.57 489.426C1016.47 489.343 984.387 488.102 952.288 488.029C947.158 488.016 947.158 495.973 952.288 495.986Z" fill="#E2E2E2"/>
<path d="M1002.59 316.94C1033.44 320.377 1064.18 327.593 1086.23 350.967C1108.24 374.301 1117.83 414.923 1119.04 446.006C1121.64 512.711 1052.22 565.244 989.041 562.335C959.16 560.96 929.786 539.928 910.759 518.16C891.01 495.566 882.853 465.682 881.961 436.248C880.908 401.619 895.24 372.97 918.459 348.112C931.562 334.086 945.382 324.509 964.399 320.922C979.066 318.156 994.168 318.493 1008.89 315.753C1013.93 314.814 1011.78 307.143 1006.77 308.079C989.257 311.341 971.306 310.873 953.947 315.03C937.18 319.047 924.538 330.508 912.831 342.482C887.382 368.514 873.858 399.823 874.001 436.244C874.256 500.591 922.479 564.069 989.041 570.288C1023.06 573.468 1057.42 556.898 1083.31 536.283C1111.71 513.682 1127.1 482.195 1127 446.006C1126.9 411.861 1114.04 371.525 1091.85 345.343C1070.15 319.712 1034.23 312.506 1002.59 308.983C997.497 308.416 997.551 316.38 1002.59 316.94Z" fill="#E2E2E2"/>
<path d="M108 35.4348C108.037 35.6001 108.313 35.7579 108.42 35.8647C109.092 36.5364 109.734 37.2038 110.464 37.8164C111.027 38.2897 111.609 38.7834 112.13 39.3044C112.821 39.9947 113.501 40.8281 114.087 41.6087" stroke="#E2E2E2" stroke-width="1.86716" stroke-linecap="round"/>
<path d="M115.652 35.1739C114.976 35.5924 114.387 36.2701 113.826 36.8261C113.014 37.6313 112.187 38.4166 111.401 39.2464C111.023 39.645 110.608 40.0085 110.261 40.4348C110.073 40.6654 109.904 40.9527 109.652 41.1063C109.313 41.3138 108.97 41.736 108.647 42C108.461 42.1525 108.278 42.4696 108.087 42.5652" stroke="#E2E2E2" stroke-width="1.86716" stroke-linecap="round"/>
<path d="M119.392 34.4783C119.541 34.5231 119.639 34.7048 119.73 34.8164C120.141 35.3198 120.562 35.8141 120.971 36.3189C122.134 37.7534 123.484 39.0393 124.87 40.2561C125.945 41.1995 127.074 42.2083 128.261 43" stroke="#E2E2E2" stroke-width="1.86716" stroke-linecap="round"/>
<path d="M130 33C129.834 33.0184 129.732 33.2097 129.633 33.3237C129.199 33.8261 128.718 34.2913 128.242 34.7536C126.561 36.3853 124.727 37.8979 122.918 39.3865C122.013 40.131 121.144 40.9096 120.261 41.6763C120.064 41.847 119.87 42.1957 119.652 42.3044" stroke="#E2E2E2" stroke-width="1.86716" stroke-linecap="round"/>
<path d="M108.392 55.3603C115.112 55.3757 121.83 55.6356 128.55 55.6529C129.624 55.6556 129.624 53.9895 128.55 53.9869C121.83 53.9695 115.112 53.7096 108.392 53.6943C107.317 53.6916 107.317 55.3577 108.392 55.3603Z" fill="#E2E2E2"/>
<path d="M118.925 17.8718C125.383 18.5916 131.82 20.1023 136.437 24.9965C141.045 29.882 143.053 38.3874 143.307 44.8956C143.851 58.8624 129.316 69.8615 116.087 69.2524C109.831 68.9645 103.68 64.5609 99.6967 60.0033C95.5616 55.2724 93.8535 49.0154 93.6669 42.8524C93.4464 35.6018 96.4472 29.6034 101.309 24.3987C104.052 21.4618 106.946 19.4566 110.928 18.7055C113.999 18.1264 117.161 18.197 120.242 17.6233C121.298 17.4267 120.849 15.8206 119.8 16.0165C116.132 16.6996 112.374 16.6016 108.739 17.472C105.229 18.313 102.582 20.7128 100.13 23.2198C94.8018 28.6704 91.9702 35.2259 92.0002 42.8517C92.0535 56.3246 102.15 69.6156 116.087 70.9178C123.211 71.5836 130.404 68.1142 135.826 63.7978C141.771 59.0656 144.994 52.4728 144.973 44.8956C144.953 37.7463 142.259 29.3009 137.614 23.8189C133.069 18.4523 125.548 16.9435 118.925 16.2058C117.858 16.0872 117.869 17.7545 118.925 17.8718Z" fill="#E2E2E2"/>
<path d="M1379.6 554.063C1389.68 554.086 1399.76 554.476 1409.85 554.502C1411.46 554.506 1411.46 552.006 1409.85 552.002C1399.76 551.976 1389.68 551.586 1379.6 551.563C1377.99 551.559 1377.99 554.059 1379.6 554.063Z" fill="#E2E2E2"/>
<path d="M1395.4 497.809C1405.09 498.889 1414.75 501.156 1421.68 508.5C1428.6 515.831 1431.61 528.594 1431.99 538.36C1432.81 559.318 1411 575.823 1391.14 574.909C1381.76 574.477 1372.53 567.869 1366.55 561.03C1360.34 553.931 1357.78 544.542 1357.5 535.294C1357.17 524.414 1361.67 515.413 1368.97 507.603C1373.09 503.196 1377.43 500.187 1383.4 499.06C1388.01 498.191 1392.76 498.297 1397.38 497.436C1398.96 497.141 1398.29 494.731 1396.72 495.025C1391.21 496.05 1385.57 495.903 1380.12 497.209C1374.85 498.471 1370.88 502.072 1367.2 505.834C1359.2 514.013 1354.96 523.85 1355 535.293C1355.08 555.51 1370.23 575.454 1391.14 577.408C1401.83 578.407 1412.63 573.201 1420.76 566.724C1429.69 559.623 1434.52 549.73 1434.49 538.36C1434.46 527.632 1430.42 514.959 1423.45 506.733C1416.63 498.68 1405.34 496.416 1395.4 495.309C1393.8 495.131 1393.82 497.633 1395.4 497.809Z" fill="#E2E2E2"/>
<path d="M1379.35 522.162C1379.41 522.428 1379.86 522.681 1380.03 522.853C1381.11 523.932 1382.14 525.005 1383.31 525.989C1384.22 526.749 1385.15 527.543 1385.99 528.38C1387.1 529.489 1388.19 530.828 1389.13 532.082" stroke="#E2E2E2" stroke-width="3" stroke-linecap="round"/>
<path d="M1391.65 521.743C1390.56 522.416 1389.61 523.504 1388.71 524.398C1387.41 525.691 1386.08 526.953 1384.82 528.286C1384.21 528.927 1383.54 529.511 1382.98 530.196C1382.68 530.566 1382.41 531.028 1382.01 531.275C1381.46 531.608 1380.91 532.287 1380.39 532.711C1380.09 532.956 1379.8 533.465 1379.49 533.619" stroke="#E2E2E2" stroke-width="3" stroke-linecap="round"/>
<path d="M1397.65 520.625C1397.89 520.698 1398.05 520.989 1398.2 521.169C1398.86 521.978 1399.53 522.772 1400.19 523.583C1402.06 525.888 1404.23 527.954 1406.46 529.909C1408.18 531.425 1410 533.045 1411.91 534.318" stroke="#E2E2E2" stroke-width="3" stroke-linecap="round"/>
<path d="M1414.7 518.25C1414.43 518.28 1414.27 518.587 1414.11 518.77C1413.41 519.578 1412.64 520.325 1411.87 521.068C1409.17 523.69 1406.23 526.12 1403.32 528.512C1401.87 529.708 1400.47 530.959 1399.05 532.191C1398.74 532.465 1398.42 533.025 1398.07 533.2" stroke="#E2E2E2" stroke-width="3" stroke-linecap="round"/>
<path d="M1379.6 554.063C1389.68 554.086 1399.76 554.476 1409.85 554.502C1411.46 554.506 1411.46 552.006 1409.85 552.002C1399.76 551.976 1389.68 551.586 1379.6 551.563C1377.99 551.559 1377.99 554.059 1379.6 554.063Z" fill="#E2E2E2"/>
<path d="M1395.4 497.809C1405.09 498.889 1414.75 501.156 1421.68 508.5C1428.6 515.831 1431.61 528.594 1431.99 538.36C1432.81 559.318 1411 575.823 1391.14 574.909C1381.76 574.477 1372.53 567.869 1366.55 561.03C1360.34 553.931 1357.78 544.542 1357.5 535.294C1357.17 524.414 1361.67 515.413 1368.97 507.603C1373.09 503.196 1377.43 500.187 1383.4 499.06C1388.01 498.191 1392.76 498.297 1397.38 497.436C1398.96 497.141 1398.29 494.731 1396.72 495.025C1391.21 496.05 1385.57 495.903 1380.12 497.209C1374.85 498.471 1370.88 502.072 1367.2 505.834C1359.2 514.013 1354.96 523.85 1355 535.293C1355.08 555.51 1370.23 575.454 1391.14 577.408C1401.83 578.407 1412.63 573.201 1420.76 566.724C1429.69 559.623 1434.52 549.73 1434.49 538.36C1434.46 527.632 1430.42 514.959 1423.45 506.733C1416.63 498.68 1405.34 496.416 1395.4 495.309C1393.8 495.131 1393.82 497.633 1395.4 497.809Z" fill="#E2E2E2"/>
<path d="M1379.35 522.162C1379.41 522.428 1379.86 522.681 1380.03 522.853C1381.11 523.932 1382.14 525.005 1383.31 525.989C1384.22 526.749 1385.15 527.543 1385.99 528.38C1387.1 529.489 1388.19 530.828 1389.13 532.082" stroke="#E2E2E2" stroke-width="3" stroke-linecap="round"/>
<path d="M1391.65 521.743C1390.56 522.416 1389.61 523.504 1388.71 524.398C1387.41 525.691 1386.08 526.953 1384.82 528.286C1384.21 528.927 1383.54 529.511 1382.98 530.196C1382.68 530.566 1382.41 531.028 1382.01 531.275C1381.46 531.608 1380.91 532.287 1380.39 532.711C1380.09 532.956 1379.8 533.465 1379.49 533.619" stroke="#E2E2E2" stroke-width="3" stroke-linecap="round"/>
<path d="M1397.65 520.625C1397.89 520.698 1398.05 520.989 1398.2 521.169C1398.86 521.978 1399.53 522.772 1400.19 523.583C1402.06 525.888 1404.23 527.954 1406.46 529.909C1408.18 531.425 1410 533.045 1411.91 534.318" stroke="#E2E2E2" stroke-width="3" stroke-linecap="round"/>
<path d="M1414.7 518.25C1414.43 518.28 1414.27 518.587 1414.11 518.77C1413.41 519.578 1412.64 520.325 1411.87 521.068C1409.17 523.69 1406.23 526.12 1403.32 528.512C1401.87 529.708 1400.47 530.959 1399.05 532.191C1398.74 532.465 1398.42 533.025 1398.07 533.2" stroke="#E2E2E2" stroke-width="3" stroke-linecap="round"/>
<path d="M1379.6 554.063C1389.68 554.086 1399.76 554.476 1409.85 554.502C1411.46 554.506 1411.46 552.006 1409.85 552.002C1399.76 551.976 1389.68 551.586 1379.6 551.563C1377.99 551.559 1377.99 554.059 1379.6 554.063Z" fill="#E2E2E2"/>
<path d="M1395.4 497.809C1405.09 498.889 1414.75 501.156 1421.68 508.5C1428.6 515.831 1431.61 528.594 1431.99 538.36C1432.81 559.318 1411 575.823 1391.14 574.909C1381.76 574.477 1372.53 567.869 1366.55 561.03C1360.34 553.931 1357.78 544.542 1357.5 535.294C1357.17 524.414 1361.67 515.413 1368.97 507.603C1373.09 503.196 1377.43 500.187 1383.4 499.06C1388.01 498.191 1392.76 498.297 1397.38 497.436C1398.96 497.141 1398.29 494.731 1396.72 495.025C1391.21 496.05 1385.57 495.903 1380.12 497.209C1374.85 498.471 1370.88 502.072 1367.2 505.834C1359.2 514.013 1354.96 523.85 1355 535.293C1355.08 555.51 1370.23 575.454 1391.14 577.408C1401.83 578.407 1412.63 573.201 1420.76 566.724C1429.69 559.623 1434.52 549.73 1434.49 538.36C1434.46 527.632 1430.42 514.959 1423.45 506.733C1416.63 498.68 1405.34 496.416 1395.4 495.309C1393.8 495.131 1393.82 497.633 1395.4 497.809Z" fill="#E2E2E2"/>
<path d="M1379.35 522.162C1379.41 522.428 1379.86 522.681 1380.03 522.853C1381.11 523.932 1382.14 525.005 1383.31 525.989C1384.22 526.749 1385.15 527.543 1385.99 528.38C1387.1 529.489 1388.19 530.828 1389.13 532.082" stroke="#E2E2E2" stroke-width="3" stroke-linecap="round"/>
<path d="M1391.65 521.743C1390.56 522.416 1389.61 523.504 1388.71 524.398C1387.41 525.691 1386.08 526.953 1384.82 528.286C1384.21 528.927 1383.54 529.511 1382.98 530.196C1382.68 530.566 1382.41 531.028 1382.01 531.275C1381.46 531.608 1380.91 532.287 1380.39 532.711C1380.09 532.956 1379.8 533.465 1379.49 533.619" stroke="#E2E2E2" stroke-width="3" stroke-linecap="round"/>
<path d="M1397.65 520.625C1397.89 520.698 1398.05 520.989 1398.2 521.169C1398.86 521.978 1399.53 522.772 1400.19 523.583C1402.06 525.888 1404.23 527.954 1406.46 529.909C1408.18 531.425 1410 533.045 1411.91 534.318" stroke="#E2E2E2" stroke-width="3" stroke-linecap="round"/>
<path d="M1414.7 518.25C1414.43 518.28 1414.27 518.587 1414.11 518.77C1413.41 519.578 1412.64 520.325 1411.87 521.068C1409.17 523.69 1406.23 526.12 1403.32 528.512C1401.87 529.708 1400.47 530.959 1399.05 532.191C1398.74 532.465 1398.42 533.025 1398.07 533.2" stroke="#E2E2E2" stroke-width="3" stroke-linecap="round"/>
<path d="M403.598 921.063C413.683 921.086 423.763 921.476 433.847 921.502C435.459 921.506 435.459 919.006 433.847 919.002C423.763 918.976 413.683 918.586 403.598 918.563C401.986 918.559 401.986 921.059 403.598 921.063Z" fill="#E2E2E2"/>
<path d="M419.402 864.809C429.093 865.889 438.752 868.156 445.68 875.5C452.595 882.831 455.608 895.594 455.989 905.36C456.806 926.318 434.995 942.823 415.144 941.909C405.756 941.477 396.527 934.869 390.549 928.03C384.344 920.931 381.781 911.542 381.501 902.294C381.17 891.414 385.673 882.413 392.968 874.603C397.085 870.196 401.427 867.187 407.402 866.06C412.01 865.191 416.755 865.297 421.379 864.436C422.963 864.141 422.29 861.731 420.715 862.025C415.212 863.05 409.572 862.903 404.118 864.209C398.85 865.471 394.878 869.072 391.2 872.834C383.204 881.013 378.955 890.85 379 902.293C379.08 922.51 394.231 942.454 415.144 944.408C425.834 945.407 436.627 940.201 444.763 933.724C453.685 926.623 458.52 916.73 458.489 905.36C458.459 894.632 454.416 881.959 447.447 873.733C440.627 865.68 429.341 863.416 419.402 862.309C417.801 862.131 417.818 864.633 419.402 864.809Z" fill="#E2E2E2"/>
<path d="M403.352 889.162C403.411 889.428 403.855 889.681 404.027 889.853C405.106 890.932 406.138 892.005 407.31 892.989C408.215 893.749 409.151 894.543 409.988 895.38C411.097 896.489 412.191 897.828 413.132 899.082" stroke="#E2E2E2" stroke-width="3" stroke-linecap="round"/>
<path d="M415.646 888.743C414.56 889.416 413.613 890.504 412.712 891.398C411.408 892.691 410.079 893.953 408.816 895.286C408.209 895.927 407.542 896.511 406.984 897.196C406.682 897.566 406.41 898.028 406.006 898.275C405.461 898.608 404.91 899.287 404.392 899.711C404.092 899.956 403.799 900.465 403.491 900.619" stroke="#E2E2E2" stroke-width="3" stroke-linecap="round"/>
<path d="M421.654 887.625C421.894 887.698 422.051 887.989 422.198 888.169C422.858 888.978 423.535 889.772 424.192 890.583C426.061 892.888 428.229 894.954 430.456 896.909C432.183 898.425 433.997 900.045 435.905 901.318" stroke="#E2E2E2" stroke-width="3" stroke-linecap="round"/>
<path d="M438.699 885.25C438.433 885.28 438.268 885.587 438.109 885.77C437.411 886.578 436.639 887.325 435.874 888.068C433.173 890.69 430.227 893.12 427.32 895.512C425.866 896.708 424.471 897.959 423.051 899.191C422.735 899.465 422.423 900.025 422.073 900.2" stroke="#E2E2E2" stroke-width="3" stroke-linecap="round"/>
<path d="M1123 13.7913C1123.22 14.7953 1124.9 15.7539 1125.55 16.4032C1129.63 20.4838 1133.54 24.5382 1137.97 28.2597C1141.39 31.1349 1144.93 34.1338 1148.09 37.2987C1152.29 41.4928 1156.42 46.5551 1159.98 51.2976" stroke="#E2E2E2" stroke-width="11.3429" stroke-linecap="round"/>
<path d="M1169.49 12.2064C1165.38 14.749 1161.8 18.8655 1158.39 22.2433C1153.46 27.1349 1148.44 31.9057 1143.66 36.9465C1141.37 39.368 1138.85 41.5762 1136.73 44.166C1135.59 45.5668 1134.56 47.312 1133.04 48.2453C1130.97 49.5059 1128.89 52.0707 1126.93 53.6747C1125.8 54.601 1124.69 56.5271 1123.53 57.1083" stroke="#E2E2E2" stroke-width="11.3429" stroke-linecap="round"/>
<path d="M1192.2 7.98041C1193.11 8.2527 1193.7 9.35668 1194.26 10.0347C1196.75 13.0929 1199.31 16.0953 1201.8 19.1619C1208.87 27.8769 1217.06 35.6885 1225.48 43.0802C1232.01 48.8113 1238.87 54.9401 1246.08 59.7497" stroke="#E2E2E2" stroke-width="11.3429" stroke-linecap="round"/>
<path d="M1256.65 -1C1255.64 -0.887928 1255.02 0.273663 1254.42 0.966293C1251.78 4.01851 1248.86 6.84455 1245.97 9.6532C1235.75 19.5657 1224.62 28.7544 1213.63 37.7976C1208.13 42.3206 1202.85 47.0504 1197.48 51.7084C1196.29 52.7452 1195.11 54.8633 1193.79 55.5236" stroke="#E2E2E2" stroke-width="11.3429" stroke-linecap="round"/>
<path d="M1131.29 116.986C1163.39 117.059 1195.47 118.3 1227.57 118.383C1232.7 118.396 1232.7 110.439 1227.57 110.426C1195.47 110.343 1163.39 109.102 1131.29 109.029C1126.16 109.016 1126.16 116.973 1131.29 116.986Z" fill="#E2E2E2"/>
<path d="M1181.59 -62.0601C1212.44 -58.6227 1243.18 -51.4072 1265.23 -28.0327C1287.24 -4.69948 1296.83 35.9227 1298.04 67.0061C1300.64 133.711 1231.22 186.244 1168.04 183.335C1138.16 181.96 1108.79 160.928 1089.76 139.16C1070.01 116.566 1061.85 86.6822 1060.96 57.2476C1059.91 22.6186 1074.24 -6.0299 1097.46 -30.8876C1110.56 -44.9143 1124.38 -54.4914 1143.4 -58.0784C1158.07 -60.8443 1173.17 -60.5069 1187.89 -63.2473C1192.93 -64.1862 1190.78 -71.8568 1185.77 -70.921C1168.26 -67.6587 1150.31 -68.1265 1132.95 -63.9698C1116.18 -59.9531 1103.54 -48.4918 1091.83 -36.518C1066.38 -10.4858 1052.86 20.8235 1053 57.2444C1053.26 121.591 1101.48 185.069 1168.04 191.288C1202.06 194.468 1236.42 177.898 1262.31 157.283C1290.71 134.682 1306.1 103.195 1306 67.0061C1305.9 32.8609 1293.04 -7.47489 1270.85 -33.6567C1249.15 -59.2879 1213.23 -66.4937 1181.59 -70.0171C1176.5 -70.5837 1176.55 -62.6203 1181.59 -62.0601Z" fill="#E2E2E2"/>
<path d="M837.598 274.063C847.683 274.086 857.763 274.476 867.847 274.502C869.459 274.506 869.459 272.006 867.847 272.002C857.763 271.976 847.683 271.586 837.598 271.563C835.986 271.559 835.986 274.059 837.598 274.063Z" fill="#E2E2E2"/>
<path d="M853.402 217.809C863.093 218.889 872.752 221.156 879.68 228.5C886.595 235.831 889.608 248.594 889.989 258.36C890.806 279.318 868.995 295.823 849.144 294.909C839.756 294.477 830.527 287.869 824.549 281.03C818.344 273.931 815.781 264.542 815.501 255.294C815.17 244.414 819.673 235.413 826.968 227.603C831.085 223.196 835.427 220.187 841.402 219.06C846.01 218.191 850.755 218.297 855.379 217.436C856.963 217.141 856.29 214.731 854.715 215.025C849.212 216.05 843.572 215.903 838.118 217.209C832.85 218.471 828.878 222.072 825.2 225.834C817.204 234.013 812.955 243.85 813 255.293C813.08 275.51 828.231 295.454 849.144 297.408C859.834 298.407 870.627 293.201 878.763 286.724C887.685 279.623 892.52 269.73 892.489 258.36C892.459 247.632 888.416 234.959 881.447 226.733C874.627 218.68 863.341 216.416 853.402 215.309C851.801 215.131 851.818 217.633 853.402 217.809Z" fill="#E2E2E2"/>
<path d="M837.352 242.162C837.411 242.428 837.855 242.681 838.027 242.853C839.106 243.932 840.138 245.005 841.31 245.989C842.215 246.749 843.151 247.543 843.988 248.38C845.097 249.489 846.191 250.828 847.132 252.082" stroke="#E2E2E2" stroke-width="3" stroke-linecap="round"/>
<path d="M849.646 241.743C848.56 242.416 847.613 243.504 846.712 244.398C845.408 245.691 844.079 246.953 842.816 248.286C842.209 248.927 841.542 249.511 840.984 250.196C840.682 250.566 840.41 251.028 840.006 251.275C839.461 251.608 838.91 252.287 838.392 252.711C838.092 252.956 837.799 253.465 837.491 253.619" stroke="#E2E2E2" stroke-width="3" stroke-linecap="round"/>
<path d="M855.654 240.625C855.894 240.698 856.051 240.989 856.198 241.169C856.858 241.978 857.535 242.772 858.192 243.583C860.061 245.888 862.229 247.954 864.456 249.909C866.183 251.425 867.997 253.045 869.905 254.318" stroke="#E2E2E2" stroke-width="3" stroke-linecap="round"/>
<path d="M872.699 238.25C872.433 238.28 872.268 238.587 872.109 238.77C871.411 239.578 870.639 240.325 869.874 241.068C867.173 243.69 864.227 246.12 861.32 248.512C859.866 249.708 858.471 250.959 857.051 252.191C856.735 252.465 856.423 253.025 856.073 253.2" stroke="#E2E2E2" stroke-width="3" stroke-linecap="round"/>
<path d="M85 655.791C85.2231 656.795 86.9039 657.754 87.5532 658.403C91.6339 662.484 95.537 666.538 99.9673 670.26C103.39 673.135 106.927 676.134 110.092 679.299C114.286 683.493 118.421 688.555 121.978 693.298" stroke="#E2E2E2" stroke-width="11.3429" stroke-linecap="round"/>
<path d="M131.487 654.206C127.38 656.749 123.798 660.866 120.393 664.243C115.463 669.135 110.436 673.906 105.661 678.946C103.367 681.368 100.845 683.576 98.7348 686.166C97.5934 687.567 96.5642 689.312 95.037 690.245C92.9743 691.506 90.893 694.071 88.9326 695.675C87.8005 696.601 86.6908 698.527 85.5283 699.108" stroke="#E2E2E2" stroke-width="11.3429" stroke-linecap="round"/>
<path d="M154.202 649.98C155.11 650.253 155.703 651.357 156.256 652.035C158.752 655.093 161.312 658.095 163.799 661.162C170.865 669.877 179.061 677.689 187.482 685.08C194.011 690.811 200.87 696.94 208.084 701.75" stroke="#E2E2E2" stroke-width="11.3429" stroke-linecap="round"/>
<path d="M218.649 641C217.64 641.112 217.017 642.274 216.418 642.966C213.779 646.019 210.86 648.845 207.966 651.653C197.753 661.566 186.616 670.754 175.625 679.798C170.128 684.321 164.851 689.05 159.484 693.708C158.289 694.745 157.107 696.863 155.786 697.524" stroke="#E2E2E2" stroke-width="11.3429" stroke-linecap="round"/>
<path d="M93.2884 758.986C125.387 759.059 157.47 760.3 189.565 760.383C194.696 760.396 194.696 752.439 189.565 752.426C157.47 752.343 125.387 751.102 93.2884 751.029C88.1578 751.016 88.1578 758.973 93.2884 758.986Z" fill="#E2E2E2"/>
<path d="M143.593 579.94C174.438 583.377 205.18 590.593 227.231 613.967C249.24 637.301 258.83 677.923 260.043 709.006C262.643 775.711 193.223 828.244 130.041 825.335C100.16 823.96 70.7862 802.928 51.7594 781.16C32.0101 758.566 23.8525 728.682 22.9613 699.248C21.9078 664.619 36.24 635.97 59.4586 611.112C72.5622 597.086 86.382 587.509 105.399 583.922C120.066 581.156 135.168 581.493 149.885 578.753C154.927 577.814 152.785 570.143 147.772 571.079C130.257 574.341 112.306 573.873 94.947 578.03C78.1799 582.047 65.5378 593.508 53.8314 605.482C28.3817 631.514 14.8579 662.823 15.0011 699.244C15.2558 763.591 63.4785 827.069 130.041 833.288C164.065 836.468 198.417 819.898 224.312 799.283C252.709 776.682 268.098 745.195 268 709.006C267.904 674.861 255.036 634.525 232.855 608.343C211.148 582.712 175.227 575.506 143.593 571.983C138.497 571.416 138.551 579.38 143.593 579.94Z" fill="#E2E2E2"/>
<path d="M1311.59 935.94C1342.44 939.377 1373.18 946.593 1395.23 969.967C1417.24 993.301 1426.83 1033.92 1428.04 1065.01C1430.64 1131.71 1361.22 1184.24 1298.04 1181.33C1268.16 1179.96 1238.79 1158.93 1219.76 1137.16C1200.01 1114.57 1191.85 1084.68 1190.96 1055.25C1189.91 1020.62 1204.24 991.97 1227.46 967.112C1240.56 953.086 1254.38 943.509 1273.4 939.922C1288.07 937.156 1303.17 937.493 1317.89 934.753C1322.93 933.814 1320.78 926.143 1315.77 927.079C1298.26 930.341 1280.31 929.873 1262.95 934.03C1246.18 938.047 1233.54 949.508 1221.83 961.482C1196.38 987.514 1182.86 1018.82 1183 1055.24C1183.26 1119.59 1231.48 1183.07 1298.04 1189.29C1332.06 1192.47 1366.42 1175.9 1392.31 1155.28C1420.71 1132.68 1436.1 1101.19 1436 1065.01C1435.9 1030.86 1423.04 990.525 1400.85 964.343C1379.15 938.712 1343.23 931.506 1311.59 927.983C1306.5 927.416 1306.55 935.38 1311.59 935.94Z" fill="#E2E2E2"/>
<path d="M1399 741.435C1399.04 741.6 1399.31 741.758 1399.42 741.865C1400.09 742.536 1400.73 743.204 1401.46 743.816C1402.03 744.29 1402.61 744.783 1403.13 745.304C1403.82 745.995 1404.5 746.828 1405.09 747.609" stroke="#E2E2E2" stroke-width="1.86716" stroke-linecap="round"/>
<path d="M1406.65 741.174C1405.98 741.592 1405.39 742.27 1404.83 742.826C1404.01 743.631 1403.19 744.417 1402.4 745.246C1402.02 745.645 1401.61 746.008 1401.26 746.435C1401.07 746.665 1400.9 746.953 1400.65 747.106C1400.31 747.314 1399.97 747.736 1399.65 748C1399.46 748.152 1399.28 748.47 1399.09 748.565" stroke="#E2E2E2" stroke-width="1.86716" stroke-linecap="round"/>
<path d="M1410.39 740.478C1410.54 740.523 1410.64 740.705 1410.73 740.816C1411.14 741.32 1411.56 741.814 1411.97 742.319C1413.13 743.753 1414.48 745.039 1415.87 746.256C1416.94 747.199 1418.07 748.208 1419.26 749" stroke="#E2E2E2" stroke-width="1.86716" stroke-linecap="round"/>
<path d="M1421 739C1420.83 739.018 1420.73 739.21 1420.63 739.324C1420.2 739.826 1419.72 740.291 1419.24 740.754C1417.56 742.385 1415.73 743.898 1413.92 745.386C1413.01 746.131 1412.14 746.91 1411.26 747.676C1411.06 747.847 1410.87 748.196 1410.65 748.304" stroke="#E2E2E2" stroke-width="1.86716" stroke-linecap="round"/>
<path d="M1399.39 761.36C1406.11 761.376 1412.83 761.636 1419.55 761.653C1420.62 761.656 1420.62 759.99 1419.55 759.987C1412.83 759.97 1406.11 759.71 1399.39 759.694C1398.32 759.692 1398.32 761.358 1399.39 761.36Z" fill="#E2E2E2"/>
<path d="M1409.92 723.872C1416.38 724.592 1422.82 726.102 1427.44 730.996C1432.05 735.882 1434.05 744.387 1434.31 750.896C1434.85 764.862 1420.32 775.862 1407.09 775.252C1400.83 774.965 1394.68 770.561 1390.7 766.003C1386.56 761.272 1384.85 755.015 1384.67 748.852C1384.45 741.602 1387.45 735.603 1392.31 730.399C1395.05 727.462 1397.95 725.457 1401.93 724.706C1405 724.126 1408.16 724.197 1411.24 723.623C1412.3 723.427 1411.85 721.821 1410.8 722.017C1407.13 722.7 1403.37 722.602 1399.74 723.472C1396.23 724.313 1393.58 726.713 1391.13 729.22C1385.8 734.67 1382.97 741.226 1383 748.852C1383.05 762.325 1393.15 775.616 1407.09 776.918C1414.21 777.584 1421.4 774.114 1426.83 769.798C1432.77 765.066 1435.99 758.473 1435.97 750.896C1435.95 743.746 1433.26 735.301 1428.61 729.819C1424.07 724.452 1416.55 722.944 1409.92 722.206C1408.86 722.087 1408.87 723.755 1409.92 723.872Z" fill="#E2E2E2"/>
<path d="M53.5977 414.063C63.6827 414.086 73.7627 414.476 83.8467 414.502C85.4587 414.506 85.4587 412.006 83.8467 412.002C73.7627 411.976 63.6827 411.586 53.5977 411.563C51.9857 411.559 51.9857 414.059 53.5977 414.063Z" fill="#E2E2E2"/>
<path d="M69.4024 357.809C79.0934 358.889 88.7523 361.156 95.6804 368.5C102.595 375.831 105.608 388.594 105.989 398.36C106.806 419.318 84.9954 435.823 65.1444 434.909C55.7564 434.477 46.5274 427.869 40.5494 421.03C34.3444 413.931 31.7814 404.542 31.5014 395.294C31.1704 384.414 35.6734 375.413 42.9684 367.603C47.0854 363.196 51.4274 360.187 57.4024 359.06C62.0104 358.191 66.7554 358.297 71.3794 357.436C72.9634 357.141 72.2904 354.731 70.7154 355.025C65.2124 356.05 59.5724 355.903 54.1184 357.209C48.8504 358.471 44.8784 362.072 41.2004 365.834C33.2044 374.013 28.9554 383.85 29.0004 395.293C29.0804 415.51 44.2314 435.454 65.1444 437.408C75.8344 438.407 86.6273 433.201 94.7634 426.724C103.685 419.623 108.52 409.73 108.489 398.36C108.459 387.632 104.416 374.959 97.4474 366.733C90.6274 358.68 79.3414 356.416 69.4024 355.309C67.8014 355.131 67.8184 357.633 69.4024 357.809Z" fill="#E2E2E2"/>
<path d="M53.3516 382.162C53.4106 382.428 53.8551 382.681 54.0268 382.853C55.1061 383.932 56.1384 385.005 57.3101 385.989C58.2155 386.749 59.1509 387.543 59.988 388.38C61.0973 389.489 62.1909 390.828 63.1316 392.082" stroke="#E2E2E2" stroke-width="3" stroke-linecap="round"/>
<path d="M65.6464 381.743C64.5601 382.416 63.6129 383.504 62.7124 384.398C61.4083 385.691 60.0789 386.953 58.8159 388.286C58.2092 388.927 57.5422 389.511 56.9841 390.196C56.6822 390.566 56.41 391.028 56.0061 391.275C55.4605 391.608 54.9101 392.287 54.3916 392.711C54.0922 392.956 53.7987 393.465 53.4912 393.619" stroke="#E2E2E2" stroke-width="3" stroke-linecap="round"/>
<path d="M71.6543 380.625C71.8944 380.698 72.0513 380.989 72.1976 381.169C72.8577 381.978 73.5348 382.772 74.1924 383.583C76.0613 385.888 78.2291 387.954 80.4563 389.909C82.1831 391.425 83.9971 393.045 85.9052 394.318" stroke="#E2E2E2" stroke-width="3" stroke-linecap="round"/>
<path d="M88.6993 378.25C88.4325 378.28 88.2678 378.587 88.1094 378.77C87.4112 379.578 86.6393 380.325 85.8739 381.068C83.1728 383.69 80.2272 386.12 77.3203 388.512C75.8664 389.708 74.4707 390.959 73.0512 392.191C72.7353 392.465 72.4225 393.025 72.0732 393.2" stroke="#E2E2E2" stroke-width="3" stroke-linecap="round"/>
</g>
<defs>
<clipPath id="clip0_26_498">
<rect width="1512" height="982" fill="white"/>
</clipPath>
</defs>
</svg>