<svg xmlns="http://www.w3.org/2000/svg" width="265" height="669" viewBox="0 0 265 669" fill="none">
<path fill-rule="evenodd" clip-rule="evenodd" d="M2.58755 624.274C2.68329 619.266 2.92349 614.08 2.88031 609.134C2.85217 605.707 2.55191 602.342 2.37927 599.007C2.05087 592.688 1.72437 586.366 1.39597 580.043C1.26083 577.428 1.1745 575.302 1.29086 572.587C1.56107 566.221 1.8313 559.86 2.10153 553.494C2.28168 549.284 2.61194 544.877 2.64572 540.715C2.6795 536.399 2.40366 532.107 2.28357 527.878C2.11279 521.813 1.94391 515.743 1.77127 509.678C1.51794 500.593 1.89322 491.021 2.00769 481.754C2.21786 464.45 2.17096 447.118 1.52542 430.29C1.27585 423.789 1.02625 417.284 0.778534 410.781C0.675323 408.107 0.542114 405.766 0.714752 402.996C1.10883 396.73 1.50104 390.462 1.89511 384.196C2.18411 379.588 2.65887 374.749 2.77335 370.185C2.8728 366.207 2.66827 362.22 2.61575 358.32C2.52942 352.066 2.44308 345.814 2.35675 339.561C2.23291 330.472 1.9852 321.445 1.78629 312.398C1.41095 295.384 0.988708 278.254 1.33588 260.875C1.46725 254.227 1.60046 247.577 1.7337 240.927C1.79001 238.095 1.92139 235.242 1.78815 232.514C1.50479 226.772 1.22516 221.026 0.943695 215.285C0.714752 210.614 0.0391541 146.281 0.00161743 141.485C-0.0265198 137.956 0.318756 134.054 0.482025 130.456C0.776642 123.933 1.07312 117.411 1.36963 110.891C1.77872 101.858 1.37903 93.0828 1.25143 84.2857C1.19327 80.3109 1.13507 6.91462 1.0769 2.93976C1.05252 1.26179 1.87634 3.12997 2.4393 2.93976C7.09509 1.36549 11.7509 4.51546 16.4048 2.93976C16.722 2.83462 17.0466 3.0038 17.3618 2.93976C17.3656 2.93881 17.3694 2.94072 17.3731 2.93976C18.0468 2.44081 18.7411 3.36272 19.413 2.93976C22.3423 1.09308 25.2735 4.78597 28.2029 2.93976C32.0423 0.521489 35.8762 5.47799 39.7101 2.93976C42.1102 1.35211 44.5085 4.47819 46.9105 2.93976C48.4005 1.98344 49.9037 3.26953 51.3824 2.93976C54.3005 2.28931 57.2204 3.59164 60.1404 2.93976C60.9417 2.76198 61.8068 2.95649 62.6043 2.93976C62.8089 2.74286 63.0735 3.07597 63.2424 2.93976C67.947 -0.893632 72.6872 6.22164 77.4205 2.93976C79.1759 1.72393 81.0844 3.42151 82.8262 2.93976C85.6651 2.1555 88.5047 3.72451 91.3436 2.93976C95.3287 1.83577 99.3559 4.70185 103.356 2.93976H107.089C107.335 2.83175 107.582 3.04538 107.829 2.93976C108.491 2.18369 109.316 3.44731 109.993 2.93976C111.443 1.84963 112.892 4.02799 114.341 2.93976C116.905 1.01088 119.468 4.8653 122.03 2.93976C123.401 1.90985 124.739 3.39904 126.113 2.93976C130.363 1.51795 134.885 4.80126 139.145 2.93976C143.958 0.837871 148.799 4.70854 153.606 2.93976C153.613 2.93642 153.616 2.94311 153.623 2.93976C153.812 2.82984 154.002 3.04968 154.191 2.93976C155.384 2.23865 156.578 3.64135 157.771 2.93976C160.63 1.26083 163.489 4.61822 166.348 2.93976C170.449 0.529613 174.533 4.26886 178.622 2.93976C179.929 2.51556 181.235 3.36492 182.54 2.93976C182.899 2.82377 183.26 3.0352 183.617 2.93976C183.635 2.93551 183.643 2.94311 183.659 2.93976C184.208 2.41405 184.896 3.27383 185.424 2.93976C186.81 2.06722 188.195 3.81378 189.581 2.93976C193.618 0.393358 197.629 4.5883 201.671 2.93976C205.969 1.18661 210.269 4.83768 214.57 2.93976C219.324 0.84265 224.093 4.80312 228.843 2.93976C228.992 2.703 229.362 3.04792 229.495 2.93976H232.966C235.822 0.579747 238.678 5.29834 241.534 2.93976C242.897 1.81498 244.093 3.26551 245.461 2.93976C248.193 2.28664 250.925 3.58997 253.658 2.93976C255.47 2.50696 257.283 3.37252 259.095 2.93976C260.531 2.59752 263.405 -0.962787 263.546 2.93976C263.916 13.121 264.285 -7.24323 264.654 2.93976C264.753 5.6434 264.585 0.126727 264.467 2.93976C264.191 9.57807 263.914 -3.69854 263.639 2.93976C263.508 6.08113 263.281 -0.151423 263.285 2.93976C263.294 8.45066 263.406 86.7984 263.466 92.2825C263.559 100.814 263.658 109.313 263.867 117.779C264.09 126.866 264.457 135.921 264.488 145.121C264.524 155.645 264.563 166.168 264.596 176.695C264.628 187.17 264.652 197.652 264.682 208.13C264.706 217.295 264.371 226.671 264.187 235.928C263.841 253.243 263.838 270.41 263.491 287.726C263.306 297.063 262.824 306.756 263.007 315.919C263.22 326.475 263.59 336.998 263.644 347.64C263.696 357.873 263.396 368.344 263.271 378.657C263.161 387.762 263.405 396.727 263.512 405.72C263.714 422.795 263.893 439.901 264.331 456.836C264.504 463.496 264.676 470.156 264.849 476.817C264.918 479.498 265.061 482.155 264.971 484.917C264.613 495.895 264.147 506.94 263.895 517.884C263.66 528.117 263.689 538.282 263.588 548.457C263.499 557.427 264.044 566.13 264.356 574.867C264.498 578.795 264.639 595.067 264.781 598.996C264.842 600.716 263.948 601.232 263.418 601.49C258.745 603.77 254.073 606.05 249.399 608.325C245.394 610.279 241.381 611.35 237.384 612.76C236.19 613.18 234.996 613.601 233.802 614.026C233.541 614.117 233.243 614.303 232.985 614.313C232.976 614.313 232.972 614.313 232.965 614.313C230.771 615.622 228.575 616.841 226.381 618.108C222.439 620.378 218.507 622.686 214.563 624.65C205.578 629.124 196.604 633.439 187.621 637.416C179.187 641.148 170.78 622.136 162.343 626.246C158.577 628.081 154.819 630.036 151.053 632.058C148.364 633.501 145.675 634.949 142.986 636.387L142.659 636.564C142.625 636.593 142.584 636.626 142.524 636.669C141.632 637.348 140.727 637.888 139.832 638.495C136.845 640.517 133.859 642.538 130.872 644.56C129.479 645.506 128.08 646.586 126.68 647.212C121.859 649.368 117.039 651.346 112.219 653.425C103.878 657.019 95.5406 638.074 87.2016 641.501C83.4239 643.054 79.7008 644.822 75.9206 646.805C73.192 648.239 70.4616 649.668 67.7331 651.102C67.5454 651.198 67.3577 651.298 67.1701 651.398C67.1607 651.408 67.1551 651.413 67.1419 651.427C66.3388 652.211 65.4455 652.631 64.6273 653.21C61.683 655.298 58.7405 645.053 55.7961 647.141C54.3286 648.178 52.7805 649.627 51.3036 650.09C48.926 650.836 46.5521 651.247 44.1838 651.825C41.7612 652.413 39.3029 653.254 36.8971 653.598C36.9834 653.55 37.0566 653.483 37.0735 653.388C37.0641 653.431 36.959 653.522 36.837 653.608C36.443 653.67 36.5912 653.708 36.7845 653.646C36.6306 653.751 36.4673 653.851 36.4429 653.87C35.3996 654.673 34.3562 655.481 33.3128 656.284C30.4023 658.525 27.4917 660.772 24.5811 663.013C23.2412 664.045 15.2901 666.87 12.6292 667.544C10.7995 668.003 8.96982 668.466 7.14017 668.925C6.19061 669.164 5.17725 668.829 4.3309 667.969C3.53146 667.238 2.8071 666.053 2.68701 664.222C2.04523 654.291 2.37927 633.621 2.37927 633.621C2.37927 633.621 1.5892 612.349 1.88947 650.708C2.28165 641.828 2.41492 633.087 2.58755 624.274Z" fill="#C58FFF"/>
</svg>