<svg xmlns="http://www.w3.org/2000/svg" width="156" height="33" viewBox="0 0 156 33" fill="none">
<path d="M15.6393 32.6445C16.6411 32.6045 17.6426 32.5616 18.6439 32.5187C22.7296 32.3436 26.8128 32.1686 30.9049 32.1955C31.9073 32.202 32.9098 32.2055 33.9124 32.209C35.9702 32.2162 38.0281 32.2234 40.085 32.257C41.6267 32.2825 43.1715 32.3827 44.7138 32.4827C45.4421 32.53 46.1699 32.5772 46.8965 32.6165L51.8228 32.883C51.9327 32.889 52.0423 32.8962 52.1517 32.9035C52.5637 32.9308 52.973 32.9579 53.3853 32.916L62.8102 31.963C63.1402 31.9296 63.473 31.8881 63.807 31.8465C64.4745 31.7632 65.1467 31.6793 65.8103 31.659C66.33 31.6442 66.8646 31.6902 67.3932 31.7357C67.6489 31.7578 67.9031 31.7797 68.1536 31.7945C71.3012 31.9817 74.4488 32.1679 77.596 32.3541L77.8905 32.3715C80.4568 32.5234 83.0373 32.4728 85.6172 32.4222C87.555 32.3842 89.4925 32.3462 91.4235 32.394C93.458 32.4447 95.4908 32.563 97.5237 32.6814C100.201 32.8372 102.878 32.9931 105.559 32.9945L115.535 33C117.103 33.0008 118.651 32.8688 120.209 32.7358C120.519 32.7094 120.829 32.6829 121.139 32.6575L126.488 32.221C126.839 32.1924 127.192 32.157 127.545 32.1215C128.254 32.0504 128.966 31.979 129.672 31.961C130.171 31.9484 130.678 31.9794 131.181 32.0103C131.416 32.0247 131.651 32.0391 131.883 32.049M15.6393 32.6445L15.6195 32.1449C15.6195 32.1449 15.6194 32.1449 15.6194 32.1449M15.6393 32.6445L15.6194 32.1449M15.6393 32.6445C14.2104 32.7012 12.7781 32.6738 11.3473 32.6465C10.8476 32.637 10.348 32.6274 9.84879 32.6215M15.6194 32.1449C16.6178 32.1051 17.617 32.0622 18.6169 32.0194C22.7038 31.8442 26.8025 31.6685 30.9082 31.6955C31.9072 31.702 32.908 31.7055 33.9098 31.709C35.9695 31.7162 38.0331 31.7234 40.0932 31.7571L40.0933 31.7571C41.647 31.7827 43.2126 31.8843 44.7616 31.9847C45.4869 32.0318 46.2085 32.0786 46.9235 32.1172L51.8498 32.3837L51.85 32.3837C51.974 32.3905 52.0927 32.3983 52.2075 32.4058C52.6123 32.4324 52.9682 32.4558 53.3348 32.4186L53.335 32.4185L62.7599 31.4655L62.7599 31.4655C63.0651 31.4347 63.3849 31.3949 63.7125 31.3541C64.3939 31.2693 65.1088 31.1802 65.795 31.1592L65.796 31.1592C66.3442 31.1436 66.9309 31.1939 67.4749 31.2405C67.7223 31.2617 67.961 31.2822 68.1831 31.2954L68.1833 31.2954C71.3311 31.4826 74.479 31.6688 77.6266 31.855L77.92 31.8724C80.146 32.0041 82.3869 31.9823 84.6449 31.9408C84.9648 31.9349 85.2851 31.9286 85.6058 31.9223C87.543 31.8843 89.4929 31.846 91.4359 31.8941L91.436 31.8942C93.4794 31.9451 95.5213 32.064 97.5536 32.1823C97.8756 32.201 98.1973 32.2197 98.5187 32.2382C100.873 32.3733 103.216 32.4933 105.56 32.4945L115.535 32.5C117.08 32.5008 118.603 32.3709 120.161 32.2381C120.472 32.2116 120.784 32.1849 121.099 32.1592L121.099 32.1592L126.448 31.7227C126.779 31.6956 127.121 31.6613 127.47 31.6264C128.189 31.5543 128.935 31.4796 129.659 31.4612C130.18 31.448 130.725 31.4813 131.239 31.5127C131.469 31.5268 131.692 31.5404 131.904 31.5494L131.883 32.049M15.6194 32.1449C14.2064 32.201 12.7956 32.174 11.3692 32.1468C10.8667 32.1372 10.3622 32.1276 9.8551 32.1215M131.883 32.049L131.905 31.5494M131.883 32.049L137.175 32.271C142.466 32.4925 147.744 32.546 153.04 32.5995L155.529 32.6245L131.905 31.5494M131.905 31.5494L137.196 31.7714C142.477 31.9925 147.747 32.046 153.045 32.0995L155.073 32.1199M131.905 31.5494L155.544 32.1246L155.534 32.1245M155.073 32.1199C155.072 32.2604 155.071 32.4008 155.069 32.5412L155.069 32.5489L155.069 32.5566C155.069 32.5542 155.069 32.5489 155.069 32.5412C155.07 32.5344 155.07 32.5258 155.072 32.5157C155.074 32.496 155.081 32.4536 155.104 32.4023C155.127 32.3491 155.174 32.2709 155.264 32.2085C155.354 32.1455 155.452 32.124 155.534 32.1245M155.073 32.1199C155.082 31.1445 155.086 30.166 155.089 29.1857C155.098 26.7227 155.107 24.2483 155.199 21.7847L155.485 14.1846L155.485 14.1843C155.538 12.7935 155.448 11.5192 155.292 10.1084L154.485 2.81644M155.073 32.1199L155.534 32.1245M155.534 32.1245L154.485 2.81644M154.485 2.81644C154.48 2.77977 154.456 2.67752 154.395 2.51712C154.337 2.36615 154.257 2.19077 154.163 2.01687L154.117 1.9326L154.047 1.81931C153.935 1.63747 153.821 1.48918 153.72 1.39111C153.645 1.31872 153.603 1.2998 153.595 1.29593L145.558 0.880166C145.558 0.880164 145.558 0.880163 145.558 0.880161C145.147 0.859022 144.741 0.834418 144.338 0.810004C142.873 0.721249 141.45 0.634998 140.011 0.726812L130.163 1.35777C130.004 1.36806 129.838 1.38196 129.665 1.39631C129.213 1.43391 128.723 1.47468 128.256 1.46215L128.269 0.962331L128.256 1.46215C127.475 1.44106 126.678 1.37333 125.9 1.30725C125.522 1.27512 125.149 1.24338 124.784 1.21758C123.775 1.14628 122.769 1.07024 121.764 0.994301C119.764 0.843149 117.769 0.692375 115.769 0.580047L154.485 2.81644ZM154.485 2.81644L154.981 2.76034L154.484 2.81534L154.485 2.81644ZM9.8551 32.1215L9.84879 32.6215M9.8551 32.1215C7.1753 32.0877 4.49507 32.0554 1.8159 32.023M9.8551 32.1215C9.85499 32.1215 9.85487 32.1215 9.85476 32.1215L9.84879 32.6215M9.84879 32.6215C7.16867 32.5877 4.48808 32.5553 1.8084 32.523L1.76935 32.5225M1.8159 32.023C1.78592 32.0007 1.74204 31.9575 1.68684 31.8868C1.6057 31.7831 1.54549 31.6842 1.48329 31.5821C1.45183 31.5304 1.41986 31.4779 1.38442 31.4235L1.38435 31.4234L1.36666 31.3963C1.25153 31.2198 1.13696 31.0442 1.04743 30.8646C0.950992 30.6712 0.912274 30.5273 0.913738 30.4289L0.913745 30.4285C0.94693 28.0515 0.980117 25.6739 1.01238 23.2964L0.51243 23.2894M1.8159 32.023C1.80537 32.0229 1.79484 32.0228 1.7843 32.0226L1.77615 32.0225C1.80689 32.023 1.82541 32.0304 1.8302 32.0326M1.8159 32.023C1.81594 32.023 1.81598 32.0231 1.81602 32.0231C1.82344 32.0286 1.82812 32.0315 1.8302 32.0326M1.76935 32.5225L1.77579 32.0225L1.77539 32.0225L1.76935 32.5225ZM1.76935 32.5225C1.46908 32.5186 1.20344 32.0838 1.0386 31.8139C1.01139 31.7694 0.986931 31.7294 0.965513 31.6965C0.958399 31.6856 0.951199 31.6746 0.943925 31.6634C0.713169 31.3099 0.407538 30.8417 0.413793 30.4215C0.44698 28.0445 0.480166 25.667 0.51243 23.2894M0.51243 23.2894L1.01238 23.2962M0.51243 23.2894C0.557742 20.014 0.350322 16.7567 0.142303 13.4899L1.01238 23.2962M1.8302 32.0326C1.83102 32.033 1.83143 32.0333 1.83144 32.0333L1.8302 32.0326ZM1.01238 23.2962C1.05798 19.9997 0.849061 16.7197 0.640977 13.4527C0.599382 12.7997 0.557821 12.1472 0.518333 11.4952L0.518324 11.495C0.448308 10.3442 0.589279 9.23652 0.740166 8.05094C0.771367 7.80578 0.802992 7.55729 0.833263 7.3044C0.833268 7.30436 0.833272 7.30432 0.833276 7.30429L1.53002 1.49399C2.2328 1.50011 2.93564 1.50589 3.6388 1.51131C8.94786 1.55582 14.2489 1.58336 19.5622 1.5193L19.5623 1.51929C20.2799 1.51058 21.004 1.50867 21.7314 1.50674C23.2786 1.50265 24.8405 1.49852 26.3865 1.42882L26.3866 1.42882C28.3898 1.33793 30.3946 1.2241 32.3958 1.11047C33.4025 1.05332 34.4082 0.996212 35.4124 0.942104L35.4125 0.9421M1.01238 23.2962L35.4125 0.9421M102.536 0.578454L102.536 0.578463L93.1778 1.27097L93.1409 0.772474L93.1778 1.27097C91.3877 1.4034 89.6794 1.49513 87.8713 1.46526L87.8795 0.965331L87.8712 1.46526L78.0758 1.30276L78.0757 1.30276C76.6481 1.27876 75.2236 1.31382 73.7877 1.34915C73.2611 1.36211 72.733 1.37511 72.2026 1.38524L72.2024 1.38524C71.3719 1.4007 70.527 1.43112 69.6754 1.46178C67.9481 1.52397 66.193 1.58716 64.4736 1.52854L64.4734 1.52853C62.6186 1.46453 60.7422 1.28094 58.8902 1.09975C57.9794 1.01064 57.0745 0.922107 56.181 0.848663L102.536 0.578454ZM102.536 0.578454C103.963 0.472541 105.402 0.502209 106.86 0.532256C107.539 0.546257 108.222 0.56034 108.909 0.560826C109.656 0.56148 110.399 0.550577 111.138 0.539724M102.536 0.578454L111.138 0.539724M35.4125 0.9421C39.5366 0.719179 43.6629 0.640179 47.8014 0.560945C48.7575 0.54264 49.7143 0.524323 50.6718 0.504216C52.0704 0.474886 53.4553 0.602329 54.8726 0.732755M35.4125 0.9421L54.8726 0.732755M111.138 0.539724C112.694 0.516881 114.235 0.494257 115.769 0.58004L111.138 0.539724ZM54.8726 0.732755C55.3052 0.772566 55.7409 0.812654 56.1808 0.848647L54.8726 0.732755Z" stroke="#DCFF02"/>
</svg>